<svg width="306" height="101" viewBox="0 0 306 101" fill="none" xmlns="http://www.w3.org/2000/svg">
<path d="M306 100.5H94.2012L0 0H306V100.5Z" fill="#999999"/>
<path d="M112.991 0.122343L171.354 0.389832C172.845 3.95499 173.647 7.81019 173.672 11.7516C173.734 20.3917 170.149 27.8173 164.146 33.8993C158.667 39.3616 151.245 42.4248 143.511 42.4155C138.908 42.4388 134.503 41.4935 130.224 39.8238C126.446 38.3592 122.973 36.2064 119.98 33.474C115.644 29.5206 112.401 24.3446 111.339 18.5042C111.019 16.7433 110.709 15.0595 110.624 13.2625C110.446 8.71959 111.271 4.23957 112.991 0.122343Z" fill="white"/>
<path d="M118.274 0.328653H165.829C166.672 1.90047 167.345 3.54958 167.812 5.24037C168.207 6.67187 168.719 9.70463 168.721 11.1704C168.73 17.7145 166.205 24.6598 161.627 29.3503C156.713 34.3865 150.105 37.4937 143.109 37.6949C135.994 37.8339 129.092 35.2628 123.803 30.5024C118.936 26.0746 115.958 19.3652 115.648 12.8231C115.407 8.46039 116.332 4.15567 118.274 0.328653Z" fill="#999999"/>
<path d="M123.228 0.485922L160.852 0.48592C162.954 3.72592 164.078 7.44242 164.232 11.5268C164.27 12.542 164.182 13.5572 164.049 14.5628C163.445 19.133 161.351 23.306 158.23 26.6719C154.43 30.801 149.153 33.2541 143.553 33.4944C137.435 33.7136 132.391 32.2049 127.66 28.1912C123.079 24.3059 120.545 19.5594 120.097 13.57C119.744 8.85823 120.834 4.28975 123.228 0.485922Z" fill="white"/>
<path d="M136.831 0.14524L148.106 0.10093C148.966 0.603254 149.741 1.23109 150.417 2.10295C151.576 3.59759 152.002 5.06793 151.909 6.93092C150.583 7.01629 148.641 6.9576 147.277 6.95414C147.159 6.40459 147.05 5.88953 146.816 5.38053C145.209 1.89007 139.16 2.04188 138.068 5.87471C137.792 6.65495 137.829 7.36141 138.218 8.09478C138.575 8.81498 139.401 9.68124 140.262 9.756C142.391 9.9409 144.602 9.61755 146.683 10.2841C148.57 10.8889 150.352 12.3678 151.288 14.1337C152.075 15.6162 152.071 17.9697 151.576 19.5772C150.988 21.2845 148.999 23.5318 147.373 24.3417C146.611 24.721 145.592 25.0051 144.738 25.4125C144.73 25.8378 144.789 27.6792 144.708 27.9414L144.609 27.9806C143.146 28.0325 141.682 28.0461 140.219 28.0208L140.071 25.3411C138.206 24.5504 137.377 24.6187 135.803 23.0545C134.046 21.3094 133.49 19.372 133.482 16.9477C134.949 16.9297 136.416 16.9207 137.883 16.9207C138.006 18.1363 138.45 18.968 139.405 19.7513C140.566 20.6921 142.058 21.1261 143.544 20.9555C144.733 20.8288 145.924 20.2129 146.662 19.2809C148.329 17.1756 146.206 14.6463 143.911 14.4585C142.598 14.3089 141.157 14.4186 139.861 14.1979C138.508 13.9677 136.912 13.3241 135.843 12.4848C134.369 11.3076 133.427 9.59064 133.227 7.71602C132.874 4.66547 134.407 1.78634 136.831 0.14524Z" fill="#999999"/>
<path d="M152.523 73.7767C153.143 73.3816 153.931 73.0779 154.626 72.7852C155.553 72.4076 156.483 72.0367 157.416 71.6726C157.985 71.4484 158.56 71.2132 159.144 71.0337C160.152 70.724 161.711 71.027 162.281 71.8646C162.795 72.6207 163.184 73.7433 163.539 74.6133L165.398 79.2057L169.268 88.7121C169.953 90.395 170.646 92.0761 171.312 93.766C171.429 94.0634 171.743 94.9014 171.866 95.2411C172.145 96.0059 173.814 99.9827 174 100.503H160.886C160.225 98.9536 158.648 94.6224 158.002 93.0682C156.539 89.5563 155.106 86.0319 153.704 82.4955L152.073 78.4434C151.811 77.7915 151.512 77.096 151.303 76.4323C151.02 75.5338 151.693 74.3056 152.523 73.7767Z" fill="white"/>
<path d="M151.516 53.5999C152.63 53.0955 153.831 52.6387 154.97 52.1865C156.18 51.7066 157.651 52.167 157.979 53.4036C158.571 55.633 159.048 57.9284 159.455 60.2041C159.69 61.5225 160.054 62.8293 160.157 64.1705C160.204 64.9706 160.006 65.5087 159.239 66.0062C158.448 66.5198 156.825 66.6414 156.258 65.8622C155.996 65.3861 155.824 64.7951 155.648 64.2889C155.253 63.1546 154.799 61.9536 154.481 60.8017C154.259 61.2301 153.953 61.6583 153.737 62.071C153.23 63.0397 152.682 63.975 152.151 64.9298L145.298 77.2653C144.842 78.0859 144.47 78.8458 143.906 79.6197C143.53 80.1341 143.415 80.3213 142.783 80.6107C142.351 80.8086 141.962 80.9257 141.482 80.8901C140.532 80.8196 139.534 80.4594 138.628 80.2319C136.77 79.765 134.83 79.2711 133.02 78.6889C132.245 79.3 132.018 79.9123 131.563 80.7288C131.051 81.6528 130.547 82.5805 130.05 83.5117L125.857 91.3684C125.464 92.1025 124.945 93.2244 124.163 93.624C123.197 94.1427 121.495 93.6027 121.095 92.6809C120.645 91.5109 121.905 89.8645 122.455 88.8145C123.492 86.8343 124.614 84.8861 125.69 82.9303L128.427 77.8923C129.93 75.1575 130.228 73.6587 133.782 74.7836C134.839 75.1182 136.165 75.3783 137.256 75.7006C138.478 76.0616 139.75 76.1977 140.957 76.6187C141.068 76.4499 141.166 76.2586 141.259 76.0803C143.484 71.8069 146.069 67.681 148.279 63.4034C148.954 62.0965 150.221 59.9201 150.421 58.5527C148.85 59.0861 147.29 59.9354 145.664 60.2754C144.07 60.6087 142.6 59.2818 143.236 57.7755C143.382 57.4287 143.63 57.0759 143.943 56.8303C146.344 55.6117 149.049 54.6827 151.516 53.5999Z" fill="white"/>
<path d="M140.41 88.047C140.875 87.0027 141.68 86.6708 142.708 86.2224C144.478 85.4588 146.658 84.5605 148.501 83.9984C149.68 83.6387 151.081 84.4244 151.508 85.4746C151.983 86.6458 152.501 87.8962 152.994 89.109L155.721 95.8188L157.859 100.35H144.531C143.859 98.7309 142.733 96.2894 142.078 94.6632L140.9 91.7439C140.41 90.5248 139.804 89.4074 140.41 88.047Z" fill="white"/>
<path d="M141.259 100.35L128.148 100.503C127.127 97.7486 129.913 97.2147 132.277 96.3148C132.452 96.248 132.631 96.188 132.807 96.122C134.458 95.6028 136.393 94.4569 138.121 95.1643C139.113 95.5702 139.576 96.8774 139.958 97.7124L141.259 100.35Z" fill="white"/>
<path d="M230.426 0L261.154 0.16383C283.624 6.64468 300 26.7175 300 50.4756C300 73.3412 284.831 92.7933 263.66 100L226.222 99.6061C205.637 92.104 191 72.9367 191 50.4756C191 26.5137 207.658 6.30045 230.426 0Z" fill="white"/>
<path d="M208.324 51.8671C209.392 51.7849 209.98 52.4546 210.915 52.8943C211.556 53.1954 212.255 53.4484 212.968 53.4749C214.463 53.5307 215.987 53.5098 217.483 53.5092L234.371 53.5084C235.821 53.5089 237.63 53.563 239.051 53.5012C239.05 55.0395 238.972 57.2122 239.152 58.7302C239.18 58.97 239.629 59.4916 239.808 59.6865C240.234 59.8399 240.778 59.8796 241.237 59.8751C244.38 59.8445 247.544 59.9555 250.68 59.8225C251.111 59.7719 251.71 59.1755 251.767 58.7243C251.973 57.0895 251.884 55.153 251.885 53.5027C253.483 53.5526 255.313 53.5096 256.926 53.5095L273.828 53.5116C275.002 53.5122 276.595 53.5566 277.739 53.4844C278.494 53.4383 279.235 53.2581 279.928 52.9522C280.702 52.6042 281.53 51.8456 282.407 51.8653C283.215 51.8835 283.79 52.5726 283.839 53.3618C283.897 54.3029 283.881 55.2507 283.88 56.1996L283.876 61.158C283.876 65.8994 283.951 70.8376 283.861 75.5633C283.785 76.7694 283.726 77.6506 283.182 78.7819C282.421 80.3649 281.158 81.457 279.505 82.0266C278.281 82.4491 276.538 82.3713 275.212 82.3723L217.009 82.3733C215.093 82.3748 212.383 82.5828 210.669 81.7215C209.148 80.9612 207.986 79.6308 207.434 78.0176C206.906 76.4237 207.068 73.4712 207.067 71.7213L207.067 57.5099C207.064 56.2656 207.047 54.9995 207.076 53.7558C207.084 53.431 207.172 52.8939 207.325 52.6074C207.559 52.1707 207.885 52.0048 208.324 51.8671Z" fill="#999999"/>
<path d="M235.77 18.1959C235.962 18.1771 236.35 18.1712 236.543 18.1713C240.648 18.1737 244.756 18.1754 248.861 18.1725L252.879 18.1697C255.463 18.1689 257.58 18.0568 259.6 20.0581C261.789 22.2257 261.46 24.9599 261.465 27.7736C266.714 27.8383 271.978 27.7329 277.228 27.8005C278.958 27.8227 280.609 28.3566 281.88 29.5742C283.647 31.2681 283.869 33.194 283.881 35.5108L283.88 40.1292C283.882 41.9424 284.003 44.1704 283.494 45.9082C282.911 47.8999 280.886 49.697 278.858 50.0703C277.493 50.3214 275.999 50.2726 274.597 50.2721L251.945 50.2682C251.716 50.0138 252.33 47.2166 250.511 47.1034C247.523 46.9174 244.499 47.0933 241.506 47.0314C238.987 46.9794 239.026 48.1893 239.054 50.2656L216.433 50.2713C214.997 50.2713 213.413 50.332 212.008 50.057C210.004 49.6646 208.211 48.0257 207.508 46.1204C207.15 45.1488 207.069 43.9107 207.062 42.8692L207.063 38.0662C207.057 35.0152 206.652 31.9288 209.022 29.6143C210.923 27.7571 212.993 27.7833 215.419 27.7835L229.467 27.7767C229.494 26.6486 229.45 25.5274 229.508 24.3962C229.697 20.7624 232.222 18.4017 235.77 18.1959Z" fill="#999999"/>
<path d="M235.891 24.5825C242.236 24.5053 248.681 24.5999 255.042 24.5714C255.053 25.6387 255.042 26.7203 255.039 27.7888L235.891 27.7828C235.877 26.716 235.877 25.6492 235.891 24.5825Z" fill="white"/>
</svg>
