<svg width="306" height="101" viewBox="0 0 306 101" fill="none" xmlns="http://www.w3.org/2000/svg">
<path d="M94.5475 100.5L0 0H306V100.5H94.5475Z" fill="#999999"/>
<path d="M219.617 0L248.936 0.16383C270.375 6.64468 286 26.7175 286 50.4756C286 73.3412 271.527 92.7933 251.327 100L215.606 99.6061C195.965 92.104 182 72.9367 182 50.4756C182 26.5137 197.894 6.30045 219.617 0Z" fill="white"/>
<path d="M240.836 42.9742C242.102 42.8371 242.513 43.644 242.521 44.9863C242.551 50.0316 242.552 55.0811 242.521 60.1266C242.515 61.1259 242.297 61.5866 241.485 61.9906C241.261 62.0208 241.038 62.0239 240.817 61.9615C240.475 61.8646 240.155 61.6521 239.982 61.2797C239.832 60.9585 239.824 60.3427 239.813 59.9777C239.772 58.6628 239.722 44.4795 239.906 43.9012C240.063 43.4069 240.45 43.1733 240.836 42.9742Z" fill="white"/>
<path d="M209.707 17.137C213.26 17.0157 217.36 17.1124 220.95 17.1125L252.794 17.1116C255.065 17.1106 258.202 16.9117 260.373 17.3877C270.714 19.6551 273.043 33.3308 264.084 38.9496C261.135 40.7994 258.12 41.0335 254.77 40.3449C253.845 40.1244 252.626 39.6268 251.812 39.1443C251.095 38.7199 249.336 37.5172 248.976 36.7735L219.054 36.7722L219.005 36.8291C214.653 41.7344 207.025 41.9789 202.156 37.6649C199.853 35.6119 198.471 32.7294 198.316 29.6583C198.028 24.3938 200.951 19.7921 205.923 17.8619C207.191 17.3697 208.362 17.2096 209.707 17.137Z" fill="#999999"/>
<path d="M220.076 39.6902C223.233 39.5766 227.075 39.6741 230.286 39.6739L247.797 39.6857C248.455 40.1175 249.121 40.7582 249.819 41.2435C249.858 42.1487 249.829 43.2733 249.829 44.19L249.834 66.4553L247.808 66.4571L218.027 66.4528L218.018 41.2892C218.549 40.8632 219.543 40.0166 220.076 39.6902Z" fill="#999999"/>
<path d="M225.633 43.4335C226.899 43.2969 227.31 44.101 227.318 45.4385C227.348 50.4659 227.349 55.4975 227.318 60.5251C227.312 61.5208 227.094 61.98 226.282 62.3825C226.058 62.4126 225.835 62.4157 225.614 62.3535C225.272 62.2569 224.952 62.0452 224.779 61.6741C224.629 61.3541 224.621 60.7405 224.61 60.3767C224.569 59.0665 224.519 44.9335 224.703 44.3573C224.86 43.8647 225.247 43.6319 225.633 43.4335Z" fill="white"/>
<path d="M233.068 43.4336C234.335 43.2965 234.745 44.1034 234.753 45.4456C234.783 50.491 234.785 55.5405 234.753 60.5859C234.747 61.5853 234.529 62.046 233.717 62.45C233.493 62.4802 233.27 62.4833 233.049 62.4209C232.707 62.3239 232.387 62.1115 232.214 61.7391C232.065 61.4179 232.056 60.8021 232.045 60.4371C232.004 59.1222 231.954 44.9389 232.138 44.3606C232.295 43.8662 232.682 43.6327 233.068 43.4336Z" fill="white"/>
<path d="M241.176 43.4336C242.443 43.2965 242.853 44.1034 242.861 45.4456C242.892 50.491 242.893 55.5405 242.862 60.5859C242.855 61.5853 242.637 62.046 241.825 62.45C241.602 62.4802 241.378 62.4833 241.158 62.4209C240.815 62.3239 240.496 62.1115 240.322 61.7391C240.173 61.4179 240.165 60.8021 240.153 60.4371C240.112 59.1222 240.062 44.9389 240.246 44.3606C240.404 43.8662 240.79 43.6327 241.176 43.4336Z" fill="white"/>
<path d="M209.632 76.6356C210.764 76.5901 212.085 76.619 213.227 76.619L256.148 76.6166C257.556 76.6147 259.138 76.3891 260.339 77.3249C262.234 78.8019 261.502 81.3723 261.631 83.5109C261.779 85.9675 261.533 88.2162 258.478 88.472L211.202 88.4769C210.528 88.4769 209.768 88.5033 209.106 88.4388C207.577 88.2912 206.318 86.8351 206.282 85.3206C206.242 83.6554 206.291 82.0327 206.267 80.373C206.253 79.3904 206.384 78.4084 207.073 77.6551C207.817 76.8342 208.6 76.7045 209.632 76.6356Z" fill="#999999"/>
<path d="M215.887 68.7766L216.004 68.7747C218.554 68.7352 221.173 68.767 223.731 68.767H247.186C248.732 68.767 250.287 68.7544 251.832 68.7861C252.16 68.7927 252.946 68.8653 253.168 69.1074C253.873 69.8747 253.647 71.0339 253.684 71.9798C253.698 72.7027 253.678 73.4351 253.674 74.1526L252.057 74.1598L214.281 74.1592C214.298 73.0377 214.022 70.1078 214.646 69.316C214.986 68.885 215.37 68.8269 215.887 68.7766Z" fill="#999999"/>
<path d="M118.93 75.825C112.261 73.6218 105.811 73.203 99.3909 76.3186C97.5056 77.3064 96.1856 78.9016 96.1323 81.0815C96.059 84.0546 98.0485 85.7069 100.273 87.2629C105.126 90.6565 110.984 92.4655 116.84 93.0723C117.954 93.1878 118.979 93.2983 120.085 93.3175C118.688 95.5251 120.528 96.0436 122.269 96.3924C125.192 96.9786 128.298 97.2355 131.243 96.6298C131.957 97.796 132.681 99.104 133.372 100.306L176.393 99.8678C176.486 99.62 176.567 99.3679 176.636 99.1124C177.663 95.1351 175.545 91.6665 173.655 88.3944L159.915 64.6155C162.631 63.0914 165.319 61.4817 168.036 59.9355C169.284 59.1585 170.697 58.5153 171.876 57.644C172.476 57.2006 172.069 56.2225 171.794 55.7421C170.501 53.4913 169.461 50.9717 167.417 49.271C165.736 47.873 163.443 47.1897 161.27 47.3925C160.2 47.4883 159.157 47.7821 158.194 48.2588C157.45 48.6199 156.667 49.0974 155.943 49.5163L126.53 66.4973C125.743 66.9511 124.954 67.3874 124.194 67.8835C121.218 69.8234 119.909 72.8771 120.238 76.3664C119.854 76.1534 119.351 75.9639 118.93 75.825Z" fill="#999999"/>
<path d="M156.056 63.2482C154.291 60.1781 152.712 57.5821 153.554 53.8215C151.502 54.9168 149.241 56.29 147.207 57.4645L128.746 68.123C128.381 68.3338 127.931 68.619 127.57 68.8021C124.815 70.1997 122.508 72 122.653 75.4168C122.689 76.2651 122.857 76.8536 123.188 77.666C123.779 77.9475 124.351 78.2665 124.901 78.6211C124.96 78.1595 125.025 77.6997 125.324 77.322C125.56 77.0223 125.915 76.8478 126.291 76.8042C127.751 76.635 132.044 79.5121 133.298 80.5467C136.719 83.3695 139.154 87.3467 139.595 91.8096C139.64 91.8279 139.685 91.8461 139.728 91.8654C140.048 92.0091 140.388 92.1862 140.703 92.3527C142.533 93.3207 144.446 94.2461 146.167 95.3935C147.29 96.1436 146.407 98.0321 145.1 97.5961C144.594 97.4274 144.113 97.1064 143.645 96.8518C141.947 95.8244 140.128 94.9984 138.398 94.0413C136.957 94.92 135.41 95.6124 133.795 96.1021L135.404 98.8789L136.005 99.921L151.066 100.014L157.098 96.5303C159.354 95.2282 160.385 93.971 161.744 96.8393C162.123 97.6387 162.838 98.7919 163.318 99.577C163.428 99.7567 163.542 99.928 163.661 100.091L173.49 100.152C174.399 98.7811 174.711 96.9309 173.956 94.7836C173.003 92.0875 171.341 89.7013 169.913 87.2272L156.056 63.2482Z" fill="white"/>
<path d="M100.561 76.059C99.1594 76.1096 88.787 77.0726 88.7891 78.3012C88.7918 80.0071 98.5099 84.7432 101.226 85.6481C107.455 87.746 113.471 90.3872 119.618 90.8828C120.382 90.9422 121.145 90.9932 121.909 91.035C122.509 91.0637 123.456 91.0424 123.997 91.1958C124.271 91.2738 124.52 91.4218 124.72 91.6249C125.611 92.5176 124.928 93.5399 124.184 94.2228C125.068 94.2752 126.013 94.4578 126.954 94.5086C130.535 94.7019 133.215 94.246 136.463 92.7911C135.326 92.3711 133.923 91.6598 132.747 91.1705C130.322 90.1691 127.87 89.2361 125.392 88.3724C123.245 87.6319 121.084 86.928 118.912 86.2608C117.955 85.9671 116.021 85.4879 115.214 85.0649C115.079 84.9406 114.927 84.7509 114.853 84.5827C114.709 84.2447 114.712 83.8616 114.862 83.5254C115.149 82.888 115.717 82.7131 116.364 82.8652C117.434 83.1169 118.487 83.4583 119.538 83.7799C123.971 85.1112 128.342 86.6398 132.637 88.3613C134.212 88.9974 136.25 89.8134 137.732 90.599L137.709 90.5159C136.329 85.5554 133.295 82.7246 128.976 80.3036C129.236 81.1229 129.156 82.0849 128.292 82.5259C127.233 83.0371 126.415 82.1384 125.634 81.6441C123.406 80.2344 120.751 79.0215 118.256 78.2261C112.699 76.4539 107.655 75.8026 100.561 76.059Z" fill="white"/>
<path d="M159.094 50.8261C158.974 50.8849 158.857 50.9493 158.743 51.0189C157.418 51.8284 156.453 53.0757 156.078 54.6025C155.371 57.4834 157.18 60.1648 158.636 62.539L169.216 56.4335C167.976 54.1272 166.587 51.2217 163.969 50.3949C162.22 49.8423 160.7 50.0398 159.094 50.8261Z" fill="white"/>
<path d="M102.055 0.662495L162.474 0.392166C163.338 3.71063 163.665 7.22925 163.363 10.8403C161.932 27.995 146.867 40.7426 129.712 39.3154C112.552 37.8878 99.7989 22.8163 101.231 5.65551C101.374 3.94406 101.652 2.27649 102.055 0.662495Z" fill="white"/>
<path d="M120.974 0.949046L151.483 0.389108C149.968 2.75749 149.071 5.28207 150.072 8.15968C150.856 10.414 152.183 14.0755 154.27 15.4827C155.241 16.1376 156.271 15.1843 156.992 14.6622C157.327 14.4332 158.082 14.1658 158.505 14.0299C158.236 14.8355 158.035 15.816 157.75 16.682C156.798 19.5434 155.374 22.2257 153.538 24.618C149.785 29.4698 144.487 32.8938 138.521 34.3227C137.79 34.4938 137.154 34.6418 136.41 34.7415C137.192 33.0296 137.979 32.0308 139.297 30.7101C140.257 29.7677 141.307 28.9597 142.387 28.1501C143.944 26.9814 146.611 25.1795 146.366 22.9425C146.118 20.6816 143.142 19.3886 141.239 18.773C140.379 18.4952 139.391 18.3473 138.694 17.7113C137.817 16.8895 137.527 15.6917 137.197 14.5861C136.737 12.9831 136.15 11.8288 135.034 10.5976C133.151 8.52057 130.979 8.76925 128.416 8.70834C126.641 8.6661 124.382 8.51785 122.911 7.37112C121.032 5.90723 122.12 3.71827 121.432 1.87708C121.31 1.55332 121.157 1.24245 120.974 0.949046Z" fill="#999999"/>
<path d="M106.651 0.388104H108.678C108.871 1.25442 109.295 2.60114 109.579 3.28967C110.729 6.06798 112.602 8.33117 114.934 10.2065C115.722 10.8406 116.56 11.3777 117.389 11.974C118.185 12.5577 119.172 13.0514 119.761 13.8601C120.006 14.1953 119.918 15.0119 119.903 15.4214C119.842 16.773 119.719 18.1213 119.535 19.4617C119.262 21.5296 118.845 22.73 120.531 24.3948C122.204 26.0475 124.522 26.941 125.894 28.8934C126.564 29.8461 126.73 31.4446 126.742 32.5899C126.744 33.1532 126.607 33.8792 126.506 34.441L125.342 34.1354C123.769 33.7002 122.266 33.1889 120.795 32.4706C114.971 29.6909 110.337 24.9164 107.731 19.0133C107.03 17.4334 106.503 15.7328 106.119 14.0504C105.089 9.50474 105.285 4.7933 106.651 0.388104Z" fill="#999999"/>
<line x1="142.499" y1="90.1346" x2="161.499" y2="79.1346" stroke="#999999" stroke-width="2"/>
<line x1="145.499" y1="94.1346" x2="164.499" y2="83.1346" stroke="#999999" stroke-width="2"/>
</svg>
