<svg width="88" height="88" viewBox="0 0 88 88" fill="none" xmlns="http://www.w3.org/2000/svg">
<path d="M1.1161 21.6811C0.499697 12.866 7.14599 5.22034 15.961 4.60393L65.8392 1.1161C74.6543 0.499697 82.3 7.14599 82.9164 15.961L86.4042 65.8392C87.0206 74.6543 80.3743 82.3 71.5593 82.9164L21.6811 86.4042C12.866 87.0206 5.22033 80.3743 4.60393 71.5593L1.1161 21.6811Z" fill="url(#paint0_linear_330_1891)"/>
<path d="M43.2603 60.2601C38.7516 60.2601 34.4276 58.4691 31.2394 55.2809C28.0513 52.0928 26.2603 47.7688 26.2603 43.2601C26.2603 38.7515 28.0513 34.4274 31.2394 31.2393C34.4276 28.0512 38.7516 26.2601 43.2603 26.2601C47.7689 26.2601 52.093 27.8721 55.2811 30.7414C58.4692 33.6107 60.2603 37.5023 60.2603 41.5601C60.2603 43.8145 59.3647 45.9765 57.7707 47.5705C56.1766 49.1646 54.0146 50.0601 51.7603 50.0601H47.9353C47.3828 50.0601 46.8412 50.214 46.3712 50.5044C45.9012 50.7949 45.5214 51.2105 45.2743 51.7047C45.0273 52.1988 44.9227 52.752 44.9723 53.3023C45.0219 53.8526 45.2238 54.3781 45.5553 54.8201L46.0653 55.5001C46.3967 55.9421 46.5986 56.4677 46.6482 57.018C46.6978 57.5682 46.5933 58.1214 46.3462 58.6156C46.0991 59.1098 45.7193 59.5254 45.2493 59.8158C44.7793 60.1063 44.2377 60.2601 43.6853 60.2601H43.2603Z" stroke="white" stroke-width="3.44763" stroke-linecap="round" stroke-linejoin="round"/>
<path d="M46.2603 35.2601C46.8125 35.2601 47.2603 34.8124 47.2603 34.2601C47.2603 33.7078 46.8125 33.2601 46.2603 33.2601C45.708 33.2601 45.2603 33.7078 45.2603 34.2601C45.2603 34.8124 45.708 35.2601 46.2603 35.2601Z" fill="white" stroke="white" stroke-width="3.44763" stroke-linecap="round" stroke-linejoin="round"/>
<path d="M53.2603 42.2601C53.8125 42.2601 54.2603 41.8124 54.2603 41.2601C54.2603 40.7078 53.8125 40.2601 53.2603 40.2601C52.708 40.2601 52.2603 40.7078 52.2603 41.2601C52.2603 41.8124 52.708 42.2601 53.2603 42.2601Z" fill="white" stroke="white" stroke-width="3.44763" stroke-linecap="round" stroke-linejoin="round"/>
<path d="M34.2603 46.2601C34.8125 46.2601 35.2603 45.8124 35.2603 45.2601C35.2603 44.7078 34.8125 44.2601 34.2603 44.2601C33.708 44.2601 33.2603 44.7078 33.2603 45.2601C33.2603 45.8124 33.708 46.2601 34.2603 46.2601Z" fill="white" stroke="white" stroke-width="3.44763" stroke-linecap="round" stroke-linejoin="round"/>
<path d="M38.2603 37.2601C38.8125 37.2601 39.2603 36.8124 39.2603 36.2601C39.2603 35.7078 38.8125 35.2601 38.2603 35.2601C37.708 35.2601 37.2603 35.7078 37.2603 36.2601C37.2603 36.8124 37.708 37.2601 38.2603 37.2601Z" fill="white" stroke="white" stroke-width="3.44763" stroke-linecap="round" stroke-linejoin="round"/>
<defs>
<linearGradient id="paint0_linear_330_1891" x1="0" y1="5.72003" x2="87.5203" y2="81.8003" gradientUnits="userSpaceOnUse">
<stop stop-color="#DF79E2"/>
<stop offset="1" stop-color="#B35FB5"/>
</linearGradient>
</defs>
</svg>
