<svg width="84" height="84" viewBox="0 0 84 84" fill="none" xmlns="http://www.w3.org/2000/svg">
<path d="M1.15191 15.9976C1.30613 7.16235 8.59351 0.125019 17.4287 0.279239L67.4211 1.15186C76.2563 1.30608 83.2936 8.59345 83.1394 17.4287L82.2668 67.421C82.1126 76.2563 74.8252 83.2936 65.99 83.1394L15.9976 82.2667C7.16241 82.1125 0.125074 74.8252 0.279294 65.9899L1.15191 15.9976Z" fill="url(#paint0_linear_330_1903)"/>
<path d="M41.7095 26.7093L29.6539 26.7093C28.7404 26.7093 27.8643 27.0605 27.2183 27.6856C26.5724 28.3107 26.2095 29.1586 26.2095 30.0426L26.2095 53.376C26.2095 54.26 26.5724 55.1079 27.2183 55.733C27.8643 56.3581 28.7404 56.7093 29.6539 56.7093L53.765 56.7093C54.6786 56.7093 55.5547 56.3581 56.2006 55.733C56.8466 55.1079 57.2095 54.26 57.2095 53.376L57.2095 41.7093" stroke="white" stroke-width="3.391" stroke-linecap="round" stroke-linejoin="round"/>
<path d="M53.0016 25.73C53.6836 25.0765 54.6086 24.7093 55.573 24.7093C56.5375 24.7093 57.4624 25.0765 58.1444 25.73C58.8263 26.3836 59.2095 27.27 59.2095 28.1942C59.2095 29.1185 58.8263 30.0049 58.1444 30.6585L42.6939 45.4668C42.2868 45.8566 41.784 46.1419 41.2316 46.2965L36.3066 47.6764C36.1591 47.7177 36.0027 47.7201 35.8539 47.6836C35.705 47.647 35.5692 47.5728 35.4605 47.4687C35.3519 47.3646 35.2744 47.2344 35.2363 47.0917C35.1982 46.9491 35.2007 46.7993 35.2438 46.6579L36.6837 41.9381C36.8458 41.4092 37.1441 40.9278 37.5511 40.5384L53.0016 25.73Z" stroke="white" stroke-width="3.391" stroke-linecap="round" stroke-linejoin="round"/>
<defs>
<linearGradient id="paint0_linear_330_1903" x1="1.43115" y1="0" x2="81.9876" y2="83.4186" gradientUnits="userSpaceOnUse">
<stop stop-color="#5DA2CB"/>
<stop offset="1" stop-color="#58C2F4"/>
</linearGradient>
</defs>
</svg>
