<svg width="489" height="404" viewBox="0 0 489 404" fill="none" xmlns="http://www.w3.org/2000/svg">
<path d="M134.333 352.761C173.81 287.875 232.374 303.195 252.237 323.722L512 471.918L159.597 519.982C88.9924 535.169 -26.2712 552.725 5.38452 437.372C37.0402 322.019 95.5397 330.732 134.333 352.761Z" fill="#349AD1"/>
<path d="M314.634 182C296.234 152 318.301 128.833 331.634 121V356.5C297.968 368.167 227.634 380 215.634 334C203.634 288 217.301 269.5 225.634 266L246.634 273.5C259.801 257.167 286.634 220.3 288.634 203.5C290.634 186.7 301.801 184.5 307.134 185.5L321.134 209.5C326.634 212.833 333.034 212 314.634 182Z" fill="#349AD1"/>
<path d="M415.629 96.5C418.273 80.5 431.844 77.8333 438.298 78.5V83L509.612 0L705.135 51L698.523 341L323.152 598L221.613 314C199.415 210 265.206 197.833 299.21 198.5C297.321 179.3 314.795 176.333 323.296 173C308.183 121 338.409 113 358.245 113C366.179 89.4 407.128 90.6666 415.629 96.5Z" fill="white"/>
<path d="M251.023 334.793C291.031 310.441 308.344 341.945 312 360.741L305.42 481H190.924C146.91 474.513 61.2502 448.066 70.7257 394.174C80.2012 340.281 122.344 351.093 142.231 363.236C176.272 284.992 228.943 311.672 251.023 334.793Z" fill="#F8DFF9"/>
<path d="M296.904 295.088C297.001 293.988 296.188 293.017 295.088 292.92C293.987 292.823 293.017 293.636 292.92 294.737L294.912 294.912L296.904 295.088ZM285.709 290.084C284.651 289.767 283.536 290.367 283.219 291.425C282.902 292.483 283.502 293.598 284.56 293.916L285.135 292L285.709 290.084ZM294.912 294.912L292.92 294.737C292.615 298.189 294.157 303.628 298.177 307.998C302.298 312.477 308.968 315.79 318.797 314.993L318.635 313L318.474 311.006C309.802 311.709 304.361 308.812 301.12 305.289C297.779 301.657 296.709 297.302 296.904 295.088L294.912 294.912ZM295.135 295L295.709 293.084L285.709 290.084L285.135 292L284.56 293.916L294.56 296.915L295.135 295Z" fill="#1F4A57"/>
<circle cx="355.635" cy="296.5" r="43.5" fill="#73DBF6"/>
<circle cx="350.635" cy="291.5" r="27.5" fill="white"/>
<path d="M368.634 222.5C363.135 227.5 351.534 250 359.134 258" stroke="#73DBF6" stroke-width="4"/>
<circle cx="372.635" cy="217.5" r="7.5" fill="#73DBF6"/>
<circle cx="424.635" cy="163.5" r="7.5" fill="#B7EDAB"/>
<circle cx="341.135" cy="281" r="8" fill="#73DBF6"/>
<circle cx="471.635" cy="224.5" r="43.5" fill="#B7EDAB"/>
<circle cx="465.635" cy="220.5" r="27.5" fill="white"/>
<circle cx="456.135" cy="226" r="8" fill="#B7EDAB"/>
<path d="M273.635 251L282.635 249C282.635 239.5 290.635 241.5 292.635 243.5C294.235 245.1 293.802 249.5 293.135 251.5L288.135 260.5V268.5L296.635 266.5V260C297.468 258.833 299.535 256 301.135 254C303.135 251.5 306.635 234 289.135 234C273.888 234 272.468 245.833 273.635 251Z" fill="#5C8E9C"/>
<ellipse cx="294.635" cy="276" rx="5.5" ry="5" fill="#5C8E9C"/>
<path d="M511.635 245.994C527.235 157.994 607.635 133 644.135 151L785.135 439.994L540.135 519.994C435.635 504.661 230.435 462.694 245.635 417.494C260.835 372.294 297.635 369.667 314.135 375C314.935 303.4 374.135 302.833 403.635 311.5C415.235 226.3 480.468 232.994 511.635 245.994Z" fill="#CCEBFC"/>
<path d="M429.635 163.5C436.968 163.5 452.435 167.9 455.635 185.5" stroke="#B7EDAB" stroke-width="4" stroke-linecap="round"/>
<path d="M433.135 249.5L440.135 256.5" stroke="#91B4A5" stroke-width="4" stroke-linecap="round"/>
<path d="M432.319 250C431.109 252.095 429.777 257.229 434.135 261" stroke="#91B4A5" stroke-width="4" stroke-linecap="round"/>
<path d="M432.318 250C431.107 252.095 422.777 259.229 427.135 263" stroke="#91B4A5" stroke-width="4" stroke-linecap="round"/>
<path d="M396.614 307.832C393.265 307.426 387.045 306.174 388.979 314.52" stroke="#1F4A57" stroke-width="4" stroke-linecap="round"/>
</svg>