<svg width="917" height="420" viewBox="0 0 917 420" fill="none" xmlns="http://www.w3.org/2000/svg">
<path d="M748.746 412.807C170.611 459.766 133.829 305.601 159.842 256.5L71.8418 291.057L170.112 507C546.042 504.161 1236.05 373.226 748.746 412.807Z" fill="#349AD1"/>
<path d="M51.6174 199.236C87.5002 132.197 142.202 128.35 163.261 133.204L182.095 149.919C184.155 170.811 178.737 208.373 140.589 191.489C102.441 174.606 65.3797 189.619 51.6174 199.236Z" fill="#349AD1"/>
<path d="M195.676 327.087C257.978 283.496 255.3 228.725 247.979 208.391L229.145 191.676C208.157 192.112 171.504 201.953 192.799 237.826C214.095 273.698 203.59 312.28 195.676 327.087Z" fill="#349AD1"/>
<path d="M144.701 196.978C148.275 107.251 204.176 65.9011 231.679 56.4423L257.068 70.9136L311.422 116.845C297.13 197.415 230.8 231.471 199.421 238.427C168.498 229.891 150.057 207.238 144.701 196.978Z" fill="#349AD1"/>
<path d="M189.593 177.328C209.32 163.934 204.413 177.259 200.171 186.716C177.258 222.095 135.493 257.687 116.959 270.602C125.027 241.971 168.743 196.49 189.593 177.328Z" fill="#349AD1"/>
<ellipse cx="224.866" cy="120.524" rx="27.7031" ry="28.0179" transform="rotate(43.2169 224.866 120.524)" fill="white"/>
<circle cx="224.866" cy="120.524" r="21.7218" transform="rotate(43.2169 224.866 120.524)" fill="white"/>
<path d="M2.34173 310C17.1418 239.201 114.842 194.167 161.842 180.5C237.842 104.5 349.342 5.50045 187.342 217.5C25.3418 429.5 337.508 447.5 513.842 430L77.8417 613.5C46.5084 541.834 -12.4583 380.8 2.34173 310Z" fill="white"/>
<path d="M34.0384 310.328C47.9213 239.489 139.567 194.43 183.655 180.755C254.945 104.712 365.451 23.8177 183.655 211C-25.1582 426 288.098 447.329 513.842 430.396L104.86 614C75.4681 542.293 20.1555 381.168 34.0384 310.328Z" fill="#F2F8FB"/>
<path d="M52.9127 185.042C87.3843 124.817 137.385 122.726 156.47 127.7L173.218 143.436C174.555 162.548 168.639 196.673 134.277 180.282C99.9145 163.891 65.7164 176.626 52.9127 185.042Z" fill="#E79595"/>
<path d="M181.013 305.408C238.978 267.257 237.955 217.224 231.804 198.485L215.056 182.748C195.898 182.602 162.207 190.629 180.703 223.906C199.2 257.182 188.617 292.106 181.013 305.408Z" fill="#E79595"/>
<path d="M135.153 179.809C147.06 98.7281 201.783 66.6022 227.655 60.6744L249.298 76.2586L294.188 123.189C273.437 194.925 209.955 219.424 180.808 222.707C153.57 211.974 139.022 189.637 135.153 179.809Z" fill="#E2E2E2"/>
<path d="M179.348 168.635C197.691 156.928 192.869 168.956 188.754 177.473C166.935 209.153 127.913 240.538 110.671 251.839C118.772 225.931 159.831 185.574 179.348 168.635Z" fill="#E79595"/>
<path d="M227.655 60.6744C246.223 50.4752 286.159 46.5298 303.805 45.832C307.261 76.7257 298.833 110.276 294.187 123.189C256.271 101.386 234.034 72.428 227.655 60.6744Z" fill="#E79595"/>
<ellipse cx="229.866" cy="124.524" rx="27.7031" ry="28.0179" transform="rotate(43.2169 229.866 124.524)" fill="#E79595"/>
<circle cx="229.866" cy="124.524" r="21.7218" transform="rotate(43.2169 229.866 124.524)" fill="white"/>
<ellipse cx="331.34" cy="365.538" rx="6.18283" ry="7.27166" transform="rotate(19.3288 331.34 365.538)" fill="#349AD1"/>
<ellipse cx="337.071" cy="364.451" rx="3" ry="6.5" transform="rotate(19.3288 337.071 364.451)" fill="#96BDCF"/>
<path d="M335.448 356.993L339.131 358.285L334.828 370.552L331.145 369.26L335.448 356.993Z" fill="#96BDCF"/>
<ellipse cx="333.297" cy="363.127" rx="3" ry="6.5" transform="rotate(19.3288 333.297 363.127)" fill="#86ACBC"/>
<path d="M261.722 301.986C280.81 287.806 290.166 296.79 292.458 303.055C281.801 297.635 275.152 305.46 273.159 310.05L275.037 312.911L285.516 334.075L283.469 340.316L278.614 336.038L270.644 314.538L270.96 312.939L270.334 311.985L266.414 311.214L264.221 309.951L263.279 310.596L262.805 312.994L256.996 317.664L251.052 306.528L258.113 303.766L260.307 305.028L261.248 304.383L261.722 301.986Z" fill="#349AD1"/>
<path d="M278.196 336.514L284.803 333.81C284.803 333.81 290.259 335.958 291.681 337.149C293.103 338.34 305.335 369.424 305.335 369.424C301.251 378.021 294.03 377.561 290.931 376.257C286.867 367.037 278.493 348.199 277.509 346.599C276.524 344.999 277.557 339.209 278.196 336.514Z" fill="#349AD1"/>
<path d="M264.769 299.944C282.419 286.936 291.095 295.212 293.227 300.976C283.352 295.975 277.209 303.16 275.371 307.377L277.115 310.011L286.85 329.488L284.965 335.223L280.463 331.281L273.05 311.499L273.34 310.03L272.759 309.152L269.128 308.436L267.095 307.272L266.224 307.863L265.79 310.068L260.419 314.352L254.898 304.103L261.43 301.575L263.464 302.739L264.335 302.147L264.769 299.944Z" fill="#86ACBC"/>
<path d="M280.395 331.577L286.431 329.058C286.431 329.058 291.404 331.027 292.698 332.124C293.992 333.221 305.06 361.915 305.06 361.915C301.308 369.873 294.721 369.47 291.897 368.273C288.216 359.764 280.631 342.376 279.738 340.901C278.844 339.425 279.803 334.07 280.395 331.577Z" fill="#F9B478"/>
<line x1="282.727" y1="338.416" x2="292.906" y2="362.496" stroke="#EE9D6C" stroke-width="2" stroke-linecap="round"/>
<line x1="287.843" y1="336.517" x2="298.022" y2="360.597" stroke="#EE9D6C" stroke-width="2" stroke-linecap="round"/>
<path d="M348.597 289.715C343.707 284.191 349.287 280.266 352.689 278.995C335.834 276.868 338.092 288.264 341.327 294.227L322.73 317.096C306.462 315.109 308.005 325.815 310.81 331.417C312.183 323.013 317.929 324.271 320.63 325.951C327.114 329.983 321.349 335.994 317.656 338.496C331.016 342.287 331.403 329.545 329.926 322.7L349.607 298.528C364.114 300.098 362.27 290.879 359.535 286.074C357.926 289.589 353.487 295.239 348.597 289.715Z" fill="#349AD1"/>
<path d="M354.897 289.153C350.007 283.629 355.587 279.704 358.989 278.432C342.134 276.306 344.391 287.701 347.627 293.664L329.03 316.534C312.762 314.547 314.305 325.253 317.11 330.854C318.483 322.45 324.229 323.709 326.93 325.389C333.414 329.42 327.649 335.432 323.956 337.933C337.316 341.725 337.703 328.982 336.226 322.137L355.907 297.966C370.414 299.535 368.57 290.317 365.835 285.511C364.226 289.027 359.786 294.677 354.897 289.153Z" fill="#86ACBC"/>
</svg>