<svg width="921" height="420" viewBox="0 0 921 420" fill="none" xmlns="http://www.w3.org/2000/svg">
<path d="M752.905 412.807C174.77 459.766 137.987 305.601 164 256.5L76.0001 291.057L174.27 507C550.2 504.161 1240.21 373.226 752.905 412.807Z" fill="#349AD1"/>
<path d="M55.7753 199.236C91.658 132.197 146.359 128.35 167.419 133.204L186.253 149.919C188.313 170.811 182.895 208.373 144.747 191.489C106.599 174.606 69.5375 189.619 55.7753 199.236Z" fill="#349AD1"/>
<path d="M199.834 327.087C262.136 283.496 259.458 228.725 252.137 208.391L233.303 191.676C212.315 192.112 175.662 201.953 196.957 237.826C218.253 273.698 207.748 312.28 199.834 327.087Z" fill="#349AD1"/>
<path d="M193.955 233.65C268.583 219.076 288.351 167.926 289.907 146.371L279.471 123.453C260.11 115.339 222.616 109.467 227.531 150.894C232.446 192.321 207.195 223.326 193.955 233.65Z" fill="#349AD1"/>
<path d="M193.751 177.328C213.478 163.934 208.571 177.259 204.329 186.716C181.416 222.095 139.651 257.687 121.117 270.602C129.185 241.971 172.901 196.49 193.751 177.328Z" fill="#349AD1"/>
<ellipse cx="229.025" cy="120.524" rx="27.7031" ry="28.0179" transform="rotate(43.2169 229.025 120.524)" fill="white"/>
<circle cx="229.024" cy="120.524" r="21.7218" transform="rotate(43.2169 229.024 120.524)" fill="white"/>
<path d="M6.50007 310C21.3001 239.201 119 194.167 166 180.5C242 104.5 353.5 5.50045 191.5 217.5C29.5001 429.5 341.667 447.5 518 430L82.0001 613.5C50.6667 541.834 -8.29996 380.8 6.50007 310Z" fill="white"/>
<path d="M38.1968 310.328C52.0797 239.489 143.725 194.43 187.813 180.755C259.103 104.712 369.609 23.8177 187.813 211C-20.9999 426 292.257 447.329 518 430.396L109.018 614C79.6265 542.293 24.3139 381.168 38.1968 310.328Z" fill="#F2F8FB"/>
<path d="M57.0711 185.042C91.5426 124.817 141.543 122.726 160.628 127.7L177.376 143.436C178.713 162.548 172.797 196.673 138.435 180.282C104.073 163.891 69.8748 176.626 57.0711 185.042Z" fill="#E79595"/>
<path d="M185.172 305.408C243.137 267.257 242.113 217.224 235.962 198.485L219.215 182.748C200.057 182.602 166.366 190.629 184.862 223.906C203.359 257.182 192.776 292.106 185.172 305.408Z" fill="#E79595"/>
<path d="M139.311 179.809C151.219 98.7281 205.941 66.6022 231.814 60.6744L253.456 76.2586L298.346 123.189C277.595 194.925 214.113 219.424 184.966 222.707C157.729 211.974 143.181 189.637 139.311 179.809Z" fill="#E2E2E2"/>
<path d="M183.506 168.635C201.849 156.928 197.027 168.956 192.913 177.473C171.093 209.153 132.071 240.538 114.829 251.839C122.931 225.931 163.99 185.574 183.506 168.635Z" fill="#E79595"/>
<path d="M231.813 60.6744C250.382 50.4752 290.317 46.5298 307.964 45.832C311.42 76.7257 302.992 110.276 298.345 123.189C260.429 101.386 238.192 72.428 231.813 60.6744Z" fill="#E79595"/>
<ellipse cx="234.025" cy="124.524" rx="27.7031" ry="28.0179" transform="rotate(43.2169 234.025 124.524)" fill="#E79595"/>
<circle cx="234.024" cy="124.524" r="21.7218" transform="rotate(43.2169 234.024 124.524)" fill="white"/>
<ellipse cx="335.498" cy="365.538" rx="6.18283" ry="7.27166" transform="rotate(19.3288 335.498 365.538)" fill="#349AD1"/>
<ellipse cx="341.229" cy="364.451" rx="3" ry="6.5" transform="rotate(19.3288 341.229 364.451)" fill="#96BDCF"/>
<path d="M339.607 356.993L343.29 358.285L338.987 370.552L335.304 369.26L339.607 356.993Z" fill="#96BDCF"/>
<ellipse cx="337.455" cy="363.127" rx="3" ry="6.5" transform="rotate(19.3288 337.455 363.127)" fill="#86ACBC"/>
<path d="M265.88 301.986C284.969 287.806 294.324 296.79 296.616 303.055C285.959 297.635 279.31 305.46 277.318 310.05L279.196 312.911L289.675 334.075L287.628 340.316L282.772 336.038L274.802 314.538L275.118 312.939L274.492 311.985L270.573 311.214L268.379 309.951L267.437 310.596L266.963 312.994L261.155 317.664L255.21 306.528L262.271 303.766L264.465 305.028L265.407 304.383L265.88 301.986Z" fill="#349AD1"/>
<path d="M282.354 336.514L288.961 333.81C288.961 333.81 294.417 335.958 295.839 337.149C297.262 338.34 309.493 369.424 309.493 369.424C305.409 378.021 298.189 377.561 295.089 376.257C291.025 367.037 282.651 348.199 281.667 346.599C280.683 344.999 281.715 339.209 282.354 336.514Z" fill="#349AD1"/>
<path d="M268.927 299.944C286.578 286.936 295.254 295.212 297.386 300.976C287.51 295.975 281.367 303.16 279.53 307.377L281.273 310.011L291.009 329.488L289.123 335.223L284.621 331.281L277.208 311.499L277.498 310.03L276.917 309.152L273.287 308.436L271.254 307.272L270.383 307.863L269.948 310.068L264.578 314.352L259.056 304.103L265.589 301.575L267.622 302.739L268.493 302.147L268.927 299.944Z" fill="#86ACBC"/>
<path d="M284.553 331.577L290.589 329.058C290.589 329.058 295.562 331.027 296.856 332.124C298.15 333.221 309.219 361.915 309.219 361.915C305.467 369.873 298.88 369.47 296.055 368.273C292.374 359.764 284.789 342.376 283.896 340.901C283.003 339.425 283.962 334.07 284.553 331.577Z" fill="#F9B478"/>
<line x1="286.886" y1="338.416" x2="297.065" y2="362.496" stroke="#EE9D6C" stroke-width="2" stroke-linecap="round"/>
<line x1="292.001" y1="336.517" x2="302.18" y2="360.597" stroke="#EE9D6C" stroke-width="2" stroke-linecap="round"/>
<path d="M352.755 289.715C347.865 284.191 353.446 280.266 356.847 278.995C339.992 276.868 342.25 288.264 345.486 294.227L326.889 317.096C310.621 315.109 312.163 325.815 314.968 331.417C316.341 323.013 322.087 324.271 324.789 325.951C331.273 329.983 325.507 335.994 321.814 338.496C335.175 342.287 335.561 329.545 334.084 322.7L353.765 298.528C368.272 300.098 366.429 290.879 363.693 286.074C362.085 289.589 357.645 295.239 352.755 289.715Z" fill="#349AD1"/>
<path d="M359.055 289.153C354.165 283.629 359.746 279.704 363.147 278.432C346.292 276.306 348.55 287.701 351.785 293.664L333.188 316.534C316.92 314.547 318.463 325.253 321.268 330.854C322.641 322.45 328.387 323.709 331.089 325.389C337.572 329.42 331.807 335.432 328.114 337.933C341.474 341.725 341.861 328.982 340.384 322.137L360.065 297.966C374.572 299.535 372.728 290.317 369.993 285.511C368.384 289.027 363.945 294.677 359.055 289.153Z" fill="#86ACBC"/>
</svg>