<svg width="687" height="532" viewBox="0 0 687 532" fill="none" xmlns="http://www.w3.org/2000/svg">
<path d="M640.318 275.99C692.669 274.752 660.189 322.763 658.492 328.401C376.753 301.024 235.711 314.642 59.6388 328.401C55.2763 323.45 24.2574 286.717 40.835 266.913C44.1136 262.997 47.9746 260.547 51.9933 259.161C29.9065 235.584 46.0629 171.196 94.6397 171.196C121.945 171.196 131.153 186.405 133.474 198.986C143.229 180.249 179.028 177.053 193.524 185.636C206.902 193.557 206.854 216.441 205.157 226.893L216.427 219.055L334.578 181.923C333.851 175.322 337.486 160.551 357.845 154.28C367.444 151.323 375.388 153.885 380.896 157.712C378.78 133.57 398.426 79.3664 456.729 92.394C509.083 104.092 509.823 146.113 505.768 163.777C513.566 157.367 530.908 153.172 544.707 171.196C560.121 191.329 556.462 208.465 552.705 214.516C554.523 221.667 558.449 231.679 559.612 214.516C561.067 193.062 602.146 189.762 620.323 219.055C638.501 248.347 610.508 268.151 613.78 266.913C617.052 265.675 587.968 277.227 640.318 275.99Z" fill="#F0FCFF"/>
<ellipse cx="480.89" cy="287.751" rx="74" ry="72.5" transform="rotate(-4.2215 480.89 287.751)" fill="#E8F7E9"/>
<circle cx="481.924" cy="288.176" r="50" transform="rotate(-4.2215 481.924 288.176)" fill="#F0FCFF"/>
<path d="M483.471 214.043L493.989 196.038L511.571 200.781L513.115 221.7L498.712 222.092L483.471 214.043Z" fill="#E8F7E9"/>
<path d="M526.043 228.842L545.803 220.857L557.742 235.659L546.379 253.522L534.009 244.853L526.043 228.842Z" fill="#E8F7E9"/>
<path d="M440.038 227.183L438.017 205.967L455.608 198.743L469.491 214.726L457.655 224.112L440.038 227.183Z" fill="#E8F7E9"/>
<path d="M411.652 262.77L398.078 246.339L408.588 230.491L429.047 235.936L424.514 250.344L411.652 262.77Z" fill="#E8F7E9"/>
<path d="M411.087 308.368L390.268 303.808L388.766 284.851L408.228 276.517L413.547 290.655L411.087 308.368Z" fill="#E8F7E9"/>
<path d="M437.707 346.241L418.248 354.933L405.783 340.571L416.495 322.31L429.169 330.528L437.707 346.241Z" fill="#E8F7E9"/>
<path d="M479.306 361.386L468.382 379.421L450.209 374.721L448.665 353.802L463.563 353.374L479.306 361.386Z" fill="#E8F7E9"/>
<path d="M523.156 348.266L525.176 369.482L507.586 376.706L493.702 360.723L505.538 351.338L523.156 348.266Z" fill="#E8F7E9"/>
<path d="M551.544 312.679L565.117 329.11L554.607 344.958L534.148 339.513L538.682 325.105L551.544 312.679Z" fill="#E8F7E9"/>
<path d="M552.108 267.081L572.926 271.641L574.428 290.598L554.967 298.932L549.648 284.794L552.108 267.081Z" fill="#E8F7E9"/>
<path d="M490.596 241.957C494.705 242.715 498.639 244.004 502.316 245.758L500.902 248.294L503.522 249.756C508.55 252.561 512.979 256.323 516.542 260.809L518.407 263.159L520.679 261.355C523.006 264.71 524.9 268.39 526.282 272.325L523.491 273.104L524.298 275.994C525.053 278.701 525.553 281.524 525.768 284.439C525.956 286.988 525.918 289.501 525.672 291.958L525.553 293.008L525.18 295.985L528.055 296.345C527.266 300.439 525.932 304.358 524.123 308.018L521.611 306.568L520.111 309.166C517.425 313.817 513.892 317.95 509.702 321.343L508.855 322.012L506.478 323.842L508.249 326.142C504.87 328.417 501.168 330.27 497.215 331.623L496.453 328.823L493.559 329.612C490.841 330.352 488.011 330.844 485.089 331.059C482.168 331.275 479.296 331.204 476.499 330.871L473.521 330.516L473.177 333.397C469.069 332.639 465.134 331.35 461.458 329.596L462.872 327.061L460.253 325.6L459.317 325.062C454.674 322.321 450.572 318.752 447.233 314.546L445.367 312.196L443.095 313.999C440.768 310.644 438.873 306.964 437.492 303.029L440.284 302.251L439.477 299.361C438.722 296.654 438.222 293.831 438.007 290.916C437.818 288.367 437.856 285.854 438.103 283.397L438.221 282.347L438.595 279.37L435.719 279.01C436.507 274.915 437.841 270.996 439.65 267.336L442.163 268.787L443.664 266.189C446.349 261.538 449.883 257.405 454.073 254.012L454.919 253.343L457.296 251.513L455.524 249.212C458.904 246.937 462.606 245.084 466.559 243.732L467.322 246.532L470.216 245.743C472.933 245.003 475.764 244.511 478.685 244.296C481.606 244.08 484.479 244.151 487.275 244.484L490.254 244.839L490.596 241.957Z" stroke="#E8F7E9" stroke-width="6" stroke-linecap="square" stroke-dasharray="16 16"/>
<ellipse cx="50.7667" cy="112.555" rx="34.312" ry="33.6164" transform="rotate(-4.2215 50.7667 112.555)" fill="#F0FCFF"/>
<circle cx="51.2454" cy="112.752" r="23.1838" transform="rotate(-4.2215 51.2454 112.752)" fill="white"/>
<path d="M51.9634 78.378L56.8403 70.0296L64.9927 72.229L65.7086 81.9283L59.0304 82.11L51.9634 78.378Z" fill="#F0FCFF"/>
<path d="M71.7037 85.2396L80.8659 81.5374L86.4018 88.4005L81.1331 96.6833L75.3976 92.6637L71.7037 85.2396Z" fill="#F0FCFF"/>
<path d="M31.8239 84.4709L30.8871 74.6336L39.0434 71.2837L45.4807 78.6948L39.9929 83.0466L31.8239 84.4709Z" fill="#F0FCFF"/>
<path d="M18.6623 100.972L12.3687 93.3531L17.2419 86.0047L26.7283 88.5291L24.6262 95.2101L18.6623 100.972Z" fill="#F0FCFF"/>
<path d="M18.4017 122.114L8.74881 119.999L8.05214 111.21L17.0761 107.345L19.5424 113.901L18.4017 122.114Z" fill="#F0FCFF"/>
<path d="M30.7443 139.675L21.7215 143.705L15.942 137.046L20.9087 128.579L26.7854 132.389L30.7443 139.675Z" fill="#F0FCFF"/>
<path d="M50.0317 146.697L44.9664 155.059L36.54 152.88L35.8241 143.181L42.7318 142.982L50.0317 146.697Z" fill="#F0FCFF"/>
<path d="M70.3646 140.614L71.3014 150.451L63.1451 153.801L56.7077 146.39L62.1956 142.038L70.3646 140.614Z" fill="#F0FCFF"/>
<path d="M83.5281 124.113L89.8218 131.731L84.9485 139.08L75.4622 136.555L77.5642 129.874L83.5281 124.113Z" fill="#F0FCFF"/>
<path d="M83.7877 102.97L93.4406 105.085L94.1373 113.875L85.1134 117.739L82.6471 111.184L83.7877 102.97Z" fill="#F0FCFF"/>
<path d="M60.831 93.1465C64.1546 94.7591 67.0166 97.1906 69.1312 100.195L66.6505 101.464L68.0159 104.136C69.0978 106.252 69.7849 108.614 69.9712 111.137C70.1574 113.66 69.8244 116.096 69.065 118.349L68.1067 121.192L70.7467 122.082C69.0963 125.365 66.6223 128.19 63.5714 130.273L62.3304 127.774L59.6431 129.109C57.5103 130.168 55.134 130.844 52.5955 131.031C50.0568 131.219 47.6066 130.9 45.3411 130.164L42.4879 129.238L41.6253 131.893C38.3019 130.28 35.4395 127.849 33.3251 124.844L35.8068 123.576L34.4415 120.905C33.3596 118.788 32.6734 116.427 32.4872 113.903C32.301 111.38 32.6329 108.944 33.3923 106.691L34.3507 103.848L31.7106 102.958C33.361 99.6757 35.8343 96.8497 38.8849 94.7664L40.128 97.2666L42.8144 95.9324C44.9473 94.8726 47.3242 94.1973 49.8629 94.0099C52.4014 93.8226 54.851 94.1417 57.1163 94.8768L59.9705 95.802L60.831 93.1465Z" stroke="#F0FCFF" stroke-width="6" stroke-linecap="square" stroke-dasharray="16 16"/>
<path d="M656.495 246.53C694.268 260.839 659.001 284.514 641.218 303.61C720.62 306.683 678.174 361.581 651.51 396.067L651.495 396.086L539.959 412.401C460.746 399.259 301.865 366.991 300.044 343.062C298.419 321.708 342.594 326.676 372.071 333.36C371.327 332.308 370.536 331.162 369.697 329.919C355.778 309.304 373.212 312.026 385.721 316.65C384.622 295.723 428.506 276.246 459.353 271.003C478.641 267.725 482.394 279.709 482.593 291.619C484.164 292.286 485.805 293.356 487.364 294.591C492.664 276.576 509.417 253.881 529.013 246.53C547.95 239.426 554.386 248.348 557.383 257.701C575.78 245.125 619.641 232.569 656.495 246.53Z" fill="#E8F7E9"/>
<path d="M371.221 278.719C335.734 289.238 328.642 317.104 338.871 332.743C263.181 334.646 303.14 375.085 328.198 400.445L328.212 400.459L432.542 412.401C506.638 402.781 655.256 379.163 656.959 361.648C658.479 346.018 617.157 349.655 589.584 354.548C590.281 353.777 591.02 352.939 591.806 352.029C604.336 337.507 589.701 338.806 578.153 341.942C580.603 328.979 549.689 320.278 521.543 316.535C505.41 314.389 496.36 318.63 491.619 324.173C489.658 322.832 486.69 323.549 483.766 325.027C480.45 312.04 467.805 296.218 450.001 290.992C438.268 287.548 429.866 289.251 424.128 292.782C418.664 281.083 402.16 269.548 371.221 278.719Z" fill="#D5EFDD"/>
<ellipse cx="385.377" cy="379.234" rx="272.625" ry="32.4191" transform="rotate(3.8705 385.377 379.234)" fill="#FFF9F2"/>
<path d="M150.409 113.655C139.947 116.517 140.153 127.249 141.608 132.486C140.452 130.12 136.138 128.412 125.954 134.082C106.39 144.977 123.392 146.793 134.339 146.339C149.594 146.188 180.803 145.794 183.598 145.431C187.091 144.977 191.633 142.253 187.091 133.628C184.231 128.196 178.152 129.16 173.763 131.071C174.181 129.219 174.406 126.766 174.165 123.642C173.467 114.563 163.685 110.023 150.409 113.655Z" fill="#F0FCFF"/>
<path d="M603.935 405.247C574.46 376.583 389.697 351.88 301 343.112L395.155 339.03L534.797 335.401L653.06 386.652C654.424 384.687 660.337 384.838 673.073 401.165C685.809 417.493 632.288 410.69 603.935 405.247Z" fill="#E8F7E9"/>
<path d="M16.4536 380.303C22.2561 376.594 101.727 331.083 239.02 340.744C708.425 373.775 763.198 471.659 595.719 515.22C428.241 558.781 160.426 501.128 138.016 496.3C113.148 490.943 35.5191 466.839 8.16459 447.471C-19.1899 428.104 30.5455 414.917 35.5191 412.445C40.4926 409.972 36.7623 407.5 19.7693 400.907C2.7764 394.314 10.6512 384.012 16.4536 380.303Z" fill="#FFF9F2"/>
<path d="M179.483 401.61L154.393 404.339L98.7372 375.918L96 374.775L249.737 358.401L320.903 384.327L297.637 386.601L357.855 409.797L421.722 402.065L505.205 433.903L464.604 441.635L549 474.837L381.577 504.401L299.462 464.831L254.299 471.654L180.852 432.084L227.84 425.261L179.483 401.61Z" fill="white"/>
<path d="M531 473.512L453.567 442.401L316 463.972L387.255 498.401L531 473.512Z" fill="#89DCF4"/>
<path d="M360 449.344L297.276 420.401L197 433.219L256.01 463.401L360 449.344Z" fill="#FF9B95"/>
<path d="M487 430.768L418.856 405.401L309 419.124L374.666 447.401L487 430.768Z" fill="#FF9B95"/>
<path d="M349 409.682L289.662 386.401L188 398.042L238.624 423.401L349 409.682Z" fill="#FEDF99"/>
<path d="M300 380.356L245.63 360.401L113 375.368L155.013 397.401L300 380.356Z" fill="#B3D7BA"/>
<path d="M351.664 265.327C352.957 279.568 368.393 323.16 389.464 391.229" stroke="black" stroke-width="10" stroke-linecap="round"/>
<path d="M216 275.401C208.984 316.55 180.162 380.37 121 306.462" stroke="black" stroke-width="10" stroke-linecap="round"/>
<path d="M361 135.035C377.964 160.158 413.114 183.802 418 77.4013" stroke="black" stroke-width="10"/>
<path d="M218.509 58.343L228.987 56.2356L257.779 87.0291L233.042 125.048L224.582 124.096L218.509 58.343Z" fill="#67C7E7"/>
<path d="M317.7 45.8735L228.824 56.2572L233.248 124.797L324.455 115.081L317.7 45.8735Z" fill="#85DCF4"/>
<path d="M230.748 100.419C268.574 108.043 302.171 107.367 323.596 95.4488" stroke="#E4F6FE" stroke-width="4"/>
<path d="M241.972 6.17087C253.039 17.9787 260.389 28.5177 265.651 52.8593L261.559 53.4099C258.425 31.8749 252.883 20.4677 241.492 6.54061L241.972 6.17087Z" fill="#85DCF4"/>
<g clip-path="url(#clip0_312_1108)">
<ellipse cx="13.2299" cy="13.9608" rx="13.2299" ry="13.9608" transform="matrix(-0.991062 0.133399 0.133399 0.991062 256.477 -1.38721)" fill="#85DCF4"/>
<path d="M230.953 11.0797L238.985 2.18029C237.437 12.7326 246.263 17.6498 249.816 18.1109L250.586 19.3281C249.072 21.5612 243.241 26.179 243.241 26.179L234.485 18.7948L230.953 11.0797Z" fill="#67C7E7"/>
</g>
<path d="M189.219 139.338L201.337 136.329L241.042 176.121L208.655 281.074L198.145 280.077L189.219 139.338Z" fill="#67C7E7"/>
<path d="M364.815 123.011L199.51 136.575L208.399 280.995L369.144 268.045L364.815 123.011Z" fill="#85DCF4"/>
<path d="M308.264 56.8103L284.008 59.74L287.337 86.6086L311.395 84.888L308.264 56.8103Z" fill="white"/>
<path d="M246.264 65.1557L271.945 61.3637L275.856 88.154L250.709 93.0565L246.264 65.1557Z" fill="white"/>
<path d="M198 153.401C158.747 147.384 79.9917 121.16 79 64.4013" stroke="black" stroke-width="10"/>
<ellipse cx="42.7164" cy="42.335" rx="42.7164" ry="42.335" transform="matrix(-0.991062 0.133399 0.133399 0.991062 323.155 154.129)" fill="#A2EBFF"/>
<circle cx="30.8931" cy="30.8931" r="30.8931" transform="matrix(-0.991062 0.133399 0.133399 0.991062 312.484 166.341)" fill="#87DDF5"/>
<path d="M277.144 161.092L268.636 151.462L258.832 156.56L260.571 169.48L269.145 167.906L277.144 161.092Z" fill="#A2EBFF"/>
<path d="M254.475 173.938L242.405 171.784L237.438 181.532L245.951 190.241L251.888 183.895L254.475 173.938Z" fill="#A2EBFF"/>
<path d="M302.695 162.812L301.319 150.629L290.56 148.646L284.638 159.29L292.413 163.171L302.695 162.812Z" fill="#A2EBFF"/>
<path d="M322.892 179.482L328.586 168.623L320.791 160.947L309.919 166.437L314.179 174.011L322.892 179.482Z" fill="#A2EBFF"/>
<path d="M328.615 205.085L339.794 200.05L338.393 189.2L326.45 186.815L325.131 195.404L328.615 205.085Z" fill="#A2EBFF"/>
<path d="M318.118 229.56L330.102 232.147L335.417 222.584L327.223 213.574L321.062 219.702L318.118 229.56Z" fill="#A2EBFF"/>
<path d="M295.822 242.682L304.509 251.308L314.806 246.487L313.225 234.742L304.271 236.329L295.822 242.682Z" fill="#A2EBFF"/>
<path d="M270.253 240.825L271.63 253.008L282.388 254.991L288.31 244.348L280.535 240.467L270.253 240.825Z" fill="#A2EBFF"/>
<path d="M250.053 224.156L244.359 235.014L252.154 242.691L263.026 237.201L258.767 229.627L250.053 224.156Z" fill="#A2EBFF"/>
<path d="M244.332 198.553L233.153 203.588L234.554 214.438L246.498 216.823L247.816 208.234L244.332 198.553Z" fill="#A2EBFF"/>
<line x1="120.935" y1="306.672" x2="118.316" y2="332.212" stroke="black" stroke-width="10" stroke-linecap="round"/>
<line x1="390.417" y1="391.142" x2="417.53" y2="380.297" stroke="black" stroke-width="10" stroke-linecap="round"/>
<path d="M210.027 373.129L205.989 370.401L184 373.129L198.36 380.856C199.706 380.401 202.758 379.401 204.194 379.038C205.989 378.583 212.72 376.31 219.002 379.038C224.028 381.22 211.822 382.22 205.989 382.22C204.343 382.977 201.322 384.492 202.399 384.492C203.745 384.492 214.066 385.401 217.207 385.401C220.348 385.401 230.221 383.583 228.875 379.492C227.528 375.401 214.515 374.947 210.027 374.947C206.437 374.947 201.95 376.159 200.155 376.765L196.565 374.947L210.027 373.129Z" fill="white"/>
<path d="M256.483 398.276L263.207 397.401L278 403.964L283.379 403.089L287.862 405.714L283.828 406.589L291 410.526L283.379 411.401L275.759 407.901L256.034 410.526L252 408.339L256.483 398.276Z" fill="white"/>
<path d="M376.703 423.864H384.974C383.136 422.58 381.482 420.108 389.569 420.493C397.656 420.879 395.083 423.543 392.786 424.826L396.462 428.196C397.381 427.554 400.689 426.367 406.571 426.752C413.923 427.234 416.68 428.678 413.463 429.641C411.464 430.239 403.048 430.764 399.219 430.122L393.705 433.011C394.624 437.825 432.762 434.936 423.572 428.196C416.22 422.804 407.336 423.061 403.814 423.864C404.886 423.061 406.019 420.879 401.976 418.568C396.921 415.679 379.001 415.679 375.325 418.568C372.384 420.879 375.018 423.061 376.703 423.864Z" fill="white"/>
<path d="M258.703 440.471H266.974C265.136 439.255 263.482 436.913 271.569 437.278C279.656 437.643 277.083 440.167 274.786 441.383L278.462 444.576C279.381 443.967 282.689 442.842 288.571 443.207C295.923 443.663 298.68 445.032 295.463 445.944C293.464 446.511 285.048 447.008 281.219 446.4L275.705 449.137C276.624 453.697 314.762 450.961 305.572 444.576C298.22 439.467 289.336 439.711 285.814 440.471C286.886 439.711 288.019 437.643 283.976 435.454C278.921 432.717 261.001 432.717 257.325 435.454C254.384 437.643 257.018 439.711 258.703 440.471Z" fill="white"/>
<path d="M401.333 460.052L408.889 457.401L448 474.634L437.778 476.401L407.556 463.146L404.444 465.797H396L401.333 460.052Z" fill="white"/>
<path d="M627.233 409.345C627.433 409.162 627.628 408.97 627.817 408.771C636.862 411.032 634.372 410.419 627.233 409.345Z" fill="#D5EFDD"/>
<path d="M627.233 409.345C627.433 409.162 627.628 408.97 627.817 408.771C633.494 402.789 634.368 389.688 622.715 381.268C612.478 373.873 604.899 377.286 601.374 381.946C603.042 384.145 603.482 386.884 603.375 388.734C602.81 390.502 601.24 393.075 599.49 389.224C598.708 387.505 599.416 384.533 601.374 381.946C599.712 379.754 596.83 378.099 592.055 378.395C584.81 378.844 578.102 384.587 575.204 390.052C575.931 390.848 576.581 391.869 577.034 392.735C578.341 396.275 579.819 402.451 575.28 398.827C573.044 397.042 573.318 393.606 575.204 390.052C574.315 389.079 573.312 388.442 572.415 388.835C573.173 391.02 572.988 393.272 572.521 394.814C571.292 395.533 569.25 395.771 570.904 390.97C571.329 389.736 571.851 389.082 572.415 388.835C571.381 385.848 568.587 382.987 562.356 382.234C551.485 380.919 538.953 381.532 538.185 387.598C538.628 387.9 539.052 388.209 539.445 388.509C541.928 393.676 545.489 401.802 539.861 392.974C538.497 390.833 538 389.058 538.185 387.598C534.327 384.967 529.094 382.83 531.845 390.666C532.018 391.157 532.183 391.611 532.34 392.03C533.492 392.648 534.567 393.252 535.533 393.819C535.556 395.051 535.417 396.374 534.934 396.482C553.611 399.395 577.456 402.537 593.398 407.643C603.458 406.109 618.681 408.058 627.233 409.345Z" fill="#D5EFDD"/>
<path d="M601.374 381.946C599.416 384.533 598.708 387.505 599.49 389.224C601.24 393.075 602.81 390.502 603.375 388.734C603.482 386.884 603.042 384.145 601.374 381.946Z" fill="#D5EFDD"/>
<path d="M575.204 390.052C573.318 393.606 573.044 397.042 575.28 398.827C579.819 402.451 578.341 396.275 577.034 392.735C576.581 391.869 575.931 390.848 575.204 390.052Z" fill="#D5EFDD"/>
<path d="M572.415 388.835C571.851 389.082 571.329 389.736 570.904 390.97C569.25 395.771 571.292 395.533 572.521 394.814C572.988 393.272 573.173 391.02 572.415 388.835Z" fill="#D5EFDD"/>
<path d="M538.185 387.598C538 389.058 538.497 390.833 539.861 392.974C545.489 401.802 541.928 393.676 539.445 388.509C539.052 388.209 538.628 387.9 538.185 387.598Z" fill="#D5EFDD"/>
<path d="M534.694 396.445C534.202 396.207 533.453 394.988 532.34 392.03C522.795 386.909 508.012 380.889 506.557 388.051C505.862 391.475 518.241 393.874 534.694 396.445Z" fill="#D5EFDD"/>
<path d="M532.34 392.03C533.453 394.988 534.202 396.207 534.694 396.445C534.774 396.457 534.854 396.47 534.934 396.482C535.417 396.374 535.556 395.051 535.533 393.819C534.567 393.252 533.492 392.648 532.34 392.03Z" fill="#D5EFDD"/>
<path d="M534.694 396.445C534.782 396.487 534.862 396.498 534.934 396.482C534.854 396.47 534.774 396.457 534.694 396.445Z" fill="#D5EFDD"/>
<path d="M593.352 407.65L593.419 407.65C593.412 407.648 593.405 407.646 593.398 407.643C593.382 407.646 593.367 407.648 593.352 407.65Z" fill="#D5EFDD"/>
<ellipse cx="68.5" cy="435.901" rx="25.5" ry="5.5" fill="#FAF1E7"/>
<ellipse cx="596" cy="440.901" rx="26" ry="5.5" fill="#FAF1E7"/>
<ellipse cx="198" cy="349.901" rx="16" ry="3.5" fill="#FAF1E7"/>
<ellipse cx="177.5" cy="354.901" rx="5.5" ry="1.5" fill="#FAF1E7"/>
<ellipse cx="631.5" cy="453.401" rx="16.5" ry="4" fill="#FAF1E7"/>
<ellipse cx="96" cy="451.401" rx="15" ry="3" fill="#FAF1E7"/>
<ellipse cx="112" cy="442.401" rx="9" ry="2" fill="#FAF1E7"/>
<path d="M260.444 401.385L263.333 401L272 404.846L259.481 406L259 405.615L260.444 401.385Z" fill="#FEDF99"/>
<defs>
<clipPath id="clip0_312_1108">
<rect width="20.8532" height="20.0809" rx="10.0404" transform="matrix(-0.991062 0.133399 0.133399 0.991062 253.08 0)" fill="white"/>
</clipPath>
</defs>
</svg>
