<svg width="690" height="450" viewBox="0 0 690 450" fill="none" xmlns="http://www.w3.org/2000/svg">
<rect width="690" height="450" fill="white"/>
<path d="M38.2475 238.516C29.4407 233.955 10.6003 215.775 30.2271 194.638C49.0907 174.323 71.063 186.666 78.0489 194.638C95.5474 147.835 134.922 169.16 152.422 185.673C141.099 163.027 167.834 139.122 182.617 130C193.186 89.991 228.854 91.6266 245.366 97.4455C239.705 94.6147 232.156 83.3857 247.254 61.1164C262.351 38.8471 291.603 36.7397 304.341 38.4696C329.629 40.7343 342.557 66.4635 345.859 79.045C366.241 60.5502 382.659 71.3389 388.321 79.045L392.973 98.2339C404.003 91.8426 426.926 86.1135 468.998 82.8195C575.058 74.5157 587.419 139.122 580.342 172.463C600.346 130.944 634.284 146.042 648.753 158.78C663.095 174.256 661.334 196.368 658.66 205.489C673.38 198.695 684.609 211.151 688.384 218.228C694.423 234.458 682.093 246.065 675.173 249.839C694.045 245.687 688.698 263.679 688.384 271.071C438.331 194.166 79.2926 323.913 23.6206 284.281C-32.0513 244.649 26.61 235.685 38.2475 238.516Z" fill="#F0FCFF"/>
<path d="M270 244.865L268.14 232.459L255.116 232L250 240.27L262.093 249L270 244.865Z" fill="#91A6B0"/>
<path d="M104.848 324.146C112.395 319.988 125.602 318.633 131.262 318.476C691.612 220.187 726.359 320.523 654.35 340.685C658.123 342.103 665.104 346.545 662.84 352.971C660.576 359.398 644.917 365.73 637.37 368.093C648.533 370.613 665.765 379.623 645.388 395.5C625.012 411.378 585.014 418.497 567.562 420.072C573.694 415.347 565.832 408.889 563.317 409.204C561.053 410.716 562.688 417.237 563.317 418.655C559.543 417.71 556.242 418.182 554.827 419.127C554.449 422.908 558.757 423.38 561.43 422.908C481.245 466.381 292.103 446.535 198.24 438.029C123.149 431.224 118.213 417.867 125.13 412.039C4.00429 396.918 30.6382 374.551 59.096 365.257C23.2487 349.38 58.6244 334.385 80.7931 328.872C77.0197 329.628 76.7052 326.351 77.0197 324.619C82.852 322.671 87.4785 323.604 89.7646 324.604C84.5746 321.599 87.197 317.432 89.2829 315.641C95.3475 317.276 98.3602 319.478 99.7024 321.33C99.8561 318.983 102.294 317.278 103.905 316.586C108.056 319.232 106.263 322.729 104.848 324.146Z" fill="#FDF5E8"/>
<path d="M126.787 373.138C108.68 371.242 122.701 366.976 131.974 365.081C159.637 354.811 415.947 310.5 438.942 306.783C573.8 284.98 621.897 322.423 630.384 325.741C638.872 329.059 630.856 341.382 622.368 342.33C610.58 343.647 558.868 371.716 537.964 386.409C512.03 391.623 460.633 382.143 455.917 382.143C452.145 382.143 450.259 384.039 449.787 384.987C458.086 389.537 456.389 391.939 454.503 392.571C444.129 398.258 422.91 409.823 421.024 410.581C419.138 411.34 414.894 410.897 413.008 410.581C325.145 398.89 144.894 375.034 126.787 373.138Z" fill="#ECDBC1" fill-opacity="0.64"/>
<path d="M332 271.846L342 270L340.571 276H332.952L332 271.846Z" fill="#5D7784"/>
<path d="M524.132 328.886C515.122 342.937 504.396 375.463 524.132 378.862C541.911 381.923 591.169 333.448 615 305" stroke="black" stroke-width="11" stroke-linecap="round"/>
<path d="M375.328 188.555C492.629 167.358 187.528 119.656 264.129 186.353" stroke="black" stroke-width="11" stroke-linecap="round"/>
<path d="M555.5 174.5L517.985 186.361L475 242.466L532 341L561.5 324.5L555.5 174.5Z" fill="#67C7E7"/>
<path d="M409.5 157.5L352 159.949L457.5 208L556.5 174L409.5 157.5Z" fill="#78D3F2"/>
<path d="M369.132 328.886C360.122 342.937 349.396 375.463 369.132 378.862C386.911 381.923 436.169 333.448 460 305" stroke="black" stroke-width="11" stroke-linecap="round"/>
<path d="M460.3 304.283L471.563 332.018" stroke="black" stroke-width="10" stroke-linecap="round"/>
<path d="M533 341L363.719 310.606L352.651 159.9L521.932 185.228L533 341Z" fill="#85DCF4"/>
<path d="M504.5 72L483.765 77.8L462 111.15L482.753 159L501 151.5L504.5 72Z" fill="#67C7E7"/>
<path d="M405.5 58L382 63.8454L390.345 106L505 72L405.5 58Z" fill="#78D3F2"/>
<ellipse cx="434.5" cy="9.5" rx="10.5" ry="9.5" fill="#85DCF4"/>
<path d="M433.904 4.73085C441.989 23.2877 446.509 37.3067 441.05 67.1736L435.328 68.8241C442.075 43.1274 440.556 26.0101 433.115 4.917L433.904 4.73085Z" fill="#85DCF4"/>
<ellipse cx="40.3473" cy="41.3578" rx="40.3473" ry="41.3578" transform="matrix(-0.96357 0.267455 0.258538 0.966001 466.049 201.224)" fill="#A2EBFF"/>
<ellipse cx="29.1797" cy="30.18" rx="29.1797" ry="30.18" transform="matrix(-0.96357 0.267455 0.258538 0.966001 457.639 214.385)" fill="#87DDF5"/>
<path d="M423.895 213.699L414.692 205.426L406.176 211.587L409.469 223.889L417.288 221.297L423.895 213.699Z" fill="#A2EBFF"/>
<path d="M404.339 228.967L392.768 228.383L389.377 238.446L398.465 245.826L403.202 238.938L404.339 228.967Z" fill="#A2EBFF"/>
<path d="M448.024 212.185L445.166 200.551L434.843 199.969L430.674 211.019L438.45 213.812L448.024 212.185Z" fill="#A2EBFF"/>
<path d="M469.071 225.823L472.999 214.593L464.716 208.125L455.251 214.798L460.213 221.607L469.071 225.823Z" fill="#A2EBFF"/>
<path d="M477.726 249.919L487.537 243.65L484.828 233.311L473.345 232.486L473.218 240.973L477.726 249.919Z" fill="#A2EBFF"/>
<path d="M471.058 274.942L482.605 275.956L486.346 266.029L477.517 258.318L472.542 265.023L471.058 274.942Z" fill="#A2EBFF"/>
<path d="M451.889 290.432L461.129 297.709L470.143 291.756L467.149 280.571L458.976 283.224L451.889 290.432Z" fill="#A2EBFF"/>
<path d="M427.725 291.816L430.584 303.449L440.906 304.031L445.075 292.981L437.299 290.188L427.725 291.816Z" fill="#A2EBFF"/>
<path d="M406.675 278.178L402.747 289.408L411.03 295.876L420.496 289.203L415.534 282.394L406.675 278.178Z" fill="#A2EBFF"/>
<path d="M398.022 254.082L388.21 260.352L390.919 270.69L402.402 271.515L402.529 263.028L398.022 254.082Z" fill="#A2EBFF"/>
<path d="M437.713 20.9949C438.683 20.9645 439.436 20.1083 439.691 19.684L439.289 17.6457C438.849 17.6457 437.62 18.3611 437.221 18.5124L437.713 20.9949Z" fill="#67C7E7"/>
<path d="M384.615 144.533L382 64L484 78.5734L482.179 159L384.615 144.533Z" fill="#85DCF4"/>
<path d="M247.242 203.884L241.667 206.326L240.273 208.767L242.596 215.605L249.101 220L257 213.651L247.242 203.884Z" fill="#A3B2B9"/>
<path d="M217.97 199L211 200.465L220.293 211.209L230.051 200.465L217.97 199Z" fill="#A3B2B9"/>
<path d="M343 340.4L346.775 339L359.989 340.4L385 350.667L381.697 353L352.438 349.733L343 340.4Z" fill="#768D9A"/>
<path d="M421.997 398L189.905 369.589L163.071 360.592L138.12 355.857L132 304.716L135.766 278.199L146.123 267.308L169.662 246L399.4 270.15L426.705 278.199L430 288.617L421.997 398Z" fill="#708694"/>
<path d="M216.046 362.218C209.609 359.673 208.631 354.191 208.947 351.768L208.06 277.716L230.718 255L318.279 259.997L403 277.716L401.107 385C341.944 379.094 222.483 364.762 216.046 362.218Z" fill="#3B5C6B"/>
<path d="M209 292L190.25 272.34L184 267.191L190.25 248L208.519 274.213L209 292Z" fill="#547280" fill-opacity="0.65"/>
<path d="M385 132C410.973 138.498 466.535 148.437 481 136.205" stroke="white" stroke-width="5" stroke-linecap="round"/>
<path d="M324.569 331.311H329.307L338.188 320.476L353 297.391L267.706 264.884L250.173 263L208 269.124V292.209L216.529 287.969L230.271 307.756L233.588 340.733L223.637 356.751L226.48 364.289L262.02 369H269.601L278.131 353.924L289.503 351.569L292.82 340.733L298.507 336.022L300.402 346.858H315.092L320.778 342.618L324.569 331.311Z" fill="#325463"/>
<path d="M328.848 336L346.384 338.852C348.659 340.374 352.703 345.508 354.441 347.885L384.773 351.213C386.289 349.692 390.776 346.776 392.829 345.508L404.678 346.459C409.227 348.741 414.788 353.749 417 355.967V388.295C413.967 390.957 409.417 393.208 407.521 394L392.829 393.049C387.521 390.387 383.351 385.284 381.929 383.066L351.597 379.738C346.668 384.302 340.697 386.393 338.327 386.869L326.953 384.016C322.403 380.974 318.422 376.093 317 374.033V343.607C321.171 339.423 326.637 336.792 328.848 336Z" fill="#8698A2"/>
<path d="M329.273 336L327 337L343.364 341L347 339L329.273 336Z" fill="#768890"/>
<path d="M422 398L438 388.081V295.033V290.782V270L431.412 271.417H422V398Z" fill="#527180"/>
<path d="M263.748 308.693L259.015 310.591L251.443 311.066L255.702 330.044H270.847L277 325.299L270.374 325.774L263.275 316.759L263.748 308.693Z" fill="#5D7784"/>
<path d="M239.611 303L232.038 304.423V304.898L230.145 308.693L238.664 317.234L245.763 311.066L239.611 303Z" fill="#5D7784"/>
<path d="M220.206 316.759L215 320.555L220.206 330.993L229.198 318.657L220.206 316.759Z" fill="#5D7784"/>
<path d="M252.863 362.307L246.71 368L240.084 358.036L252.863 358.985V362.307Z" fill="#5D7784"/>
<path d="M272.74 354.241L267.534 357.562L259.015 352.343L259.962 341.431C262.802 341.114 268.576 340.672 268.954 341.431C269.333 342.19 268.165 345.543 267.534 347.124L272.74 354.241Z" fill="#5D7784"/>
<path d="M428.678 267.437L209.208 246L187 255.625L421.275 281L440 271.812L428.678 267.437Z" fill="#9AABB4"/>
<path d="M182.38 286.684C174.088 282.173 166.946 282.264 162.208 282.48C157.47 282.696 163.825 287.014 163.825 287.014L152.31 296.33L148.174 316.969C152.388 326.21 163.057 344.365 172.024 343.053C180.99 341.741 186.732 337.085 188.483 334.921C203.045 314.474 191.81 292.459 182.38 286.684Z" fill="#BC4952"/>
<ellipse cx="165.715" cy="312.972" rx="25.4861" ry="30.6778" transform="rotate(-8.32323 165.715 312.972)" fill="#E27268"/>
<path d="M254.806 304L249 305.412L257.71 312L264 309.176L254.806 304Z" fill="#7C94A0"/>
<path d="M276.692 325L271.615 328.886L267 333.257L272.538 342L279 337.629L276.692 325Z" fill="#7C94A0"/>
<ellipse cx="165.852" cy="313.906" rx="12.2711" ry="13.687" transform="rotate(-8.32323 165.852 313.906)" fill="#708694"/>
<mask id="mask0_414_742" style="mask-type:alpha" maskUnits="userSpaceOnUse" x="145" y="295" width="33" height="39">
<path d="M157.773 312.372C158.536 303.771 165.653 300.607 169.116 300.101L167.97 295.72L145.213 299.05L146.962 314.459L162.937 333.851C169.903 330.81 182.352 324.946 176.416 325.815C170.479 326.683 167.531 326.104 166.799 325.706C163.472 324.845 157.01 320.973 157.773 312.372Z" fill="#BC4B57"/>
</mask>
<g mask="url(#mask0_414_742)">
<ellipse cx="166.691" cy="314.604" rx="13" ry="14.5" transform="rotate(-8.32323 166.691 314.604)" fill="#BC4952"/>
</g>
<path d="M190 271.861L174.197 278L157 270.917L168.62 246.833L190 244V271.861Z" fill="#547280"/>
<path d="M191 368.906L174.718 375L157 367.969L174.718 349.219L191 345V368.906Z" fill="#547280"/>
<path d="M371.85 288L388 289.35L387.525 293.4L378.975 297L369 291.15L371.85 288Z" fill="#F8CA93"/>
<path d="M226.643 316.754L223.365 311.112L232.553 305.116L236.476 311.112C241.346 310.736 245.373 310.955 246.778 311.112L249.119 305.47L259.421 311.112L257.548 317.224C260.919 320.609 264.259 326.47 265.508 328.978L271.595 329.448L273 342.142L266.913 343.082C265.789 347.596 263.947 350.604 263.167 351.545L267.849 357.657L259.889 364.239L254.27 359.537C253.146 360.666 249.119 361.261 247.246 361.418V368L235.54 366.119V359.067C232.543 359.067 229.608 356.56 228.516 355.306L222.429 358.597L216.341 349.194L220.087 344.022C219.713 339.885 219.619 336.343 219.619 335.09L214 333.679L215.873 320.985L221.492 322.396C222.99 319.763 225.55 317.537 226.643 316.754Z" fill="#96A7B1"/>
<path d="M129 252.986C129 250.337 131.215 249.045 132.323 248.729L150.838 244L174.101 253.931L174.576 277.578C146.091 274.551 137.704 295.864 137.071 306.899C135.303 342.223 160.971 351.246 176 349.462V375C162.549 373.266 135.077 369.703 132.798 369.325C130.519 368.947 129.949 366.645 129.949 365.541C129.633 329.126 129 255.634 129 252.986Z" fill="#A5B4BC"/>
<path d="M262 267.587L257.405 268.529L245.459 269L245 249.212C250.207 247.014 260.53 243.747 260.162 248.27C259.795 252.793 258.171 258.007 257.405 260.048L262 267.587Z" fill="#526D7B"/>
<path d="M325.979 241L337 250.975L325.979 260L314 257.15V246.7L325.979 241Z" fill="#8C9FAA"/>
<path d="M276.962 242.015L268 245.304V246.714L280.736 257.523L284.981 249.534L276.962 242.015Z" fill="#5D7784"/>
<path d="M305.736 236.376L297.717 240.605L287.34 256.583L303.849 273.97L314.226 250.004L308.566 246.714L305.736 236.376Z" fill="#5D7784"/>
<path d="M324.604 256.583L336.868 251.414L331.679 263.632L336.501 273.239L343 271.62L333.094 281.019L330.287 277.968L317.528 285.718L314.698 256.113L324.604 256.583Z" fill="#5D7784"/>
<path d="M317.528 331.301L309.981 336L304.321 332.711V318.143L318.943 315.323C320.673 315.637 323.566 316.827 321.302 319.083C319.038 321.338 317.528 322.216 317.057 322.372L317.528 331.301Z" fill="#5D7784"/>
<path d="M197.717 211L193 212.88L197.717 218.519L205.736 215.699L197.717 211Z" fill="#5D7784"/>
<path d="M161.986 239L191.035 241.812L199 243.219L173.699 254L132 248.844L161.986 239Z" fill="#C7CDD0"/>
<path d="M230.052 201L224.459 202.435H223.992L217 208.652L230.519 223C236.579 220.609 247.207 214.965 241.24 211.522C235.273 208.078 232.849 207.536 232.383 207.696L230.052 201Z" fill="#5D7784"/>
<path d="M257.507 214L252.239 216.34L241.225 214.936L235 222.894L235.479 235.532L258.465 236L269 232.723L259.901 230.851C258.369 227.106 256.07 223.986 255.113 222.894L257.507 214Z" fill="#526D7B"/>
<path d="M340.483 317.806L330.241 323L320 298.917C325.897 294.509 336.479 282.294 337.224 285.694C337.969 289.094 338.155 300.176 337.224 302.222L344.207 310.25L340.483 317.806Z" fill="#5D7784"/>
<path d="M347 284.278L340.017 289.472L336.293 274.833L343.276 272L347 284.278Z" fill="#5D7784"/>
<path d="M255.6 278.043L248.743 279L246 271.348L262 268L255.6 278.043Z" fill="#405B69"/>
<path d="M210.235 201L223.882 202.419L225.294 210.935C228.682 211.314 232.667 213.301 234.235 214.247L241.294 206.677L251.647 216.14L246.941 224.656C249.2 227.684 251.647 233.172 252.588 235.538H259.176C261.435 237.809 262 245.946 262 249.731L253.059 251.624C252.682 256.923 251.333 261.086 250.706 262.505L257.294 269.129L248.353 279.064L241.294 275.28C239.788 277.929 235.961 279.538 234.235 280.011V288.527L221.059 289L219.176 280.957C215.035 280.578 212.431 279.538 211.647 279.064L205.059 285.688L194.235 276.699L197.529 269.129C194.518 266.48 192.51 262.663 191.882 261.086L185.294 261.559L182 246.892L189.059 244.527C189.435 238.849 191.725 233.014 192.824 230.806L185.294 223.71L192.824 212.828L200.353 217.559C203.741 214.153 208.353 212.355 210.235 211.882V201Z" fill="#8398A2"/>
<path d="M257.959 255.932L267.918 245.623L276.454 253.121C278.351 251.996 283.251 250.465 285.464 249.841L284.515 240L297.794 240.937L299.216 250.778L309.175 254.527L314.866 247.498L324.825 256.87L320.082 264.836C324.635 269.709 327.354 274.052 328.144 275.614L336.68 274.676L340 289.203L331.464 290.609C331.085 297.357 329.725 302.792 329.093 304.667L336.68 312.633L330.041 322.942L320.082 317.787C316.289 321.911 311.23 324.192 309.175 324.816L310.124 336.063L296.845 337L294 326.691C286.033 325.566 280.564 322.786 278.825 321.536L272.66 326.691L261.753 317.787L265.546 310.758C261.373 303.261 259.698 297.325 259.381 295.295H249.897L248 279.831H257.959C258.338 275.707 262.543 267.491 264.598 263.899L257.959 255.932Z" fill="#95A6B0"/>
<path d="M352.219 275.028C350.321 275.501 347 277.394 347 277.394L378.314 330.864C385.747 334.808 401.752 342.315 406.307 340.801C410.861 339.287 412 337.138 412 336.252V286.385C412 282.22 408.837 280.549 407.255 280.233C407.255 280.233 354.117 274.555 352.219 275.028Z" fill="#AFD2B8"/>
<path d="M401.364 282.208L347.909 277C346.382 277 346 278.263 346 278.894V327.659C346 332.204 348.864 333.656 350.295 333.814C366.364 335.866 399.55 340.158 403.75 340.916C407.95 341.673 409 337.128 409 334.761C408.841 321.189 408.523 292.908 408.523 288.363C408.523 283.818 403.75 282.366 401.364 282.208Z" fill="#89C098"/>
<path d="M380 303.551L383.765 292.755L386.764 290.191L388 289V289.469V309.653L384.235 312L383.765 311.531L381.882 309.184L380 303.551Z" fill="#F5915B"/>
<ellipse cx="398.5" cy="297.5" rx="4.5" ry="5.5" fill="#D9D9D9"/>
<ellipse cx="399" cy="297.5" rx="5" ry="5.5" fill="#F0F2E1"/>
<circle cx="356" cy="289" r="4" fill="#F0F2E1"/>
<ellipse cx="359" cy="319" rx="5" ry="6" fill="#F0F2E1"/>
<circle cx="358.5" cy="319.5" r="2.5" fill="#87BA96"/>
<circle cx="391.5" cy="329.5" r="3" fill="#F0F2E1" stroke="#F0F2E1"/>
<line x1="399" y1="302" x2="399" y2="321" stroke="#F0F2E1" stroke-width="4" stroke-linecap="round"/>
<line x1="376.8" y1="321.499" x2="364.725" y2="320.079" stroke="#F0F2E1" stroke-width="4" stroke-linecap="round"/>
<path d="M377 320V309" stroke="#F0F2E1" stroke-width="4" stroke-linecap="round"/>
<path d="M356.015 293C355.796 301.886 357.898 304.821 371 305" stroke="#F0F2E1" stroke-width="4" stroke-linecap="round"/>
<line x1="398.685" y1="321.621" x2="391.277" y2="330.394" stroke="#F0F2E1" stroke-width="4" stroke-linecap="round"/>
<path d="M369 291L384 292.4V312L369 310.133V291Z" fill="#FCB772"/>
<ellipse cx="138" cy="261.5" rx="3" ry="4.5" fill="#8196A1"/>
<ellipse cx="138" cy="360" rx="3" ry="4" fill="#8196A1"/>
<path d="M551.5 190C595 235 575.156 341.275 435 271.665" stroke="black" stroke-width="11" stroke-linecap="round"/>
<path d="M420 121L418.89 83.0379L389 81L390.388 121H420Z" fill="white"/>
<path d="M433 121.291V84L467 88.2376V126L433 121.291Z" fill="white"/>
<path d="M295.535 238.018L285.535 242.518L298.035 244.018L308.035 240.018L295.535 238.018Z" fill="#B5C0C8"/>
<path d="M297 235C297 234.08 280.92 200.576 278.346 195.219L286 189L306 231C306 231 311.5 233.5 312 235.5C312.5 237.5 312 246.5 312 246.5L305 249.5C305 249.5 297 244.187 296.5 242C296 239.812 297 236 297 235Z" fill="#9EAEB7"/>
<mask id="mask1_414_742" style="mask-type:alpha" maskUnits="userSpaceOnUse" x="294" y="238" width="16" height="14">
<path d="M310 247.648C302.533 246.493 298.593 241.068 297.556 238.5H294L297.556 244.278L303.778 251.5L310 247.648Z" fill="#778E99"/>
</mask>
<g mask="url(#mask1_414_742)">
<path d="M297 235C297 234.08 280.92 200.576 278.346 195.219L286 189L306 231C306 231 311.5 233.5 312 235.5C312.5 237.5 312 246.5 312 246.5L305 249.5C305 249.5 297 244.187 296.5 242C296 239.812 297 236 297 235Z" fill="#8096A2"/>
</g>
<mask id="mask2_414_742" style="mask-type:alpha" maskUnits="userSpaceOnUse" x="284" y="194" width="30" height="43">
<path d="M284 199.5C286.4 198.7 288.667 195.833 289.5 194.5L301.5 219L314 230.5C313.833 231.667 312.5 233.7 308.5 232.5C304.5 231.3 300.167 234.667 298.5 236.5L300.5 233L284 199.5Z" fill="#7A909B"/>
</mask>
<g mask="url(#mask2_414_742)">
<path d="M297 235C297 234.08 280.92 200.576 278.346 195.219L286 189L306 231C306 231 311.5 233.5 312 235.5C312.5 237.5 312 246.5 312 246.5L305 249.5C305 249.5 297 244.187 296.5 242C296 239.812 297 236 297 235Z" fill="#AEBCC5"/>
</g>
<path d="M278 194.733L286 191L279.778 198L278 194.733Z" fill="#94A4AD"/>
<path d="M237.362 136.355L255.947 175.68C266.355 179.091 268.957 184.366 268.957 186.577C264.497 194.536 270.196 196.842 273.604 197L289.401 189.419C295.349 183.355 289.711 179.944 286.149 178.996L280.573 171.416V160.992L261.523 122.615C255.947 114.656 250.217 115.509 248.048 116.93L240.614 120.247C234.295 125.553 235.813 133.197 237.362 136.355Z" fill="#FCAD71"/>
<mask id="mask3_414_742" style="mask-type:alpha" maskUnits="userSpaceOnUse" x="249" y="163" width="46" height="29">
<path d="M255.465 179.482C270.407 180.482 282.29 171.447 284.965 163.982L289.965 171.482C294.132 171.815 297.965 175.082 289.965 181.482C282.046 187.817 272.33 190.592 267.608 191.941L267.465 191.982L265.965 188.982C257.132 187.982 241.525 178.548 255.465 179.482Z" fill="#EF9452"/>
</mask>
<g mask="url(#mask3_414_742)">
<path d="M237.465 137.482L257.465 178.982C268.665 182.582 271.465 188.148 271.465 190.482C266.665 198.882 272.798 201.315 276.465 201.482L293.465 193.482C299.865 187.082 293.798 183.482 289.965 182.482L283.965 174.482V163.482L263.465 122.982C257.465 114.582 251.298 115.482 248.965 116.982L240.965 120.482C234.165 126.082 235.798 134.148 237.465 137.482Z" fill="#EF9452" fill-opacity="0.52"/>
</g>
<path d="M274.081 419.203C262.204 412.815 267.43 412 274.081 412C282.316 412.3 301.131 412 310.663 412C321.114 412 316.205 417.402 313.038 419.203C294.985 428.206 279.941 422.354 274.081 419.203Z" fill="#EBDABE"/>
<line x1="245.655" y1="135.158" x2="260.962" y2="166.577" stroke="#EF9452" stroke-width="6" stroke-linecap="round"/>
<line x1="256.982" y1="129.494" x2="272.289" y2="160.914" stroke="#EF9452" stroke-width="6" stroke-linecap="round"/>
<path d="M313 417L303.5 423L301 422.5L301.5 412.5L313 403.5V417Z" fill="#5D7A87"/>
<path d="M303.5 423H283.5L282.5 411H303.5V423Z" fill="#6D8590"/>
<path d="M273 403.5C277.4 400.3 282.5 398.5 284.5 398H285C289.667 397.833 297.9 397.6 301.5 398C305.1 398.4 311.333 401.833 313 403.5L303.5 411H283L273 403.5Z" fill="#8C9BA3"/>
<path d="M283.5 423L283 411L273 403.5L273.5 416.5L283.5 423Z" fill="#788C98"/>
<path d="M284 401.119V393.5H304V401.119C301.5 405.967 284.5 405.274 284 401.119Z" fill="#6C8390"/>
<ellipse cx="294" cy="393.5" rx="10" ry="3.5" fill="#889CA7"/>
<path d="M284 392.348V387.5H304V392.348C301.5 395.433 284.5 394.993 284 392.348Z" fill="#6C8390"/>
<ellipse cx="294" cy="387.5" rx="10" ry="3.5" fill="#889CA7"/>
<path d="M284 386.348V381.5H304V386.348C301.5 389.433 284.5 388.993 284 386.348Z" fill="#6C8390"/>
<ellipse cx="294" cy="381.5" rx="10" ry="3.5" fill="#889CA7"/>
<path d="M284 380.348V375.5H304V380.348C301.5 383.433 284.5 382.993 284 380.348Z" fill="#6C8390"/>
<ellipse cx="294" cy="375.5" rx="10" ry="3.5" fill="#889CA7"/>
<path d="M284 374.348V369.5H304V374.348C301.5 377.433 284.5 376.993 284 374.348Z" fill="#6C8390"/>
<ellipse cx="294" cy="369.5" rx="10" ry="3.5" fill="#889CA7"/>
<path d="M284 368.348V363.5H304V368.348C301.5 371.433 284.5 370.993 284 368.348Z" fill="#6C8390"/>
<ellipse cx="294" cy="363.5" rx="10" ry="3.5" fill="#A7B7BD"/>
<path d="M162 417.5C146.4 415.1 151.5 412.5 156 411.5L165.5 404.5C176.167 405.833 198.8 408.8 204 410C209.2 411.2 206.5 412.833 204.5 413.5H174.5C176.5 417.9 167 418 162 417.5Z" fill="#EBDABE"/>
<path d="M200.196 412.718L192.657 411.622L194.383 399.747L201.922 400.843C206.504 403.024 204.352 413.019 200.196 412.718Z" fill="#6C8390"/>
<ellipse cx="194.015" cy="405.756" rx="6" ry="3.5" transform="rotate(-81.7301 194.015 405.756)" fill="#889CA7"/>
<ellipse cx="90.5" cy="386" rx="19.5" ry="6" fill="#EBDABE"/>
<ellipse cx="380.5" cy="427.5" rx="11.5" ry="3.5" fill="#EBDABE"/>
<path d="M191.517 411.456L186.719 410.759L188.445 398.884L193.243 399.581C196.08 401.509 194.177 411.54 191.517 411.456Z" fill="#6C8390"/>
<ellipse cx="188.077" cy="404.893" rx="6" ry="3.5" transform="rotate(-81.7301 188.077 404.893)" fill="#889CA7"/>
<path d="M185.58 410.593L180.782 409.896L182.508 398.021L187.306 398.718C190.143 400.646 188.24 410.677 185.58 410.593Z" fill="#6C8390"/>
<ellipse cx="182.14" cy="404.03" rx="6" ry="3.5" transform="rotate(-81.7301 182.14 404.03)" fill="#889CA7"/>
<path d="M179.642 409.73L174.844 409.033L176.57 397.158L181.368 397.855C184.205 399.783 182.302 409.814 179.642 409.73Z" fill="#6C8390"/>
<ellipse cx="176.202" cy="403.167" rx="6" ry="3.5" transform="rotate(-81.7301 176.202 403.167)" fill="#889CA7"/>
<path d="M173.704 408.867L168.906 408.17L170.632 396.295L175.43 396.992C178.267 398.92 176.364 408.951 173.704 408.867Z" fill="#6C8390"/>
<ellipse cx="170.264" cy="402.304" rx="6" ry="3.5" transform="rotate(-81.7301 170.264 402.304)" fill="#889CA7"/>
<path d="M167.767 408.004L162.969 407.307L164.695 395.432L169.493 396.129C172.33 398.057 170.427 408.088 167.767 408.004Z" fill="#6C8390"/>
<ellipse cx="164.327" cy="401.441" rx="6" ry="3.5" transform="rotate(-81.7301 164.327 401.441)" fill="#A7B7BD"/>
<path d="M167.278 388.981L161.598 388L158.5 414.5H164C173.088 404.689 170.204 393.233 167.278 388.981Z" fill="#889CA7"/>
<ellipse cx="160.272" cy="401.152" rx="6.88163" ry="13.5" transform="rotate(6.07367 160.272 401.152)" fill="#9BABB3"/>
<line x1="159.685" y1="395.289" x2="161.289" y2="407.315" stroke="#6C8390" stroke-width="3" stroke-linecap="round"/>
<line x1="156.516" y1="402.192" x2="164.22" y2="399.874" stroke="#6C8390" stroke-width="3" stroke-linecap="round"/>
<path d="M233 423.5C253 423.1 248 418 243 415.5L235 413C233 414 226 416.9 214 420.5C202 424.1 210 426.667 215.5 427.5C221.5 428.7 229.666 425.333 233 423.5Z" fill="#EBDABE"/>
<path d="M385.914 426.601L379.419 429.687L374.558 419.456L381.053 416.37C385.794 415.685 389.336 424.662 385.914 426.601Z" fill="#6C8390"/>
<ellipse cx="377.415" cy="424.369" rx="5.66359" ry="3.30376" transform="rotate(-115.415 377.415 424.369)" fill="#889CA7"/>
<path d="M211.944 414.14L215.005 411.155L221.98 420.08L218.079 422.635C215.005 423.107 210.151 415.9 211.944 414.14Z" fill="#6C8390"/>
<ellipse cx="218.12" cy="415.908" rx="5.66359" ry="3.30376" transform="rotate(51.9915 218.12 415.908)" fill="#889CA7"/>
<path d="M215.861 410.486L219.467 407.668L226.442 416.592L222.837 419.41C219.67 420.088 214.069 412.246 215.861 410.486Z" fill="#6C8390"/>
<ellipse cx="222.583" cy="412.421" rx="5.66359" ry="3.30376" transform="rotate(51.9915 222.583 412.421)" fill="#889CA7"/>
<path d="M220.324 406.998L223.93 404.18L230.905 413.105L227.299 415.923C224.132 416.6 218.531 408.758 220.324 406.998Z" fill="#6C8390"/>
<path d="M233.62 419.076L237.994 415.841L221.938 396.439L218.349 400.191C219.114 412.791 228.81 418.298 233.62 419.076Z" fill="#889CA7"/>
<ellipse cx="229.888" cy="406.355" rx="6.49579" ry="12.7431" transform="rotate(139.795 229.888 406.355)" fill="#9BABB3"/>
<line x1="234.153" y1="409.799" x2="225.039" y2="403.146" stroke="#6C8390" stroke-width="3" stroke-linecap="round"/>
<line x1="231.666" y1="403.228" x2="228.297" y2="409.846" stroke="#6C8390" stroke-width="3" stroke-linecap="round"/>
<path d="M79 384.155V374H110V384.155C97.0277 391.119 83.9282 387.057 79 384.155Z" fill="#778D97"/>
<ellipse cx="94.5" cy="374" rx="15.5" ry="6" fill="#9DACB0"/>
<path d="M95.2286 371L97.1714 372.714L103 373.571L98.1429 374.857L99.1143 377L94.2571 375.714L88.4286 376.571L89.8857 374.429L86 372.714H92.3143L95.2286 371Z" fill="#778D97"/>
<ellipse cx="220.5" cy="246.5" rx="18.5" ry="20.5" fill="#486775"/>
<ellipse cx="294" cy="288.5" rx="23" ry="24.5" fill="#607A88"/>
<ellipse cx="294" cy="288.5" rx="21" ry="21.5" fill="#7A8F9B"/>
<ellipse cx="293.5" cy="288" rx="9.5" ry="10" fill="#486775"/>
<ellipse cx="220" cy="247.5" rx="7" ry="7.5" fill="#C7CDD0"/>
<ellipse cx="243" cy="336.5" rx="12" ry="12.5" fill="#5E7886"/>
<ellipse cx="243.5" cy="336" rx="7.5" ry="8" fill="#3B5D6D"/>
<path d="M344 341.409L347.302 340C348.057 340 352.648 345.635 354.849 348.452L385.038 351.739L383.151 354.087L351.547 349.861L344 341.409Z" fill="#6A7D86"/>
<path d="M414.755 357.374L402.491 347.043H406.736L418.057 357.374L419 388.835L410.509 394H408.151L416.17 388.835L414.755 357.374Z" fill="#6A7D86"/>
<path d="M350 362L382 365.208V373L350 368.417V362Z" fill="#41606F"/>
<circle cx="334" cy="363" r="8" fill="#365766"/>
<circle cx="398" cy="371" r="8" fill="#365766"/>
<path d="M337 370.48C327.834 366.61 329.998 358.547 332.226 355C331.08 355 328.884 356.451 327.929 357.419C323.632 363.707 327.452 368.061 330.316 369.996C332.608 371.544 335.727 370.963 337 370.48Z" fill="#5A7985"/>
<path d="M402 378.48C392 374.61 394.361 366.547 396.792 363C395.542 363 393.146 364.451 392.104 365.419C387.417 371.707 391.584 376.061 394.708 377.996C397.208 379.544 400.611 378.963 402 378.48Z" fill="#5A7985"/>
<path d="M352.353 367.042L351.882 362.458L350 362V368.417L382 373V371.167L352.353 367.042Z" fill="#5A7985"/>
<path d="M615.539 304.283L626.801 332.018" stroke="black" stroke-width="10" stroke-linecap="round"/>
</svg>
