<svg width="271" height="200" viewBox="0 0 271 200" fill="none" xmlns="http://www.w3.org/2000/svg">
<path d="M0 14C0 6.26802 6.26801 0 14 0H286C293.732 0 300 6.26801 300 14V234C300 241.732 293.732 248 286 248H14C6.26802 248 0 241.732 0 234V14Z" fill="white"/>
<path d="M16 26C16 20.4772 20.4772 16 26 16H38C43.5228 16 48 20.4772 48 26V38C48 43.5228 43.5228 48 38 48H26C20.4772 48 16 43.5228 16 38V26Z" fill="url(#paint0_linear_312_1203)"/>
<path d="M56 32C56 29.7909 57.7909 28 60 28H132C134.209 28 136 29.7909 136 32C136 34.2091 134.209 36 132 36H60C57.7909 36 56 34.2091 56 32Z" fill="#D1D5DC"/>
<path d="M16 70C16 64.4772 20.4772 60 26 60H274C279.523 60 284 64.4772 284 70V90C284 95.5228 279.523 100 274 100H26C20.4772 100 16 95.5228 16 90V70Z" fill="url(#paint1_linear_312_1203)"/>
<path d="M24 72C24 69.7909 25.7909 68 28 68H44C46.2091 68 48 69.7909 48 72V88C48 90.2091 46.2091 92 44 92H28C25.7909 92 24 90.2091 24 88V72Z" fill="#E9D4FF"/>
<path d="M56 80C56 77.7909 57.7909 76 60 76H116C118.209 76 120 77.7909 120 80C120 82.2091 118.209 84 116 84H60C57.7909 84 56 82.2091 56 80Z" fill="#DAB2FF"/>
<path d="M16 118C16 112.477 20.4772 108 26 108H274C279.523 108 284 112.477 284 118V138C284 143.523 279.523 148 274 148H26C20.4772 148 16 143.523 16 138V118Z" fill="url(#paint2_linear_312_1203)"/>
<path d="M24 120C24 117.791 25.7909 116 28 116H44C46.2091 116 48 117.791 48 120V136C48 138.209 46.2091 140 44 140H28C25.7909 140 24 138.209 24 136V120Z" fill="#BEDBFF"/>
<path d="M56 128C56 125.791 57.7909 124 60 124H132C134.209 124 136 125.791 136 128C136 130.209 134.209 132 132 132H60C57.7909 132 56 130.209 56 128Z" fill="#8EC5FF"/>
<path d="M16 166C16 160.477 20.4772 156 26 156H274C279.523 156 284 160.477 284 166V186C284 191.523 279.523 196 274 196H26C20.4772 196 16 191.523 16 186V166Z" fill="url(#paint3_linear_312_1203)"/>
<path d="M24 168C24 165.791 25.7909 164 28 164H44C46.2091 164 48 165.791 48 168V184C48 186.209 46.2091 188 44 188H28C25.7909 188 24 186.209 24 184V168Z" fill="#B9F8CF"/>
<path d="M56 176C56 173.791 57.7909 172 60 172H108C110.209 172 112 173.791 112 176C112 178.209 110.209 180 108 180H60C57.7909 180 56 178.209 56 176Z" fill="#7BF1A8"/>
<defs>
<linearGradient id="paint0_linear_312_1203" x1="32" y1="16" x2="32" y2="48" gradientUnits="userSpaceOnUse">
<stop stop-color="#378FE6"/>
<stop offset="1" stop-color="#5DA2CB"/>
</linearGradient>
<linearGradient id="paint1_linear_312_1203" x1="16" y1="80" x2="284" y2="80" gradientUnits="userSpaceOnUse">
<stop stop-color="#FAF5FF"/>
<stop offset="1" stop-color="#FDF2F8"/>
</linearGradient>
<linearGradient id="paint2_linear_312_1203" x1="16" y1="128" x2="284" y2="128" gradientUnits="userSpaceOnUse">
<stop stop-color="#EFF6FF"/>
<stop offset="1" stop-color="#ECFEFF"/>
</linearGradient>
<linearGradient id="paint3_linear_312_1203" x1="16" y1="176" x2="284" y2="176" gradientUnits="userSpaceOnUse">
<stop stop-color="#F0FDF4"/>
<stop offset="1" stop-color="#ECFDF5"/>
</linearGradient>
</defs>
</svg>
