<svg width="200" height="174" viewBox="0 0 200 174" fill="none" xmlns="http://www.w3.org/2000/svg">
<path d="M0 14C0 6.26801 6.26801 0 14 0H186C193.732 0 200 6.26801 200 14V160C200 167.732 193.732 174 186 174H14C6.26801 174 0 167.732 0 160V14Z" fill="white"/>
<path d="M16 142C16 139.791 17.7909 138 20 138H138C140.209 138 142 139.791 142 142C142 144.209 140.209 146 138 146H20C17.7909 146 16 144.209 16 142Z" fill="#E5E7EB"/>
<path d="M16 154C16 151.791 17.7909 150 20 150H96C98.2091 150 100 151.791 100 154C100 156.209 98.2091 158 96 158H20C17.7909 158 16 156.209 16 154Z" fill="#E5E7EB"/>
<path d="M16 26C16 20.4772 20.4772 16 26 16H174C179.523 16 184 20.4772 184 26V117C184 122.523 179.523 127 174 127H26C20.4772 127 16 122.523 16 117V26Z" fill="url(#paint0_linear_312_1224)"/>
<rect x="104" y="26" width="70" height="41" rx="11" fill="white"/>
<path d="M125.623 53.6989C124.529 53.6989 123.556 53.5213 122.704 53.1662C121.856 52.8063 121.191 52.3163 120.708 51.696C120.225 51.0758 119.983 50.3726 119.983 49.5866C119.983 48.9806 120.121 48.4242 120.395 47.9176C120.675 47.4062 121.054 46.9825 121.532 46.6463C122.01 46.3054 122.545 46.0876 123.137 45.9929V45.8935C122.36 45.7372 121.731 45.3608 121.248 44.7642C120.765 44.1629 120.523 43.4645 120.523 42.669C120.523 41.9162 120.743 41.2462 121.184 40.6591C121.624 40.0672 122.228 39.6032 122.995 39.267C123.767 38.9261 124.643 38.7557 125.623 38.7557C126.603 38.7557 127.476 38.9261 128.243 39.267C129.015 39.608 129.621 40.0743 130.062 40.6662C130.502 41.2533 130.724 41.9209 130.729 42.669C130.724 43.4692 130.478 44.1676 129.991 44.7642C129.503 45.3608 128.878 45.7372 128.116 45.8935V45.9929C128.698 46.0876 129.226 46.3054 129.699 46.6463C130.178 46.9825 130.556 47.4062 130.836 47.9176C131.12 48.4242 131.264 48.9806 131.269 49.5866C131.264 50.3726 131.02 51.0758 130.537 51.696C130.055 52.3163 129.387 52.8063 128.535 53.1662C127.687 53.5213 126.716 53.6989 125.623 53.6989ZM125.623 51.4403C126.11 51.4403 126.537 51.3527 126.901 51.1776C127.266 50.9976 127.55 50.7514 127.753 50.4389C127.962 50.1217 128.066 49.7571 128.066 49.3452C128.066 48.9238 127.959 48.5521 127.746 48.2301C127.533 47.9034 127.244 47.6477 126.88 47.4631C126.515 47.2737 126.096 47.179 125.623 47.179C125.154 47.179 124.735 47.2737 124.366 47.4631C123.996 47.6477 123.705 47.9034 123.492 48.2301C123.284 48.5521 123.18 48.9238 123.18 49.3452C123.18 49.7571 123.281 50.1217 123.485 50.4389C123.689 50.7514 123.975 50.9976 124.344 51.1776C124.714 51.3527 125.14 51.4403 125.623 51.4403ZM125.623 44.9418C126.03 44.9418 126.392 44.8589 126.709 44.6932C127.027 44.5275 127.275 44.2978 127.455 44.0043C127.635 43.7107 127.725 43.3722 127.725 42.9886C127.725 42.6098 127.635 42.2784 127.455 41.9943C127.275 41.7055 127.029 41.4806 126.716 41.3196C126.404 41.1539 126.039 41.071 125.623 41.071C125.211 41.071 124.846 41.1539 124.529 41.3196C124.212 41.4806 123.963 41.7055 123.783 41.9943C123.608 42.2784 123.52 42.6098 123.52 42.9886C123.52 43.3722 123.61 43.7107 123.79 44.0043C123.97 44.2978 124.219 44.5275 124.536 44.6932C124.853 44.8589 125.215 44.9418 125.623 44.9418ZM133.199 50.9432V48.5213L139.271 38.9545H141.36V42.3068H140.124L136.296 48.3651V48.4787H144.925V50.9432H133.199ZM140.181 53.5V50.2045L140.237 49.1321V38.9545H143.121V53.5H140.181ZM154.936 50.7727V50.0057C154.936 49.4233 155.059 48.8883 155.305 48.4006C155.556 47.9081 155.918 47.5152 156.392 47.2216C156.87 46.9233 157.452 46.7741 158.139 46.7741C158.835 46.7741 159.419 46.9209 159.893 47.2145C160.371 47.508 160.731 47.901 160.972 48.3935C161.219 48.8812 161.342 49.4186 161.342 50.0057V50.7727C161.342 51.3551 161.219 51.8925 160.972 52.3849C160.726 52.8726 160.364 53.2633 159.886 53.5568C159.408 53.8551 158.825 54.0043 158.139 54.0043C157.443 54.0043 156.858 53.8551 156.384 53.5568C155.911 53.2633 155.551 52.8726 155.305 52.3849C155.059 51.8925 154.936 51.3551 154.936 50.7727ZM157.002 50.0057V50.7727C157.002 51.1089 157.083 51.4261 157.244 51.7244C157.41 52.0227 157.708 52.1719 158.139 52.1719C158.57 52.1719 158.863 52.0251 159.019 51.7315C159.18 51.438 159.261 51.1184 159.261 50.7727V50.0057C159.261 49.66 159.185 49.3381 159.034 49.0398C158.882 48.7415 158.584 48.5923 158.139 48.5923C157.713 48.5923 157.417 48.7415 157.251 49.0398C157.085 49.3381 157.002 49.66 157.002 50.0057ZM147.471 42.4489V41.6818C147.471 41.0947 147.597 40.5573 147.847 40.0696C148.098 39.5772 148.461 39.1842 148.934 38.8906C149.412 38.5971 149.99 38.4503 150.667 38.4503C151.368 38.4503 151.955 38.5971 152.428 38.8906C152.902 39.1842 153.262 39.5772 153.508 40.0696C153.754 40.5573 153.877 41.0947 153.877 41.6818V42.4489C153.877 43.036 153.752 43.5734 153.501 44.0611C153.255 44.5488 152.892 44.9394 152.414 45.233C151.941 45.5218 151.358 45.6662 150.667 45.6662C149.976 45.6662 149.391 45.5194 148.913 45.2259C148.439 44.9276 148.079 44.5369 147.833 44.054C147.592 43.5663 147.471 43.0312 147.471 42.4489ZM149.552 41.6818V42.4489C149.552 42.7945 149.633 43.1141 149.794 43.4077C149.959 43.7012 150.25 43.848 150.667 43.848C151.103 43.848 151.399 43.7012 151.555 43.4077C151.716 43.1141 151.796 42.7945 151.796 42.4489V41.6818C151.796 41.3362 151.721 41.0142 151.569 40.7159C151.418 40.4176 151.117 40.2685 150.667 40.2685C150.246 40.2685 149.954 40.42 149.794 40.723C149.633 41.026 149.552 41.3456 149.552 41.6818ZM148.409 53.5L158.409 38.9545H160.269L150.269 53.5H148.409Z" fill="black"/>
<defs>
<linearGradient id="paint0_linear_312_1224" x1="16" y1="16" x2="118.105" y2="170.538" gradientUnits="userSpaceOnUse">
<stop stop-color="#DF79E2"/>
<stop offset="1" stop-color="#B35FB5"/>
</linearGradient>
</defs>
</svg>
