<svg width="218" height="156" viewBox="0 0 218 156" fill="none" xmlns="http://www.w3.org/2000/svg">
<path d="M10.7662 25.5789C11.3435 20.0863 16.2642 16.1017 21.7567 16.679L171.93 32.4627C177.422 33.04 181.407 37.9607 180.829 43.4533L171.108 135.944C170.531 141.436 165.61 145.421 160.118 144.844L9.94503 129.06C4.45244 128.483 0.467797 123.562 1.04509 118.069L10.7662 25.5789Z" fill="#FAFAFA"/>
<path d="M21.7662 31.5789C22.3435 26.0863 27.2642 22.1017 32.7567 22.679L182.93 38.4627C188.422 39.04 192.407 43.9607 191.829 49.4533L181.899 143.933C181.322 149.425 176.401 153.41 170.909 152.833L20.736 137.049C15.2434 136.472 11.2587 131.551 11.836 126.058L21.7662 31.5789Z" fill="#FFEFDC"/>
<path d="M22.8115 52.6337C22.8115 47.1108 27.2887 42.6337 32.8115 42.6337H183.812C189.334 42.6337 193.812 47.1108 193.812 52.6337V145.634C193.812 151.157 189.334 155.634 183.812 155.634H32.8115C27.2887 155.634 22.8115 151.157 22.8115 145.634V52.6337Z" fill="#FDFDFD"/>
<path d="M25.2033 34.5363C24.4346 29.0672 28.2451 24.0106 33.7142 23.2419L189.186 1.39176C194.655 0.623125 199.712 4.43361 200.481 9.90271L215.651 117.842C216.419 123.311 212.609 128.368 207.14 129.136L51.6675 150.987C46.1984 151.755 41.1418 147.945 40.3731 142.476L25.2033 34.5363Z" fill="#FFEFDC"/>
<path d="M30.1828 38.5392C29.4255 33.0685 33.2451 28.0106 38.7142 27.2419L184.284 6.78349C189.753 6.01486 194.8 9.82662 195.558 15.2973L208.859 111.381C209.617 116.852 205.797 121.91 200.328 122.678L54.7584 143.137C49.2893 143.905 44.2418 140.094 43.4844 134.623L30.1828 38.5392Z" fill="white"/>
<path d="M54.7269 84.5712C54.121 80.1946 57.1767 76.1482 61.552 75.5333L179.394 58.9717C183.769 58.3568 187.807 61.4062 188.413 65.7828L192.253 93.5183C192.859 97.8948 189.803 101.941 185.428 102.556L67.5857 119.118C63.2105 119.733 59.1724 116.683 58.5666 112.307L54.7269 84.5712Z" fill="url(#paint0_linear_312_1232)"/>
<path d="M52.1137 51.1093C51.8487 49.1946 53.1855 47.4243 55.0997 47.1553L181.854 29.3411C183.768 29.0721 185.535 30.4062 185.8 32.321C186.065 34.2357 184.728 36.006 182.814 36.275L56.0596 54.0892C54.1455 54.3582 52.3788 53.0241 52.1137 51.1093Z" fill="#E5E7EB"/>
<path d="M53.5536 61.5101C53.4021 60.416 54.166 59.4044 55.2598 59.2506L133.491 48.256C134.585 48.1022 135.594 48.8646 135.746 49.9587C135.897 51.0529 135.133 52.0645 134.04 52.2182L55.8084 63.2129C54.7145 63.3666 53.705 62.6042 53.5536 61.5101Z" fill="#E5E7EB"/>
<defs>
<linearGradient id="paint0_linear_312_1232" x1="53.6299" y1="76.6467" x2="90.3387" y2="151.775" gradientUnits="userSpaceOnUse">
<stop stop-color="#DBEAFE"/>
<stop offset="1" stop-color="#CEFAFE"/>
</linearGradient>
</defs>
</svg>
