<?xml version="1.0" encoding="UTF-8"?><svg xmlns="http://www.w3.org/2000/svg" viewBox="0 0 374 264.4"><g id="a"><polygon points="184.9 9 357 9 357 180 123.8 184 184.9 9" style="fill:#e5e5e5; stroke-width:0px;"/><polygon points="364 162 28 164 0 197 374 197 364 162" style="fill:#cecece; stroke-width:0px;"/></g><g id="b"><path d="m41.7,125.6s-7.8,7.1-7.6,14.1,10.1,20.3,10.1,20.3l-2.5-34.4Z" style="fill:#474747; stroke-width:0px;"/><path d="m191.2,64.5s10.7-43.5-37.4-43.5-59.3,45.6-59.3,45.6h4.4s14.7-44.5,54.9-41.6,32.2,38,32.2,38l5.2,1.5Z" style="stroke-width:0px;"/><polygon points="100.9 59.4 93.4 61.2 84.4 92 90.5 97 100.9 59.4" style="stroke-width:0px;"/><polygon points="88.8 86.3 84.4 82.6 90.5 63 95.5 63 88.8 86.3" style="stroke-width:0px;"/><path d="m86,116s1.8-27.9,14-60c0,0,38.2-4.9,81.1-.6l16.9,17.5s-11.2,14.7-20,39.1c0,0-36-6-92,4Z" style="fill:#0eb8e4; stroke-width:0px;"/><path d="m201,73.7l-15.6,32.2-20.8-11.6s2.8-7.8,18.3-33.3c0,0,9.1.2,18,12.7Z" style="stroke-width:0px;"/><polygon points="201 79.7 191.4 104.1 178.7 97 192.4 68.6 201 79.7" style="stroke-width:0px;"/><path d="m149,59.4s10.6-40.4-10.2-55.4c0,0,16.6,26,6.3,55.4h3.9Z" style="fill:#0eb8e4; stroke-width:0px;"/><ellipse cx="139.3" cy="5.5" rx="4.6" ry="5.5" style="fill:#0eb8e4; stroke-width:0px;"/><path d="m229,122.9s-17,81,32,89.1,55.5-59.3,55.5-59.3l8.7,11.9s-6.3,59.3-64.3,59.4-45.3-76.9-45.3-76.9l13.3-24.1Z" style="fill:#474747; stroke-width:0px;"/><path d="m313,156l12,10s9.1-10,10-17l-11-16-11,23Z" style="fill:#474747; stroke-width:0px;"/><path d="m323,136s3-8.6,0-15.3c0,0,1-.2,3,.5l1.3,2.6s3.3,6.6,0,17.3l-4.3-5.2Z" style="fill:#474747; stroke-width:0px;"/><path d="m330.1,147.7s4.7-7.8,3.2-15c0,0,1,0,2.8,1.2l.7,2.8s1.8,7.1-3.6,17l-3.1-6Z" style="fill:#474747; stroke-width:0px;"/><polygon points="316.5 98 274 98 276.3 30.8 318 30.8 316.5 98" style="fill:#212121; stroke-width:0px;"/><path d="m263,150l10,18s0,3-3,5-7.1-.7-7.1-.7l-9.9-17.3,10-5Z" style="fill:#191919; stroke-width:0px;"/><path d="m272.4,155s3.5,12.5,15.5,10.3,12.1-5.3,17.1-5.3,6,2,6,2l-4.3.3s-.7-2.8-10.7,2.9-24,2.7-25-9.3" style="fill:#191919; stroke-width:0px;"/><path d="m283.4,45.4v4.4h-2.7v-11.8h3.8c.9,0,1.6,0,2.2.3s1.1.4,1.5.7.7.7.8,1.1c.2.4.3.9.3,1.4s0,.7-.2,1.1-.3.7-.5.9-.5.5-.7.8c-.3.2-.6.4-1,.6.2,0,.4.2.5.3.2.1.3.3.4.5l2.5,4.1h-2.5c-.5,0-.8-.2-1-.5l-2-3.4c0-.2-.2-.3-.3-.3s-.3,0-.5,0h-.7Zm0-1.9h1.1c.4,0,.7,0,1-.1.3,0,.5-.2.6-.4s.3-.4.4-.6c0-.2.1-.5.1-.7,0-.5-.2-.9-.5-1.2-.3-.3-.9-.4-1.6-.4h-1.1v3.5Z" style="fill:#fff; stroke-width:0px;"/><path d="m299,38v2.1h-4.8v2.8h3.7v2h-3.7v2.8h4.8v2.1h-7.6v-11.8h7.6Z" style="fill:#fff; stroke-width:0px;"/><path d="m308.5,46.7c0,0,.1,0,.2,0,0,0,.1,0,.2.1l1.1,1.1c-.5.6-1.1,1.1-1.8,1.4-.7.3-1.6.5-2.5.5s-1.7-.2-2.4-.5c-.7-.3-1.3-.7-1.8-1.3s-.9-1.2-1.1-1.9c-.3-.7-.4-1.5-.4-2.4s.2-1.7.5-2.4c.3-.7.7-1.4,1.3-1.9.5-.5,1.2-1,1.9-1.2.8-.3,1.6-.4,2.5-.4s.9,0,1.3.1c.4,0,.8.2,1.1.3.3.1.7.3.9.5s.5.4.8.6l-.9,1.2c0,0-.1.1-.2.2,0,0-.2,0-.3,0s-.2,0-.3,0-.2,0-.3-.2c0,0-.2-.1-.3-.2-.1,0-.3-.1-.4-.2s-.3-.1-.6-.2c-.2,0-.5,0-.8,0-.5,0-1,0-1.4.3-.4.2-.8.4-1.1.8-.3.3-.5.7-.7,1.2-.2.5-.2,1-.2,1.6s0,1.1.2,1.6c.2.5.4.9.7,1.2.3.3.6.6,1,.7.4.2.8.3,1.2.3s.5,0,.7,0c.2,0,.4,0,.6-.1s.3-.1.5-.2.3-.2.5-.4c0,0,.1,0,.2-.1,0,0,.2,0,.2,0Z" style="fill:#fff; stroke-width:0px;"/><circle cx="296" cy="75.2" r="13.5" style="fill:#d80000; stroke-width:0px;"/><path d="m264.6,129.6l10,21.1s.9,1.8,0,3.3-6.9,9.3-6.9,9.3c0,0-2.2,2.2-5.9,1.9-3.8-.3-11.2-1.9-11.2-1.9l-8.8-22.2,12.5-12,10.3.4Z" style="fill:#444; stroke-width:0px;"/><path d="m303.8,66.2c-2.2-2-5.1-3.2-8.2-3.2-6.8,0-12.3,5.5-12.3,12.3s1.2,6,3.2,8.2l17.4-17.4Z" style="fill:#ff4848; stroke-width:0px;"/><path d="m264.6,129.6s-7.2-17.1-18.4-12.1c-11.3,5-4.4,23.8-4.4,23.8l10.3.6s4.7.6,6.6-2.5l5.9-9.8Z" style="fill:#919191; stroke-width:0px;"/><ellipse cx="267" cy="171" rx="13" ry="5" style="fill:#191919; stroke-width:0px;"/><ellipse cx="252" cy="148.5" rx="4" ry="1.5" style="fill:#191919; stroke-width:0px;"/><ellipse cx="255" cy="153.5" rx="4" ry="1.5" style="fill:#191919; stroke-width:0px;"/><path d="m41.3,125.6s113.5-23.2,187.7-2.7c0,0-23,72.1-13,135.1,0,0-120.1,13.2-178.2,1.6,0,0-6.3-33.1,3.6-134Z" style="fill:#0eb8e4; stroke-width:0px;"/><path d="m320.8,161.9s-10.6-6.2-14-13.7l2.6-2.5s6.1,11.1,11.2,11.1l1,2.5-.8,2.5Z" style="fill:#474747; stroke-width:0px;"/></g></svg>