<?xml version="1.0" encoding="UTF-8"?><svg id="Layer_1" xmlns="http://www.w3.org/2000/svg" xmlns:xlink="http://www.w3.org/1999/xlink" viewBox="0 0 207.1 299.8"><defs><style>.cls-1{fill:#58a6ea;}.cls-2{fill:#0eb8e3;}.cls-3{fill:url(#radial-gradient-2);}.cls-4{fill:url(#radial-gradient);}.cls-5{fill:#4f4f4f;}.cls-6{fill:#08090c;}.cls-7{fill:#fff;}.cls-8{stroke:#4f4f4f;stroke-width:2px;}.cls-8,.cls-9{fill:none;stroke-miterlimit:10;}.cls-9{stroke:#0eb8e3;}</style><radialGradient id="radial-gradient" cx="100.8" cy="-700" fx="100.8" fy="-700" r="99.4" gradientTransform="translate(0 -476) scale(1 -1)" gradientUnits="userSpaceOnUse"><stop offset="0" stop-color="#08090c"/><stop offset=".8" stop-color="#21232a"/></radialGradient><radialGradient id="radial-gradient-2" cx="79.32" cy="1283.51" fx="79.32" fy="1283.51" r="70.69" gradientTransform="translate(-.18 -751.08) rotate(-.17) scale(1 .66)" gradientUnits="userSpaceOnUse"><stop offset="0" stop-color="#58a6ea"/><stop offset=".16" stop-color="#4780b3"/><stop offset=".32" stop-color="#365b7f"/><stop offset=".48" stop-color="#293f56"/><stop offset=".62" stop-color="#202a38"/><stop offset=".74" stop-color="#1a1d26"/><stop offset=".83" stop-color="#181920"/></radialGradient></defs><g id="a"><rect class="cls-4" y="223.5" width="207.1" height="76.3"/></g><g id="c"><path class="cls-2" d="M78.6,25l41.8,1.5-.9,19.3s-18,3.2-42.1-1.7l1.2-19.1h0Z"/><path class="cls-2" d="M119.4,46.7v5.4s-10.9.2-42.1-1.1v-5.4s15.3,5.1,42.1,1.1Z"/><polygon class="cls-7" points="80.6 27 90.7 27.7 91.1 42.5 80.6 41.6 80.6 27"/><polygon class="cls-7" points="95.1 27.6 106.3 28.2 105.6 42.1 95.1 41.2 95.1 27.6"/><circle class="cls-2" cx="89.5" cy="2.6" r="2.6"/><path class="cls-9" d="M89.5,2.6s11,2.7,10.1,23.1"/><path class="cls-5" d="M52.7,53.5s-28,39.2-31.5,59.8,21.1,19.4,21.1,19.4l-3.8-5.8s-32.7,1.3,4.5-47.3l13.5-15.4-3.8-10.8v.1Z"/><path class="cls-5" d="M146.4,53.5s37.6,46.1,24.9,59.8-22.7,4.2-22.7,4.2l2.2-5.3s27.1,7.3,17.8-15.9-25.7-35.7-25.7-35.7l3.5-7.1Z"/><polygon class="cls-2" points="52.7 53.5 146.4 53.5 141.9 123.8 55 123.8 52.7 53.5"/><path class="cls-8" d="M136.7,119.8s-1.1,65.4,0,113.1h-10.7"/><path class="cls-8" d="M59.7,122.3s-2.5,46.2-2,112.8h-10.4"/><polygon class="cls-6" points="38.4 61.4 151.4 59.5 150.3 130.1 39.1 131.5 38.4 61.4"/><polygon class="cls-3" points="37.6 61.3 149.8 59.5 148.7 128.2 38.4 129.6 37.6 61.3"/><path class="cls-5" d="M43,119.8s-1.9,6.9,4.8,12.4l-4.7,1.8s-5.5-.9-7.2-8.8c0,0,2.8-3.6,7.1-5.4Z"/><path class="cls-5" d="M46.1,116.3l1.6,1.3s-7.7,6.8-9.1,10.7l-1.9-4s.9-2.1,9.3-8h.1Z"/><path class="cls-5" d="M52.6,123.8l1.9,1s-4.8,8.2-8.6,7.9l-2.2-2.8s5.9-.5,8.9-6.1Z"/><path class="cls-5" d="M151.8,118.9s-2.9.8-6.2.4c0,0,3.2-8.2,3.1-12,0,0,4.1,2.5,5.4,3.9,0,0,.5,4.3-2.3,7.7Z"/><path class="cls-5" d="M147.3,119.4s-4.1.9-9.1-3.1c0,0,1.1-.7,1.5-1.7,0,0,4.2,2.8,7.5.7v4.1h.1Z"/><path class="cls-5" d="M149.9,108s-6.9-4.3-8.9-4.1c0,0,.4,1.4.5,2,0,0,4.5,1.2,7.8,4.7l.7-2.6h-.1Z"/></g><g id="d"><polygon class="cls-1" points="113.9 103.3 74.4 103.3 74.4 114.8 49.9 94.1 75.5 72.3 75.5 80.4 113.9 81 113.9 103.3"/></g><path d="M114.35,48.35s-6.8,11.6-6.8,15.6c0,7.2-3.5,13.5-16.9,13.6,0,0,4.4-5.7-6.1-13.2,0,0-9.4-10-6.8-17.7,0,0,16.4,4.9,36.6,1.6v.1Z"/><path d="M92.35,44.15s-6.5-1.1-12.4-.4c0,0,7.5,1.9,12.1,1.8,0,0,1.1-.2.4-1.4h-.1Z"/><path d="M94.05,44.25s6.6-.1,12.4,1.4c0,0-7.7.8-12.2,0,0,0-1-.4-.2-1.4Z"/></svg>