<?xml version="1.0" encoding="UTF-8"?><svg id="a" xmlns="http://www.w3.org/2000/svg" xmlns:xlink="http://www.w3.org/1999/xlink" viewBox="0 0 271 254"><defs><linearGradient id="b" x1="19.9" y1="217.7" x2="266" y2="217.7" gradientUnits="userSpaceOnUse"><stop offset="0" stop-color="#fff"/><stop offset=".5" stop-color="#787878"/><stop offset="1" stop-color="#fff"/></linearGradient><radialGradient id="c" cx="98.5" cy="182.8" fx="98.5" fy="182.8" r="91.5" gradientTransform="translate(11.2) scale(1.3 1)" gradientUnits="userSpaceOnUse"><stop offset="0" stop-color="#b7b7b7"/><stop offset=".9" stop-color="#fff"/></radialGradient></defs><line x1="181.9" y1="74.7" x2="173" y2="69" style="fill:none; stroke:#464646; stroke-miterlimit:10; stroke-width:3px;"/><path d="m89.4,50.9l84.8,6.4-1.9,41.6s-34.8,2.6-87.4-7.8l4.6-40.3Z" style="fill:#0eb8e3;"/><path d="m172.5,100.5l-.2,8.6s-23.1-1.1-88.4-3.8l.9-11.3s71.5,13.2,87.7,6.5Z" style="fill:#0eb8e3;"/><polygon points="146.8 62.9 169.4 62.9 167.5 90.2 145.9 87.4 146.8 62.9" style="fill:#fff;"/><circle cx="130.6" cy="5.5" r="5.5" style="fill:#0eb8e3;"/><path d="m129.4,61.7s6.1-9.8,1.2-56.2" style="fill:none; stroke:#0eb8e3; stroke-miterlimit:10; stroke-width:3px;"/><polygon points="117.7 59.2 141.2 62.9 139.3 88.3 117.7 89.9 117.7 59.2" style="fill:#fff;"/><polygon points="107.9 71.2 144.6 75 140.8 92.9 110.5 90.5 107.9 71.2" style="fill:none; stroke:#424242; stroke-miterlimit:10; stroke-width:3px;"/><polygon points="146.4 75 180.5 74.5 177.4 92.9 149 93.1 146.4 75" style="fill:none; stroke:#424242; stroke-miterlimit:10; stroke-width:3px;"/><polygon points="40.1 108.9 192 114.7 185.4 195.6 43.4 193.7 40.1 108.9" style="fill:#0eb8e3;"/><path d="m76.1,182c0,.2,0,.5,0,.7h12.4c0-.2,0-.5,0-.7,0-16.5,13-30,29-30s29,13.4,29,30,0,.5,0,.7h12.4c0-.2,0-.5,0-.7,0-5.8-1.1-11.4-3.2-16.4l7.3-4.3-11.8-16-4.8,6.2c-3.8-3.9-8.4-7-13.4-9.1l4.4-8.4-19.9-4.4v9.7c-5.4,0-10.5,1.1-15.2,3l-2.7-8.2-16.9,11.5,7,5c-4,3.8-7.3,8.4-9.6,13.6l-7.7-2.8-2.8,18.8h6.7c0,.6,0,1.3,0,2Z" style="fill:#76d5ee;"/><rect x="19.9" y="181.8" width="246.2" height="71.8" style="fill:url(#b);"/><rect x="16" y="182.3" width="255" height="71.8" style="fill:url(#c);"/><path d="m40.6,109.3S-.9,162.6,0,189.9c.9,26.3,83-88.9,83-88.9l-5-12S-13,194,25,152l18.2-19.9-2.6-22.9Z" style="fill:#464646;"/><path d="m95,125.2s54.3,17.6,85.9,5.8c0,0-13.6,43.8-16.9,72.2,0,0-31,7.6-66.4-1.9,0,0,11.2-36.3-2.6-76Z" style="fill:#f7f7f7;"/><path d="m191.8,114.9s64.2,75.1,39.8,92c-15.7,10.9-60.8-28.6-60.8-28.6l9.1-9s48.9,41.4,48.9,26.3c0-26.3-38.7-65.2-38.7-65.2l1.7-15.5Z" style="fill:#464646;"/><path d="m174.9,183.8s-5.6-.8-10.9-4.1c0,0,11.8-11.5,14.6-18,0,0,5,7.3,6.1,10.8,0,0-2.5,7.6-9.8,11.3Z" style="fill:#464646;"/><path d="m166.7,181.1s-7.6-1.6-13-12.3c0,0,2.4-.4,4-1.7,0,0,4.9,7.9,12.2,7.1l-3.2,6.9Z" style="fill:#464646;"/><path d="m180,163.7s-8.5-12.6-12-13.8c0,0-.5,2.7-.8,3.8,0,0,6.7,5.6,9.5,14l3.3-3.9Z" style="fill:#464646;"/><path d="m89.1,73s-10.4,6.5-13,17c0,0,0,7.8,6.5,13,0,0,7.8-9.1,14.4-11.7,0,0-6.5-7.8-7.8-18.3Z" style="fill:#464646;"/><path d="m86.5,76.3s6.6-13.3,18.6-11.3l1.8,2.7s-10.8-1.7-17.8,12.3l-2.6-3.7Z" style="fill:#464646;"/><path d="m91.1,87.2s7.4-7,14.7-6.1l-.4-4.1s-7.3-1-17.3,6l3.1,4.2Z" style="fill:#464646;"/><line x1="107.9" y1="71.2" x2="84.5" y2="61.5" style="fill:none; stroke:#464646; stroke-miterlimit:10; stroke-width:3px;"/></svg>