<?xml version="1.0" encoding="utf-8"?>
<!-- Generator: Adobe Illustrator 27.9.4, SVG Export Plug-In . SVG Version: 9.03 Build 54784)  -->
<svg version="1.1" id="a" xmlns="http://www.w3.org/2000/svg" xmlns:xlink="http://www.w3.org/1999/xlink" x="0px" y="0px"
	 viewBox="0 0 271 254" style="enable-background:new 0 0 271 254;" xml:space="preserve">
<style type="text/css">
	.st0{display:none;fill:#21232A;}
	.st1{fill:url(#SVGID_1_);}
	.st2{fill:#513525;}
	.st3{fill:#7C7C7C;}
	.st4{fill:url(#SVGID_00000010995464916534438190000001180723238417778594_);}
	.st5{fill:none;stroke:#4F4F4F;stroke-width:3;stroke-miterlimit:10;}
	.st6{fill:#0EB8E3;}
	.st7{fill:#FFFFFF;}
	.st8{fill:none;stroke:#0EB8E3;stroke-width:3;stroke-miterlimit:10;}
	.st9{fill:#76D5EE;}
	.st10{fill:url(#SVGID_00000051384493475163115350000011254519509957243825_);}
	.st11{fill:url(#SVGID_00000089562237370470890850000012001513296440546716_);}
	.st12{opacity:0.67;fill:#FFF6D2;enable-background:new    ;}
	.st13{fill:#4F4F4F;}
	.st14{fill:url(#SVGID_00000173876577017286184720000010695052912043265962_);}
	.st15{display:none;fill:#FFF19F;}
	.st16{display:none;opacity:0.9;fill:#FFF6D2;enable-background:new    ;}
</style>
<rect x="-3.7" y="-3.6" class="st0" width="278.5" height="260.8"/>
<linearGradient id="SVGID_1_" gradientUnits="userSpaceOnUse" x1="28.7869" y1="872.8428" x2="30.3067" y2="1070.6536" gradientTransform="matrix(1 0 0 1 0 -824)">
	<stop  offset="0" style="stop-color:#EAD77A"/>
	<stop  offset="5.792579e-02" style="stop-color:#D0C070"/>
	<stop  offset="0.2096" style="stop-color:#938957"/>
	<stop  offset="0.3484" style="stop-color:#625D44"/>
	<stop  offset="0.4696" style="stop-color:#3E3D36"/>
	<stop  offset="0.5685" style="stop-color:#292A2D"/>
	<stop  offset="0.6328" style="stop-color:#21232A"/>
</linearGradient>
<polygon class="st1" points="-20,68 -65.5,181.3 125.1,180.1 75.7,68 "/>
<rect x="24.9" y="63.8" class="st2" width="5.9" height="117.5"/>
<rect x="10.4" y="175.2" class="st3" width="34.9" height="6.1"/>
<radialGradient id="SVGID_00000002364800833230930510000011560310149747798922_" cx="27.85" cy="863.45" r="39.4" gradientTransform="matrix(1 0 0 1 0 -824)" gradientUnits="userSpaceOnUse">
	<stop  offset="0" style="stop-color:#994FA8"/>
	<stop  offset="0.624" style="stop-color:#6F4080"/>
	<stop  offset="1" style="stop-color:#5B386D"/>
</radialGradient>
<polygon style="fill:url(#SVGID_00000002364800833230930510000011560310149747798922_);" points="75.7,68 -20,68 2.4,10.9 
	51.6,10.9 "/>
<line class="st5" x1="181.9" y1="74.7" x2="173" y2="69"/>
<path class="st6" d="M89.4,50.9l84.8,6.4l-1.9,41.6c0,0-34.8,2.6-87.4-7.8l4.6-40.3L89.4,50.9z"/>
<path class="st6" d="M172.5,100.5l-0.2,8.6c0,0-23.1-1.1-88.4-3.8L84.8,94C84.8,94,156.3,107.2,172.5,100.5z"/>
<g>
	
		<image style="overflow:visible;opacity:0.75;enable-background:new    ;" width="55" height="59" xlink:href="E326018C3148788.png"  transform="matrix(1 0 0 1 130 47)">
	</image>
	<g>
		<g>
			<polygon class="st7" points="146.8,62.9 169.4,62.9 167.5,90.2 145.9,87.4 			"/>
		</g>
	</g>
</g>
<circle class="st6" cx="130.6" cy="5.5" r="5.5"/>
<path class="st8" d="M129.4,61.7c0,0,6.1-9.8,1.2-56.2"/>
<g>
	
		<image style="overflow:visible;opacity:0.75;enable-background:new    ;" width="55" height="61" xlink:href="E326018C3148789.png"  transform="matrix(1 0 0 1 102 44)">
	</image>
	<g>
		<g>
			<polygon class="st7" points="117.7,59.2 141.2,62.9 139.3,88.3 117.7,89.9 			"/>
		</g>
	</g>
</g>
<polygon class="st5" points="107.9,71.2 144.6,75 140.8,92.9 110.5,90.5 "/>
<polygon class="st5" points="146.4,75 180.5,74.5 177.4,92.9 149,93.1 "/>
<polygon class="st6" points="40.1,108.9 192,114.7 185.4,195.6 43.4,193.7 "/>
<path class="st9" d="M76.1,182c0,0.2,0,0.5,0,0.7h12.4c0-0.2,0-0.5,0-0.7c0-16.5,13-30,29-30s29,13.4,29,30s0,0.5,0,0.7h12.4
	c0-0.2,0-0.5,0-0.7c0-5.8-1.1-11.4-3.2-16.4l7.3-4.3l-11.8-16l-4.8,6.2c-3.8-3.9-8.4-7-13.4-9.1l4.4-8.4l-19.9-4.4v9.7
	c-5.4,0-10.5,1.1-15.2,3l-2.7-8.2l-16.9,11.5l7,5c-4,3.8-7.3,8.4-9.6,13.6l-7.7-2.8l-2.8,18.8h6.7c0,0.6,0,1.3,0,2L76.1,182z"/>
<linearGradient id="SVGID_00000165211044145641008920000002234285726571718071_" gradientUnits="userSpaceOnUse" x1="19.9" y1="-1609.7" x2="266.1" y2="-1609.7" gradientTransform="matrix(1 0 0 -1 0 -1392)">
	<stop  offset="0" style="stop-color:#21232A"/>
	<stop  offset="0.5" style="stop-color:#08090C"/>
	<stop  offset="1" style="stop-color:#21232A"/>
</linearGradient>
<rect x="19.9" y="181.8" style="fill:url(#SVGID_00000165211044145641008920000002234285726571718071_);" width="246.2" height="71.8"/>
<radialGradient id="SVGID_00000047033226092228872950000008268282000576285587_" cx="-852.269" cy="-1574.8" r="91.5" gradientTransform="matrix(1.3 0 0 -1 1247.1998 -1392)" gradientUnits="userSpaceOnUse">
	<stop  offset="0" style="stop-color:#08090C"/>
	<stop  offset="0.9" style="stop-color:#21232A"/>
</radialGradient>
<rect x="16" y="182.3" style="fill:url(#SVGID_00000047033226092228872950000008268282000576285587_);" width="255" height="71.8"/>
<polygon class="st12" points="41.2,114.6 40.1,109.9 40.1,108.9 77.8,110.3 42.1,110.2 "/>
<path class="st13" d="M40.6,109.3c0,0-41.5,53.3-40.6,80.6C0.9,216.2,83,101,83,101l-5-12c0,0-91,105-53,63l18.2-19.9L40.6,109.3
	L40.6,109.3z"/>
<polygon class="st12" points="84.3,95.7 91.9,52.1 129.4,53.9 89.5,50.8 "/>
<linearGradient id="SVGID_00000021797553092396360590000002221644231106363820_" gradientUnits="userSpaceOnUse" x1="138.3888" y1="45.2191" x2="137.9326" y2="131.1179" gradientTransform="matrix(1 0 0 -1 0 256)">
	<stop  offset="0" style="stop-color:#C4CED6"/>
	<stop  offset="1" style="stop-color:#EDEFF2"/>
</linearGradient>
<path style="fill:url(#SVGID_00000021797553092396360590000002221644231106363820_);" d="M95,125.2c0,0,54.3,17.6,85.9,5.8
	c0,0-13.6,43.8-16.9,72.2c0,0-31,7.6-66.4-1.9c0,0,11.2-36.3-2.6-76V125.2z"/>
<path class="st13" d="M191.8,114.9c0,0,64.2,75.1,39.8,92c-15.7,10.9-60.8-28.6-60.8-28.6l9.1-9c0,0,48.9,41.4,48.9,26.3
	c0-26.3-38.7-65.2-38.7-65.2L191.8,114.9L191.8,114.9z"/>
<path class="st13" d="M174.9,183.8c0,0-5.6-0.8-10.9-4.1c0,0,11.8-11.5,14.6-18c0,0,5,7.3,6.1,10.8
	C184.7,172.5,182.2,180.1,174.9,183.8L174.9,183.8z"/>
<path class="st13" d="M166.7,181.1c0,0-7.6-1.6-13-12.3c0,0,2.4-0.4,4-1.7c0,0,4.9,7.9,12.2,7.1L166.7,181.1z"/>
<path class="st13" d="M180,163.7c0,0-8.5-12.6-12-13.8c0,0-0.5,2.7-0.8,3.8c0,0,6.7,5.6,9.5,14l3.3-3.9V163.7z"/>
<path class="st13" d="M89.1,73c0,0-10.4,6.5-13,17c0,0,0,7.8,6.5,13c0,0,7.8-9.1,14.4-11.7C97,91.3,90.5,83.5,89.1,73L89.1,73z"/>
<path class="st13" d="M86.5,76.3c0,0,6.6-13.3,18.6-11.3l1.8,2.7c0,0-10.8-1.7-17.8,12.3C89.1,80,86.5,76.3,86.5,76.3z"/>
<path class="st13" d="M91.1,87.2c0,0,7.4-7,14.7-6.1l-0.4-4.1c0,0-7.3-1-17.3,6L91.1,87.2L91.1,87.2z"/>
<line class="st5" x1="107.9" y1="71.2" x2="84.5" y2="61.5"/>
<circle class="st15" cx="218.5" cy="44.2" r="17.3"/>
<path class="st15" d="M224.6,71.9h-11.8c-2.2,0-3.9-1.8-3.9-3.9l-0.9-6.7c-1.1-4.6-2-4.8-2.5-6.2l1.6,0.2v-3.5
	c0-1.9,1.6-3.5,3.5-3.5h14.1c2.2,0,5.1,1.9,5.1,4.1l2.9,1.7l0,0c-1.7,3.3-3.3,8-3.8,11.7l-0.3,2.3C228.6,70.1,226.8,71.9,224.6,71.9
	z"/>
<path class="st12" d="M15.8,161.9c0,0-5.1,6-7.1,11.8c-2.1,5.8,69.8-80.6,69.8-80.6s1.3-11.5,9.7-16.1c0,0-0.7-1.6,5.4-9
	c0,0-0.9-0.1-6.5,6.5c0,0-7.7,5.6-10.3,13.5l-0.6,2v1.2C76.1,91.2,30.6,142.9,15.8,161.9z"/>
<path class="st12" d="M127.4,1c0,0-2.6,5.9,3.2,10c0,0,1.3,8.9,0.4,25.8c0,0,0.1-9.3-1.4-25.9c0,0-4-0.5-4.5-5
	C124.7,1.7,129.6-0.2,127.4,1z"/>
<path class="st12" d="M40.6,109.3c0,0-18.3,22.1-33.4,53.8c0,0,30.3-47.6,33.8-50.3L40.6,109.3z"/>
<polygon class="st12" points="83.9,62.9 85.1,60.2 97.8,65.4 85.4,61.3 "/>
<path class="st12" d="M191.8,114.9c0,0,10.9,12.1,26.5,35.6c0,0-24.1-31-26.7-33.5L191.8,114.9z"/>
<polygon class="st12" points="177.3,114.1 192,114.7 192,115.1 191.6,117 "/>
<path class="st16" d="M159.2,120.5l-46.2-1.4c0,0-2-0.3-4.1,1.4c-1,0.8-1.9,2.2-2.1,4.2l-3.9,59.1l6.6-59.2c0,0,0.1-3.7,3.5-3.7
	L159.2,120.5z"/>
<polygon class="st12" points="139.6,91.3 142.8,76.3 144.3,76.5 "/>
<polygon class="st12" points="176.1,91.4 178.7,76 180.5,76 "/>
</svg>
