<?xml version="1.0" encoding="UTF-8"?><svg id="a" xmlns="http://www.w3.org/2000/svg" xmlns:xlink="http://www.w3.org/1999/xlink" viewBox="0 0 207.1 294.1"><defs><radialGradient id="c" cx="100.8" cy="70.3" fx="100.8" fy="70.3" r="99.4" gradientTransform="translate(0 288.5) scale(1 -1)" gradientUnits="userSpaceOnUse"><stop offset="0" stop-color="#e1e1e1"/><stop offset=".8" stop-color="#fff"/></radialGradient></defs><g id="b"><rect y="217.8" width="207.1" height="76.3" style="fill:url(#c); stroke-width:0px;"/></g><g id="d"><path d="m133.7,123.4s1.3,65.4,0,113.1h12.3" style="fill:none; stroke:#464646; stroke-miterlimit:10; stroke-width:2px;"/><path d="m60.7,125.9s1.1,46.2.9,112.8h4.5" style="fill:none; stroke:#464646; stroke-miterlimit:10; stroke-width:2px;"/><path d="m74.6,25.8l41.8-2,.7,19.3s-17.7,4.7-42.1,1.8l-.3-19h-.1Z" style="fill:#0eb8e3; stroke-width:0px;"/><path d="m117.1,44.1l.5,5.4s-10.8,1.1-42,2.4l-.5-5.4s15.7,3.8,42-2.4Z" style="fill:#0eb8e3; stroke-width:0px;"/><polygon points="89.6 30.8 100.4 30.3 100.7 43.5 90.1 43.5 89.6 30.8" style="fill:#fff; stroke-width:0px;"/><polygon points="104.9 29.9 113.5 28.5 113.5 41.3 104.8 42.3 104.9 29.9" style="fill:#fff; stroke-width:0px;"/><circle cx="83.6" cy="2.6" r="2.6" style="fill:#0eb8e3; stroke-width:0px;"/><path d="m83.6,2.6s11.2,1.8,12,22.2" style="fill:none; stroke:#0eb8e3; stroke-miterlimit:10;"/><polygon points="55.2 58.9 142.9 49 140.9 127.4 56 127.4 55.2 58.9" style="fill:#0eb8e3; stroke-width:0px;"/><path d="m126.1,91.7c0-.8.1-1.6.1-2.4s0-1.6-.1-2.4l-4.4-1.1c-.3-1.9-.8-3.7-1.5-5.4l3.3-3.2c-.7-1.4-1.5-2.8-2.4-4.1l-4.4,1.3c-1.2-1.5-2.5-2.8-4-4l1.3-4.4c-1.3-.9-2.7-1.7-4.1-2.4l-3.2,3.3c-1.7-.7-3.6-1.2-5.4-1.5l-1.1-4.4c-.8,0-1.6-.1-2.4-.1s-1.6,0-2.4.1l-1.1,4.4c-1.9.3-3.7.8-5.4,1.5l-3.2-3.3c-1.4.7-2.8,1.5-4.1,2.4l1.3,4.4c-1.5,1.2-2.8,2.5-4,4l-4.4-1.3c-.9,1.3-1.7,2.7-2.4,4.1l3.3,3.2c-.7,1.7-1.2,3.6-1.5,5.4l-4.4,1.1c0,.8-.1,1.6-.1,2.4s0,1.6.1,2.4l4.4,1.1c.3,1.9.8,3.7,1.5,5.4l-3.3,3.2c.7,1.4,1.5,2.8,2.4,4.1l4.4-1.3c1.2,1.5,2.5,2.8,4,4l-1.3,4.4c1.3.9,2.7,1.7,4.1,2.4l3.2-3.3c1.7.7,3.6,1.2,5.4,1.5l1.1,4.4c.8,0,1.6.1,2.4.1s1.6,0,2.4-.1l1.1-4.4c1.9-.3,3.7-.8,5.4-1.5l3.2,3.3c1.4-.7,2.8-1.5,4.1-2.4l-1.3-4.4c1.5-1.2,2.8-2.5,4-4l4.4,1.3c.9-1.3,1.7-2.7,2.4-4.1l-3.3-3.2c.7-1.7,1.2-3.6,1.5-5.4l4.4-1.1Zm-28.3,15.6c-9.9,0-18-8-18-18s8-18,18-18,18,8,18,18-8,18-18,18Z" style="fill:#a4e1ff; stroke-width:0px;"/><path d="m55.3,59.5s-28,40.5-31.5,61.1,50.8-3.5,50.8-3.5l-3.8-5.8S0,146.9,45.6,86.9l9.8-14.4v-11.8c0,0,0-1.2,0-1.2Z" style="fill:#464646; stroke-width:0px;"/><path d="m142.9,49s42.1,54.2,29.4,67.9-76,19.4-76,19.4l-.4-5.4s82.1-5.7,72.8-28.9-26.2-37.6-26.2-37.6c0,0,.4-15.5.4-15.5Z" style="fill:#464646; stroke-width:0px;"/><polygon points="150.3 250.5 146.4 250.1 99.5 259.3 99.5 268.2 100.3 270.1 147.3 254.1 150.3 250.5" style="fill:#3d290e; stroke-width:0px;"/><polygon points="153.5 265.6 102 275.1 102.8 266.3 151.5 256.1 153.5 265.6" style="fill:#353535; stroke-width:0px;"/><rect x="96.6" y="77.6" width="5" height="188.5" transform="translate(-45.2 35.7) rotate(-16.7)" style="fill:#7f551c; stroke-width:0px;"/><polygon points="150.3 250.5 100.3 259.9 100.3 270.1 154.3 259.3 150.3 250.5" style="fill:#7f551c; stroke-width:0px;"/><path d="m75.4,105.6s-1.9,6.9,4.8,12.4l-4.7,1.8s-5.5-.9-7.2-8.8c0,0,2.8-3.6,7.1-5.4Z" style="fill:#464646; stroke-width:0px;"/><path d="m78.5,102.1l1.6,1.3s-7.7,6.8-9.1,10.7l-1.9-4s.9-2.1,9.3-8h.1Z" style="fill:#464646; stroke-width:0px;"/><path d="m85,109.6l1.9,1s-4.8,8.2-8.6,7.9l-2.2-2.8s5.9-.5,8.9-6.1Z" style="fill:#464646; stroke-width:0px;"/><path d="m97.7,137.5s-2.1,2.1-5.2,3.5c0,0-1.3-8.7-3.3-11.9,0,0,4.8.1,6.6.7,0,0,2.6,3.5,1.9,7.8Z" style="fill:#464646; stroke-width:0px;"/><path d="m94.1,140.2s-3.1,2.8-9.4,1.9c0,0,.6-1.2.4-2.2,0,0,5,.3,6.8-3.2l2.1,3.5h0Z" style="fill:#464646; stroke-width:0px;"/><path d="m90.6,129s-8.1-.3-9.8.9c0,0,1,1,1.4,1.5,0,0,4.5-1.2,9.1.2l-.7-2.6h0Z" style="fill:#464646; stroke-width:0px;"/></g><path d="m99.3,273.3s-33.2,1.7-29.1-13.2,15.8-14.3,15.8-14.3c0,0,6.3-1.1,9.1,9s-5.7,11.2-5.7,11.2c0,0-3.6,6.5,9.9,7.3Z" style="fill:#afafaf; stroke-width:0px;"/></svg>