<?xml version="1.0" encoding="utf-8"?>
<!-- Generator: Adobe Illustrator 27.9.4, SVG Export Plug-In . SVG Version: 9.03 Build 54784)  -->
<svg version="1.1" id="a" xmlns="http://www.w3.org/2000/svg" xmlns:xlink="http://www.w3.org/1999/xlink" x="0px" y="0px"
	 viewBox="0 0 207.1 294.1" style="enable-background:new 0 0 207.1 294.1;" xml:space="preserve">
<style type="text/css">
	.st0{display:none;fill:#20232A;}
	.st1{fill:url(#SVGID_1_);}
	.st2{fill:none;stroke:#4F4F4F;stroke-width:2;stroke-miterlimit:10;}
	.st3{fill:#0EB8E3;}
	.st4{fill:#FFFFFF;}
	.st5{fill:none;stroke:#0EB8E3;stroke-miterlimit:10;}
	.st6{fill:#A4E1FF;}
	.st7{fill:#4F4F4F;}
	.st8{fill:#442E13;}
	.st9{fill:#AAAAAA;}
	.st10{fill:#895E2B;}
	.st11{opacity:0.5;fill:#AFAFAF;}
</style>
<g id="b">
	<rect x="-3.9" y="-3.4" class="st0" width="213.7" height="300.4"/>
	
		<radialGradient id="SVGID_1_" cx="100.8" cy="1009.7" r="99.4" gradientTransform="matrix(1 0 0 1 0 -791.5)" gradientUnits="userSpaceOnUse">
		<stop  offset="0" style="stop-color:#08090C"/>
		<stop  offset="0.8" style="stop-color:#21232A"/>
	</radialGradient>
	<rect y="217.8" class="st1" width="207.1" height="76.3"/>
</g>
<g id="d">
	<path class="st2" d="M133.7,123.4c0,0,1.3,65.4,0,113.1H146"/>
	<path class="st2" d="M60.7,125.9c0,0,1.1,46.2,0.9,112.8h4.5"/>
	<path class="st3" d="M74.6,25.8l41.8-2l0.7,19.3c0,0-17.7,4.7-42.1,1.8L74.6,25.8L74.6,25.8L74.6,25.8z"/>
	<path class="st3" d="M117.1,44.1l0.5,5.4c0,0-10.8,1.1-42,2.4l-0.5-5.4C75.1,46.5,90.8,50.3,117.1,44.1z"/>
	<polygon class="st4" points="89.6,30.8 100.4,30.3 100.7,43.5 90.1,43.5 	"/>
	<polygon class="st4" points="104.9,29.9 113.5,28.5 113.5,41.3 104.8,42.3 	"/>
	<circle class="st3" cx="83.6" cy="2.6" r="2.6"/>
	<path class="st5" d="M83.6,2.6c0,0,11.2,1.8,12,22.2"/>
	<polygon class="st3" points="55.2,58.9 142.9,49 140.9,127.4 56,127.4 	"/>
	<path class="st6" d="M126.1,91.7c0-0.8,0.1-1.6,0.1-2.4s0-1.6-0.1-2.4l-4.4-1.1c-0.3-1.9-0.8-3.7-1.5-5.4l3.3-3.2
		c-0.7-1.4-1.5-2.8-2.4-4.1l-4.4,1.3c-1.2-1.5-2.5-2.8-4-4L114,66c-1.3-0.9-2.7-1.7-4.1-2.4l-3.2,3.3c-1.7-0.7-3.6-1.2-5.4-1.5
		l-1.1-4.4c-0.8,0-1.6-0.1-2.4-0.1s-1.6,0-2.4,0.1l-1.1,4.4c-1.9,0.3-3.7,0.8-5.4,1.5l-3.2-3.3c-1.4,0.7-2.8,1.5-4.1,2.4l1.3,4.4
		c-1.5,1.2-2.8,2.5-4,4l-4.4-1.3c-0.9,1.3-1.7,2.7-2.4,4.1l3.3,3.2c-0.7,1.7-1.2,3.6-1.5,5.4l-4.4,1.1c0,0.8-0.1,1.6-0.1,2.4
		s0,1.6,0.1,2.4l4.4,1.1c0.3,1.9,0.8,3.7,1.5,5.4l-3.3,3.2c0.7,1.4,1.5,2.8,2.4,4.1l4.4-1.3c1.2,1.5,2.5,2.8,4,4l-1.3,4.4
		c1.3,0.9,2.7,1.7,4.1,2.4l3.2-3.3c1.7,0.7,3.6,1.2,5.4,1.5l1.1,4.4c0.8,0,1.6,0.1,2.4,0.1s1.6,0,2.4-0.1l1.1-4.4
		c1.9-0.3,3.7-0.8,5.4-1.5l3.2,3.3c1.4-0.7,2.8-1.5,4.1-2.4l-1.3-4.4c1.5-1.2,2.8-2.5,4-4l4.4,1.3c0.9-1.3,1.7-2.7,2.4-4.1l-3.3-3.2
		c0.7-1.7,1.2-3.6,1.5-5.4L126.1,91.7z M97.8,107.3c-9.9,0-18-8-18-18s8-18,18-18s18,8,18,18S107.8,107.3,97.8,107.3z"/>
	<path class="st7" d="M55.3,59.5c0,0-28,40.5-31.5,61.1s50.8-3.5,50.8-3.5l-3.8-5.8c0,0-70.8,35.6-25.2-24.4l9.8-14.4V60.7
		L55.3,59.5L55.3,59.5z"/>
	<path class="st7" d="M142.9,49c0,0,42.1,54.2,29.4,67.9s-76,19.4-76,19.4l-0.4-5.4c0,0,82.1-5.7,72.8-28.9s-26.2-37.6-26.2-37.6
		L142.9,49L142.9,49z"/>
	<polygon class="st8" points="150.3,250.5 146.4,250.1 99.5,259.3 99.5,268.2 100.3,270.1 147.3,254.1 	"/>
	<polygon class="st9" points="153.5,265.6 102,275.1 102.8,266.3 151.5,256.1 	"/>
	
		<rect x="96.6" y="77.6" transform="matrix(0.9578 -0.2874 0.2874 0.9578 -45.1956 35.7254)" class="st10" width="5" height="188.5"/>
	<polygon class="st10" points="150.3,250.5 100.3,259.9 100.3,270.1 154.3,259.3 	"/>
	<path class="st7" d="M75.4,105.6c0,0-1.9,6.9,4.8,12.4l-4.7,1.8c0,0-5.5-0.9-7.2-8.8C68.3,111,71.1,107.4,75.4,105.6z"/>
	<path class="st7" d="M78.5,102.1l1.6,1.3c0,0-7.7,6.8-9.1,10.7l-1.9-4C69.1,110.1,70,108,78.5,102.1L78.5,102.1z"/>
	<path class="st7" d="M85,109.6l1.9,1c0,0-4.8,8.2-8.6,7.9l-2.2-2.8C76.1,115.7,82,115.2,85,109.6z"/>
	<path class="st7" d="M97.7,137.5c0,0-2.1,2.1-5.2,3.5c0,0-1.3-8.7-3.3-11.9c0,0,4.8,0.1,6.6,0.7c0,0,2.6,3.5,1.9,7.8V137.5z"/>
	<path class="st7" d="M94.1,140.2c0,0-3.1,2.8-9.4,1.9c0,0,0.6-1.2,0.4-2.2c0,0,5,0.3,6.8-3.2L94.1,140.2L94.1,140.2L94.1,140.2z"/>
	<path class="st7" d="M90.6,129c0,0-8.1-0.3-9.8,0.9c0,0,1,1,1.4,1.5c0,0,4.5-1.2,9.1,0.2L90.6,129L90.6,129L90.6,129z"/>
</g>
<path class="st11" d="M99.3,273.3c0,0-33.2,1.7-29.1-13.2S86,245.8,86,245.8s6.3-1.1,9.1,9c2.8,10.1-5.7,11.2-5.7,11.2
	S85.8,272.5,99.3,273.3L99.3,273.3z"/>
</svg>
