<?xml version="1.0" encoding="UTF-8"?><svg id="Layer_1" xmlns="http://www.w3.org/2000/svg" xmlns:xlink="http://www.w3.org/1999/xlink" viewBox="0 0 207.1 286.18"><defs><style>.cls-1{fill:#58a6ea;}.cls-2{fill:#111;}.cls-3{fill:#0eb8e3;}.cls-4{fill:url(#radial-gradient-2);}.cls-5{fill:url(#radial-gradient);}.cls-6{fill:#464646;}.cls-7{fill:#fff;}.cls-8{stroke:#464646;stroke-width:2px;}.cls-8,.cls-9{fill:none;stroke-miterlimit:10;}.cls-9{stroke:#0eb8e3;}</style><radialGradient id="radial-gradient" cx="100.8" cy="-700.38" fx="100.8" fy="-700.38" r="99.4" gradientTransform="translate(0 -490) scale(1 -1)" gradientUnits="userSpaceOnUse"><stop offset="0" stop-color="#08090c"/><stop offset=".8" stop-color="#21232a"/></radialGradient><radialGradient id="radial-gradient-2" cx="120.35" cy="98.04" fx="120.35" fy="98.04" r="57.36" gradientTransform="translate(50.07 -70.17) rotate(18.64) scale(1 1.4)" gradientUnits="userSpaceOnUse"><stop offset=".05" stop-color="#58a6ea"/><stop offset=".16" stop-color="#4780b3"/><stop offset=".27" stop-color="#365b7f"/><stop offset=".4" stop-color="#293f56"/><stop offset=".62" stop-color="#202a38"/><stop offset=".74" stop-color="#1a1d26"/><stop offset=".83" stop-color="#181920"/></radialGradient></defs><g id="a"><rect class="cls-5" y="209.88" width="207.1" height="76.3"/></g><g id="c"><path class="cls-3" d="M82.18,23.67l41.38,6.08-3.01,19.08s-18.24,1.2-41.66-6.31l3.38-18.74-.09-.11Z"/><path class="cls-3" d="M120.35,49.72l-.59,5.37s-10.86-1-41.72-5.71l.59-5.37s14.65,6.75,41.72,5.71Z"/><polygon class="cls-7" points="83.95 25.88 93.91 27.68 92.68 42.43 82.34 40.39 83.95 25.88"/><polygon class="cls-7" points="98.29 28.06 109.36 29.89 107.14 43.63 96.8 41.58 98.29 28.06"/><circle class="cls-3" cx="95.47" cy="2.6" r="2.6"/><path class="cls-9" d="M95.47,2.6s10.64,3.89,7.5,24.07"/><path class="cls-6" d="M62.12,55.27s-31.11,26.59-33.67,40.27c-4.78,25.64,40.96,40.37,40.96,40.37l-1.5-6.77s-57.04-13.2-18.26-53.32l12.24-9.2.27-11.45-.04.09h0Z"/><path class="cls-6" d="M153.73,55.27s37.6,46.1,24.9,59.8-22.7,4.2-22.7,4.2l2.2-5.3s27.1,7.3,17.8-15.9-25.7-35.7-25.7-35.7c0,0,3.5-7.1,3.5-7.1Z"/><polygon class="cls-3" points="61.18 55.27 154.88 55.27 150.38 125.57 63.48 125.57 61.18 55.27"/><path class="cls-8" d="M143.97,125.57s-1.04,59.4.06,107.1h-10.7"/><path class="cls-8" d="M67.03,125.07s-2.5,46.2-2,112.8h-10.4"/><polygon class="cls-2" points="60.01 148.03 122.88 14.8 185.71 47.04 123.41 177.94 60.01 148.03"/><polygon class="cls-4" points="59.08 151.04 120.05 16.95 181.62 47.46 121.35 179.12 59.08 151.04"/><path class="cls-6" d="M73.77,126.77s-5.05,5.07-1.93,13.16l-4.98-.75s-4.34-3.49-1.93-11.21c0,0,4.21-1.75,8.84-1.2Z"/><path class="cls-6" d="M78.19,125.25l.75,1.92s-10.05,2.12-13.19,4.83l.32-4.42s1.82-1.38,12.03-2.38c0,0,.09.05.09.05Z"/><path class="cls-6" d="M80.16,134.98l1.16,1.81s-8.22,4.77-11.38,2.64l-.53-3.52s5.38,2.47,10.75-.92h0Z"/><path class="cls-6" d="M159.13,120.67s-2.9.8-6.2.4c0,0,3.2-8.2,3.1-12,0,0,4.1,2.5,5.4,3.9,0,0,.5,4.3-2.3,7.7Z"/><path class="cls-6" d="M154.63,121.17s-4.1.9-9.1-3.1c0,0,1.1-.7,1.5-1.7,0,0,4.2,2.8,7.5.7v4.1h.1Z"/><path class="cls-6" d="M157.23,109.77s-6.9-4.3-8.9-4.1c0,0,.4,1.4.5,2,0,0,4.5,1.2,7.8,4.7l.7-2.6h-.1Z"/></g><g id="d"><polygon class="cls-1" points="140.1 71.45 126.93 108.69 137.77 112.53 110.09 128.72 98.07 97.32 105.71 100.02 119.08 64.02 140.1 71.45"/></g></svg>