<?xml version="1.0" encoding="utf-8"?>
<!-- Generator: Adobe Illustrator 27.9.4, SVG Export Plug-In . SVG Version: 9.03 Build 54784)  -->
<svg version="1.1" xmlns="http://www.w3.org/2000/svg" xmlns:xlink="http://www.w3.org/1999/xlink" x="0px" y="0px"
	 viewBox="0 0 1024 768" style="enable-background:new 0 0 1024 768;" xml:space="preserve">
<style type="text/css">
	.st0{display:none;}
	.st1{fill:#4F4F4F;}
	.st2{display:none;opacity:0.85;fill:#999999;}
	.st3{display:none;fill:none;stroke:#000000;stroke-miterlimit:10;}
	.st4{fill:#0EB8E4;}
	.st5{fill:#FFFFFF;}
	.st6{fill:none;stroke:#000000;stroke-width:4;stroke-miterlimit:10;}
	.st7{opacity:0.38;fill:#74D5EE;}
	.st8{fill:#74D5EE;}
	.st9{opacity:0.2;fill:#74D5EE;}
</style>
<g id="image" class="st0">
</g>
<g id="kogneato" class="st0">
	
		<image style="display:inline;overflow:visible;opacity:0.7;" width="380" height="443" xlink:href="kogneato_metal_detecting.png"  transform="matrix(1.8135 0 0 1.8135 155 48)">
	</image>
</g>
<g id="arms_x26_legs">
	<path d="M418.1,364.6c0,0-12.1,27.3-9.9,53.6c2.3,26.3,1.3,52.3-2.7,59.3c-3.4,5.9-13.8,24.2-26.3,33.2c-1.7,1.2-3.9,1.4-5.7,0.5
		c-7.1-3.6-13.8-15.5-15.6-18.8c-0.3-0.5-0.5-0.9-0.8-1.4c-1.4-2.2-6.4-12.9-5.7-53.2c0-0.8-0.3-1.7-0.9-2.2l-20.1-20.1l8,1
		l14.2,17.9c0.5,0.7,0.8,1.5,0.8,2.4c-0.1,7.1-0.3,41.1,5,52.7c6,13,13,19,17,20s28-29,29-37c0,0,3.9-13.5,0.2-63.1
		c-0.2-2.1-0.1-4.3,0.2-6.4c1-7.4,3.9-25.6,11.6-45.5L418.1,364.6z"/>
	<path d="M406.9,403c-2.4,9.6-2,21.4-3.9,34c-3.5,23.6-5,47-17.2,63.8c-2.7,3.7-7.1,5.8-11.2,4.7c-3.2-0.8-6.4-4.1-8.6-12.5
		c0,0-1-6.7-15-15.4c-0.7-0.4-1.1-1.1-1.2-1.9c-0.6-4.9-2.3-23.5,1.6-38c4.5-16.8,0,0,0,0l0,0c1.1,0.5,1.7,1.8,1.3,3
		c-1.3,4.6-3.8,16.4-1.4,33.2c0.1,0.7,0.3,1.9,0.9,2.3c3,2,13.1,8.2,15.2,15.7c0,0.1,0.1,0.2,0.1,0.3c0.3,1.8,4.6,19.8,16.4,7.8
		c6.1-6.3,12.5-27,15.4-49.2c4.3-33,4-37.8,5.2-45.7c0.2-1.2,1.2-2.1,2.5-2.1h0.9"/>
	<polygon points="343,413 293,406 293,412 342.1,418.2 	"/>
	<polygon points="293,406 209,731 218,731 295.6,412.1 	"/>
	<path d="M206.8,718c-27.1,1.4-48.5,12.6-47.9,25s23.1,21.3,50.2,19.9c27.1-1.4,48.5-12.6,47.9-25
		C256.4,725.5,233.9,716.6,206.8,718z M208.8,749c-16.7,0.9-30.5-3.6-30.9-9.9c-0.3-6.4,13-12.2,29.7-13.1s30.5,3.6,30.9,9.9
		C238.8,742.3,225.5,748.1,208.8,749z"/>
	<path class="st1" d="M632,398c0,0-15,144-8,315h-23v9h36c0,0-13.5-149,5-325L632,398z"/>
	<path class="st1" d="M422,401c-0.9,1.3-11,169,0,311h-31v8h40c-7-113-5-243-1-319H422z"/>
	<path class="st2" d="M188.8,176.1c27.7-3.4,80.7,6.7,104.7,16.6c52.2,16.5,89,44,109,60.5l1.5-27.5
		c-30.2-20.2-63.7-38.8-101.5-53.5c-37.9-14.8-76.2-21.8-112.6-20.5L188.8,176.1z"/>
	<path class="st1" d="M620,151h-16.5l0.8-22c0,0-0.4-7-7.4-11l4.1-3.1c0,0,6.9,4.1,7.9,13.1h5c0,0,0-8-7-15l5-3c0,0,7,7,7,18h5
		c0,0,2-5,2-11h4c0,0,0,5-2.7,12L620,151z"/>
	<path class="st1" d="M402,219h16.1c0,0-4.1,107-85.1,193l-16-11C317,401,394,326,402,219z"/>
	<path class="st1" d="M333,412l-7,16l-22-3l5-11c0,0,12,0,4-5c0,0-4-1-6,4l-5.7-4.1c0,0,5.7-6.9,15.7-7.9L333,412z"/>
	<path class="st3" d="M418.1,351.1c0,0-13.1,44.9-11.1,73.9s0,46-2,50c-2,3.9-31.9,62-49.1,8.9c-0.6-1.8-0.9-3.7-0.8-5.6
		c0.1-9.2-1.1-42.2-3.1-44.2l-22.3-21.9"/>
	<path d="M291.9,416.1c0.3-1.2,2-1.1,2.2,0.1c1.3,5.6,3.1,16,1.5,24.8c-2.1,11.3-10.4,16.3-12.4,17.4c-0.3,0.2-0.5,0.4-0.6,0.8
		l-9.2,38.2c-0.1,0.2-0.2,0.4-0.3,0.6c-1.9,1.8-14.2,14.2-9.3,27.1c0.1,0.2,0.1,0.4,0.1,0.6c-0.4,1.7-2.4,10-10.6,18.3
		c-12,12-5.2,35.4-4.9,36.6c0,0,0,0.1,0,0.1l2.5,13.2c0,0,0,0.1,0,0.1c0.1,1.7,2.6,39.2-16.4,67.9c-0.1,0.1-0.1,0.3-0.2,0.4
		c-0.2,1.3-1.3,8.3-3.1,33.8c0,0,0.3,3.8-7.3,5.6c-0.8,0.2-1.5-0.6-1.4-1.4l0.2-0.9c0.1-0.6,0.5-1,1-1.1c1.5-0.2,4.5-0.8,5-2.3
		c0.8-2.1,2.1-30.5,3.4-33.4c1.1-2.5,8.1-14.5,12.2-27.6c0,0,0-0.1,0-0.1c0.3-1.1,5.8-26.2,4.1-39.2l-1.2-9.2c-0.2-1.5-0.5-3-1-4.5
		c-2-6.5-7.1-27.5,5.1-39.9c0.4-0.4,0.8-0.8,1.2-1.1c1.8-1.5,8.7-8.3,7.5-17.3c-1.3-10.2,4.7-21.7,11.5-26.7
		c0.2-0.2,0.4-0.4,0.4-0.7l9-38.7c0.1-0.3,0.3-0.6,0.6-0.8c2-1,9.8-5.4,11.9-16.5c0,0,0-0.1,0-0.1c0.1-0.8,1.2-12.7-1.8-23.4
		C291.8,416.5,291.8,416.3,291.9,416.1L291.9,416.1z"/>
</g>
<g id="body">
	<polygon points="463,122 491.7,122 492,168 463,167.9 	"/>
	<polygon class="st4" points="411,212 651,214 644,398 417,403 	"/>
	<path class="st4" d="M470,129l1,57c0,0,58-1,112,2l1-18h-14v-40L470,129z"/>
	<path class="st4" d="M471,188v12l112,2v-11C581.2,191.1,527,188,471,188z"/>
	<path class="st1" d="M623,142c73,12,129,50,121,76c-10,21-50,35-109,13l9-16c37,14,74,17,84-3c8-16-60-56-108-61L623,142z"/>
</g>
<g id="eyes">
	<polygon class="st5" points="476,135 503,135 504,173 478,173 	"/>
	<polygon class="st5" points="521,135 548,135 549,175 522,174 	"/>
</g>
<g id="antenna">
	<path class="st4" d="M538.9,54.6c0,3.2-2.2,6-5.1,6.8C532.1,73.6,529,131,529,131h-3c0.5-6.8,4.6-59.7,5.3-69.3
		c-3.8-0.2-6.7-3.3-6.7-7.1c0-3.9,3.2-7.1,7.1-7.1S538.9,50.7,538.9,54.6z"/>
	<polygon points="570,121 595.5,121 595.5,130 601.1,130 601,162 596,162 596,170 570,170 	"/>
	<path class="st6" d="M480,123c0,0,3-46,50-45c47,1,49,45,49,45"/>
</g>
<g id="gear">
	<path class="st7" d="M361.6,452.8L361.6,452.8L361.6,452.8L361.6,452.8l-0.1,0.1L361.6,452.8L361.6,452.8L361.6,452.8L361.6,452.8
		C361.6,452.8,361.6,452.8,361.6,452.8z M362,452.8L362,452.8L362,452.8l-0.2,0c0,0,0,0,0,0h0c0,0,0,0,0,0h0c0,0,0,0,0,0
		c0,0,0,0,0,0c0,0,0,0,0,0v0c0,0,0,0.1,0,0.1l0,0l0,0l0,0h0l0.1,0c0,0,0,0,0,0h0.2L362,452.8L362,452.8z"/>
	<path class="st7" d="M362,452.8L362,452.8L362,452.8l-0.2,0c0,0,0,0,0,0h0c0,0,0,0,0,0h0c0,0,0,0,0,0c0,0,0,0,0,0c0,0,0,0,0,0v0
		c0,0,0,0.1,0,0.1l0,0l0,0l0,0h0l0.1,0c0,0,0,0,0,0h0.2L362,452.8L362,452.8z M361.6,452.8L361.6,452.8L361.6,452.8L361.6,452.8
		l-0.1,0.1L361.6,452.8L361.6,452.8L361.6,452.8L361.6,452.8C361.6,452.8,361.6,452.8,361.6,452.8z"/>
	<path class="st7" d="M272.4,452.7C272.4,452.7,272.4,452.8,272.4,452.7L272.4,452.7l1.3,1.3L272.4,452.7z M361.6,452.8L361.6,452.8
		L361.6,452.8L361.6,452.8l-0.1,0.1L361.6,452.8L361.6,452.8L361.6,452.8L361.6,452.8C361.6,452.8,361.6,452.8,361.6,452.8z
		 M361.5,453l-2.4,1.9L361.5,453L361.5,453L361.5,453z M361.6,452.9L361.6,452.9L361.6,452.9L361.6,452.9L361.6,452.9z M361.7,452.9
		L361.7,452.9L361.7,452.9L361.7,452.9L361.7,452.9z M361.8,452.8L361.8,452.8L361.8,452.8C361.8,452.9,361.8,452.9,361.8,452.8
		L361.8,452.8c-0.1,0.1-0.2,0.2-0.2,0.2h0l0,0l0,0l0,0L361.8,452.8L361.8,452.8z M361.9,452.8L361.9,452.8l-0.1,0c0,0,0,0,0,0
		s0,0,0,0c0,0,0,0,0,0h0L361.9,452.8L361.9,452.8L361.9,452.8L361.9,452.8L361.9,452.8L361.9,452.8L361.9,452.8L361.9,452.8z"/>
	<polygon class="st7" points="339.2,440.8 339.2,441 339.2,441 339.1,441 339.2,440.9 	"/>
	<polygon class="st7" points="361.5,453 361.5,453 361.5,453 361.3,453.1 359.1,454.9 359.5,454.5 361.5,452.9 361.5,453 	"/>
	<polygon class="st7" points="361.6,453 361.6,453 361.5,453 361.6,453 	"/>
	<path class="st7" d="M361.8,452.8L361.8,452.8C361.8,452.8,361.8,452.8,361.8,452.8C361.8,452.8,361.8,452.8,361.8,452.8
		C361.8,452.8,361.8,452.8,361.8,452.8L361.8,452.8l-0.2,0.1l0,0h0v0l0-0.1L361.8,452.8L361.8,452.8L361.8,452.8L361.8,452.8
		L361.8,452.8L361.8,452.8L361.8,452.8z"/>
	<path class="st7" d="M361.9,452.8L361.9,452.8L361.9,452.8l-0.1,0v0c0,0,0,0,0,0s0,0,0,0L361.9,452.8z"/>
	<polygon class="st7" points="362,452.8 362,452.8 362,452.8 361.9,452.8 	"/>
	<path class="st7" d="M362,452.8L362,452.8L362,452.8L362,452.8L362,452.8L362,452.8c-0.1,0.1-0.1,0.1-0.1,0.1l0,0l0,0l0,0l0,0h0
		l0,0l0,0l0,0h0l0.1,0h0l0,0L362,452.8L362,452.8L362,452.8L362,452.8z"/>
	<path class="st7" d="M361.5,452.9C361.5,452.9,361.5,452.9,361.5,452.9l-2,1.6l-0.4,0.4l2.4-1.9h0L361.5,452.9L361.5,452.9
		C361.5,452.9,361.5,452.9,361.5,452.9z M339.2,441L339.2,441L339.2,441L339.2,441L339.2,441z"/>
	<path class="st7" d="M361.9,452.8L361.9,452.8l-0.1,0c0,0,0,0,0,0h0c0,0,0,0,0,0v0h0l0,0h0l0,0c0,0,0,0,0,0v0c0,0,0,0,0,0l0,0l0,0
		C361.9,452.9,361.9,452.9,361.9,452.8L361.9,452.8L361.9,452.8L361.9,452.8L361.9,452.8z M361.8,452.8
		C361.8,452.8,361.8,452.8,361.8,452.8L361.8,452.8L361.8,452.8z M361.6,452.8L361.6,452.8L361.6,452.8L361.6,452.8l-0.1,0.1
		L361.6,452.8L361.6,452.8L361.6,452.8L361.6,452.8C361.6,452.8,361.6,452.8,361.6,452.8z M361.6,453L361.6,453L361.6,453L361.6,453
		L361.6,453z M359.1,454.9l2.3-1.7l0.1-0.1L359.1,454.9z"/>
	<path class="st8" d="M580.7,282.1c-2.9-6-7-11.8-11.7-16.4l9.9-9.7c-2.9-1.5-25.8-15.2-25.8-15.2l-4.9,11.9c-6.5-2.5-14-3.9-20.5-4
		l-0.5-14.4c-3.1,0.8-28.8,5-28.8,5l5.7,13.8c-7,2.8-13.5,7-18.9,12.1l-8.8-8.3c-1.6,2.8-16.7,23.5-16.7,23.5l11.4,4.7
		c-2.8,6.8-4.5,14.6-4.6,22h-10.3c0.9,3.7,5.4,27.8,5.4,27.8l9.3-4.1c3,7.3,7.5,14,13,19.5l-6.3,7.2c2.9,1.4,22.4,14.7,22.4,14.7
		l4.9-8.3c6.7,2.6,14,4,21.6,4c0.4,0,0.8,0,1.2,0l0.6,9.5c3.2-0.8,25.9-5.3,25.9-5.3l-3.4-9.3c7.2-3.1,13.6-7.6,18.9-13.2l8.2,8.1
		c1.7-2.7,16.8-24.7,16.8-24.7l-11.5-4.9l0.1-0.1c2.2-6.2,3.6-12.8,3.6-19.7V308l10.8-0.7c-0.7-3.2-5.1-28.7-5.1-28.7L580.7,282.1
		 M527.3,352.7c-24.7,0-44.7-19.8-44.7-44.2c0-24.4,20-44.2,44.7-44.2c24.7,0,44.7,19.8,44.7,44.2C572,332.9,552,352.7,527.3,352.7z
		"/>
	<path class="st7" d="M361.6,452.8L361.6,452.8L361.6,452.8L361.6,452.8l-0.1,0.1L361.6,452.8L361.6,452.8L361.6,452.8L361.6,452.8
		C361.6,452.8,361.6,452.8,361.6,452.8z M361.7,452.9L361.7,452.9l-0.1,0.1h0.1C361.7,453,361.7,453,361.7,452.9L361.7,452.9z
		 M361.9,453l0-0.2v0l0,0h0l-0.1,0c0,0,0,0,0,0h0c0,0,0,0,0,0h0c0,0,0,0,0,0c0,0,0,0,0,0c0,0,0,0,0,0v0c0,0,0,0.1,0,0.1l0,0l0,0l0,0
		L361.9,453L361.9,453L361.9,453z M361.8,453C361.8,453,361.8,453,361.8,453L361.8,453L361.8,453L361.8,453L361.8,453z"/>
	<polygon class="st7" points="381,498.6 381,498.6 377,498.9 377,498.9 	"/>
	<path class="st7" d="M339.2,441L339.2,441L339.2,441L339.2,441L339.2,441z M361.5,453L361.5,453l-0.2,0.1l-1.6,1.5L361.5,453
		L361.5,453L361.5,453z M361.6,453L361.6,453L361.6,453L361.6,453L361.6,453z M361.6,453L361.6,453L361.6,453L361.6,453L361.6,453z
		 M361.6,453L361.6,453L361.6,453L361.6,453L361.6,453z M361.7,452.8C361.7,452.8,361.7,452.8,361.7,452.8
		C361.6,452.8,361.6,452.8,361.7,452.8L361.7,452.8l-0.2,0l0,0h0l0,0c0,0,0,0,0,0C361.5,452.9,361.5,452.9,361.7,452.8l-0.1,0.1h0
		L361.7,452.8L361.7,452.8z M361.5,453L361.5,453L361.5,453L361.5,453L361.5,453z M361.6,453L361.6,453L361.6,453L361.6,453
		L361.6,453z M361.6,453L361.6,453L361.6,453L361.6,453L361.6,453z"/>
	<path class="st7" d="M377,498.9l4-0.2v0L377,498.9z M339.2,440.9l0,0.1l0.1-0.2L339.2,440.9z M339.2,441L339.2,441L339.2,441
		L339.2,441L339.2,441z"/>
	<path class="st7" d="M361.5,453L361.5,453l-0.2,0.1l-1.6,1.5L361.5,453L361.5,453L361.5,453z M361.6,453L361.6,453L361.6,453
		L361.6,453L361.6,453z M377,498.9L377,498.9l4-0.2v0L377,498.9z"/>
	<path class="st9" d="M275,455.3l-2.6-2.5l-0.2-0.2c0,0,0.1,0,0.1-0.1l0.1,0.1l1.3,1.3L275,455.3z"/>
	<polygon class="st9" points="339.2,440.8 339.2,441 339.2,441 339.1,441 339.2,440.9 	"/>
	<path class="st9" d="M361.5,452.8C361.5,452.8,361.5,452.8,361.5,452.8C361.5,452.8,361.5,452.8,361.5,452.8L361.5,452.8"/>
	<path class="st9" d="M361.5,452.9"/>
	<path class="st9" d="M361.6,452.9L361.6,452.9L361.6,452.9C361.5,452.9,361.5,452.9,361.6,452.9c-0.1-0.1-0.1-0.1-0.1-0.1l0,0l0,0
		l0.1-0.1L361.6,452.9L361.6,452.9z"/>
	<polygon class="st9" points="381,498.6 381,498.6 377,498.9 377,498.9 	"/>
</g>
</svg>
