<?xml version="1.0" encoding="utf-8"?>
<!-- Generator: Adobe Illustrator 27.9.4, SVG Export Plug-In . SVG Version: 9.03 Build 54784)  -->
<svg version="1.1" id="Layer_1" xmlns="http://www.w3.org/2000/svg" xmlns:xlink="http://www.w3.org/1999/xlink" x="0px" y="0px"
	 viewBox="0 0 207.1 299.8" style="enable-background:new 0 0 207.1 299.8;" xml:space="preserve">
<style type="text/css">
	.st0{display:none;fill:url(#SVGID_1_);}
	.st1{fill:url(#SVGID_00000155117242424408197560000011537251452672370363_);}
	.st2{fill:#0EB8E3;}
	.st3{fill:#FFFFFF;}
	.st4{fill:none;stroke:#0EB8E3;stroke-miterlimit:10;}
	.st5{fill:#4F4F4F;}
	.st6{fill:none;stroke:#4F4F4F;stroke-width:2;stroke-miterlimit:10;}
	.st7{fill:#08090C;}
	.st8{fill:url(#SVGID_00000103222928252396357450000011878954776992367013_);}
	.st9{fill:#58A6EA;}
</style>
<radialGradient id="SVGID_1_" cx="100.7037" cy="0.5255" r="102.8957" gradientTransform="matrix(1 0 0 -1 0 302)" gradientUnits="userSpaceOnUse">
	<stop  offset="0" style="stop-color:#08090C"/>
	<stop  offset="0.8" style="stop-color:#21232A"/>
</radialGradient>
<rect x="-3.6" y="-3.7" class="st0" width="214.3" height="307.2"/>
<g id="a">
	
		<radialGradient id="SVGID_00000046306422276347377030000006331882786315323318_" cx="100.8" cy="1002" r="99.4" gradientTransform="matrix(1 0 0 1 0 -778)" gradientUnits="userSpaceOnUse">
		<stop  offset="0" style="stop-color:#08090C"/>
		<stop  offset="0.8" style="stop-color:#21232A"/>
	</radialGradient>
	<rect y="223.5" style="fill:url(#SVGID_00000046306422276347377030000006331882786315323318_);" width="207.1" height="76.3"/>
</g>
<g id="c">
	<path class="st2" d="M78.6,25l41.8,1.5l-0.9,19.3c0,0-18,3.2-42.1-1.7L78.6,25L78.6,25z"/>
	<path class="st2" d="M119.4,46.7v5.4c0,0-10.9,0.2-42.1-1.1v-5.4C77.3,45.6,92.6,50.7,119.4,46.7z"/>
	<g>
		
			<image style="overflow:visible;opacity:0.75;enable-background:new    ;" width="30" height="34" xlink:href="4BD3E205FBE6F0B0.png"  transform="matrix(1 0 0 1 71 17.8)">
		</image>
		<g>
			<polygon class="st3" points="80.6,27 90.7,27.7 91.1,42.5 80.6,41.6 			"/>
		</g>
	</g>
	<g>
		
			<image style="overflow:visible;opacity:0.75;enable-background:new    ;" width="30" height="34" xlink:href="4BD3E205FBE6F0B3.png"  transform="matrix(1 0 0 1 86 17.8)">
		</image>
		<g>
			<polygon class="st3" points="95.1,27.6 106.3,28.2 105.6,42.1 95.1,41.2 			"/>
		</g>
	</g>
	<circle class="st2" cx="89.5" cy="2.6" r="2.6"/>
	<path class="st4" d="M89.5,2.6c0,0,11,2.7,10.1,23.1"/>
	<path class="st5" d="M52.7,53.5c0,0-28,39.2-31.5,59.8s21.1,19.4,21.1,19.4l-3.8-5.8c0,0-32.7,1.3,4.5-47.3l13.5-15.4l-3.8-10.8
		L52.7,53.5z"/>
	<path class="st5" d="M146.4,53.5c0,0,37.6,46.1,24.9,59.8s-22.7,4.2-22.7,4.2l2.2-5.3c0,0,27.1,7.3,17.8-15.9s-25.7-35.7-25.7-35.7
		L146.4,53.5z"/>
	<polygon class="st2" points="52.7,53.5 146.4,53.5 141.9,123.8 55,123.8 	"/>
	<path class="st6" d="M136.7,119.8c0,0-1.1,65.4,0,113.1H126"/>
	<path class="st6" d="M59.7,122.3c0,0-2.5,46.2-2,112.8H47.3"/>
	<polygon class="st7" points="38.4,61.4 151.4,59.5 150.3,130.1 39.1,131.5 	"/>
	
		<radialGradient id="SVGID_00000048479801547187100770000000424662096585780368_" cx="80.4966" cy="2.7586" r="70.6891" gradientTransform="matrix(1 -3.004773e-03 -1.976649e-03 -0.6578 1.1825 95.0294)" gradientUnits="userSpaceOnUse">
		<stop  offset="0" style="stop-color:#58A6EA"/>
		<stop  offset="0.1553" style="stop-color:#4780B3"/>
		<stop  offset="0.3229" style="stop-color:#365B7F"/>
		<stop  offset="0.4802" style="stop-color:#293F56"/>
		<stop  offset="0.6224" style="stop-color:#202A38"/>
		<stop  offset="0.7446" style="stop-color:#1A1D26"/>
		<stop  offset="0.8326" style="stop-color:#181920"/>
	</radialGradient>
	<polygon style="fill:url(#SVGID_00000048479801547187100770000000424662096585780368_);" points="37.6,61.3 149.8,59.5 
		148.7,128.2 38.4,129.6 	"/>
	<path class="st5" d="M43,119.8c0,0-1.9,6.9,4.8,12.4l-4.7,1.8c0,0-5.5-0.9-7.2-8.8C35.9,125.2,38.7,121.6,43,119.8z"/>
	<path class="st5" d="M46.1,116.3l1.6,1.3c0,0-7.7,6.8-9.1,10.7l-1.9-4c0,0,0.9-2.1,9.3-8H46.1z"/>
	<path class="st5" d="M52.6,123.8l1.9,1c0,0-4.8,8.2-8.6,7.9l-2.2-2.8C43.7,129.9,49.6,129.4,52.6,123.8z"/>
	<path class="st5" d="M151.8,118.9c0,0-2.9,0.8-6.2,0.4c0,0,3.2-8.2,3.1-12c0,0,4.1,2.5,5.4,3.9
		C154.1,111.2,154.6,115.5,151.8,118.9z"/>
	<path class="st5" d="M147.3,119.4c0,0-4.1,0.9-9.1-3.1c0,0,1.1-0.7,1.5-1.7c0,0,4.2,2.8,7.5,0.7v4.1H147.3z"/>
	<path class="st5" d="M149.9,108c0,0-6.9-4.3-8.9-4.1c0,0,0.4,1.4,0.5,2c0,0,4.5,1.2,7.8,4.7l0.7-2.6H149.9z"/>
</g>
<g id="d">
	<polygon class="st9" points="113.9,103.3 74.4,103.3 74.4,114.8 49.9,94.1 75.5,72.3 75.5,80.4 113.9,81 	"/>
</g>
</svg>
