<?xml version="1.0" encoding="UTF-8"?><svg id="a" xmlns="http://www.w3.org/2000/svg" xmlns:xlink="http://www.w3.org/1999/xlink" viewBox="0 0 273.41 253.6"><defs><style>.cls-1{fill:#0eb8e3;}.cls-2{fill:#ffce00;}.cls-3{fill:#422f00;}.cls-4{fill:url(#radial-gradient-2);}.cls-5{fill:#7a7a7a;}.cls-6{fill:url(#radial-gradient);}.cls-7{fill:url(#linear-gradient);}.cls-8{fill:#76d5ee;}.cls-9{stroke:#464646;}.cls-9,.cls-10,.cls-11{fill:none;stroke-miterlimit:10;stroke-width:3px;}.cls-12{fill:#ff7900;}.cls-13{fill:#e5d0a3;}.cls-14{fill:#464646;}.cls-15{fill:#1c1c1c;opacity:.75;}.cls-16{fill:#fff;}.cls-10{stroke:#0eb8e3;}.cls-17{fill:#b7ac91;}.cls-11{stroke:#424242;}.cls-18{fill:#f7f7f7;}.cls-19{fill:#c6be91;}.cls-20{fill:#936b11;}</style><linearGradient id="linear-gradient" x1="19.91" y1="1041.7" x2="266.11" y2="1041.7" gradientTransform="translate(0 -824)" gradientUnits="userSpaceOnUse"><stop offset="0" stop-color="#21232a"/><stop offset=".5" stop-color="#4e4e44"/><stop offset="1" stop-color="#21232a"/></linearGradient><radialGradient id="radial-gradient" cx="-136.31" cy="1006.3" fx="-136.31" fy="1006.3" r="91.5" gradientTransform="translate(310.5 -824) scale(1.06 1)" gradientUnits="userSpaceOnUse"><stop offset="0" stop-color="#bbb58d"/><stop offset=".9" stop-color="#21232a" stop-opacity="0"/></radialGradient><radialGradient id="radial-gradient-2" cx="243.83" cy="230.34" fx="243.83" fy="230.34" r="23.7" gradientTransform="translate(0 256) scale(1 -1)" gradientUnits="userSpaceOnUse"><stop offset="0" stop-color="#feeb54"/><stop offset=".91" stop-color="#231f20" stop-opacity="0"/></radialGradient></defs><line class="cls-9" x1="181.91" y1="74.7" x2="173.01" y2="69"/><path class="cls-1" d="M89.41,50.9l84.8,6.4-1.9,41.6s-34.8,2.6-87.4-7.8l4.6-40.3s-.1.1-.1.1Z"/><path class="cls-1" d="M172.51,100.5l-.2,8.6s-23.1-1.1-88.4-3.8l.9-11.3s71.5,13.2,87.7,6.5Z"/><polygon class="cls-16" points="146.81 62.9 169.41 62.9 167.51 90.2 145.91 87.4 146.81 62.9"/><circle class="cls-1" cx="130.61" cy="5.5" r="5.5"/><path class="cls-10" d="M129.41,61.7s6.1-9.8,1.2-56.2"/><polygon class="cls-16" points="117.71 59.2 141.21 62.9 139.31 88.3 117.71 89.9 117.71 59.2"/><polygon class="cls-11" points="107.91 71.2 144.61 75 140.81 92.9 110.51 90.5 107.91 71.2"/><polygon class="cls-11" points="146.41 75 180.51 74.5 177.41 92.9 149.01 93.1 146.41 75"/><polygon class="cls-1" points="40.11 108.9 192.01 114.7 185.41 195.6 43.41 193.7 40.11 108.9"/><path class="cls-8" d="M76.11,182v.7h12.4v-.7c0-16.5,13-30,29-30s29,13.4,29,30,0,.5,0,.7h12.4v-.7c0-5.8-1.1-11.4-3.2-16.4l7.3-4.3-11.8-16-4.8,6.2c-3.8-3.9-8.4-7-13.4-9.1l4.4-8.4-19.9-4.4v9.7c-5.4,0-10.5,1.1-15.2,3l-2.7-8.2-16.9,11.5,7,5c-4,3.8-7.3,8.4-9.6,13.6l-7.7-2.8-2.8,18.8h6.7v2l-.2-.2h0Z"/><rect class="cls-7" x="19.91" y="181.8" width="246.2" height="71.8"/><polygon class="cls-15" points="184.71 181.1 19.91 242.81 19.91 181.8 184.71 181.1"/><rect class="cls-6" x="65.69" y="181.8" width="207.72" height="71.8"/><path class="cls-5" d="M165.01,103s-12,8-11.3,17.2-12.7,24.8-17.7,26.8c0,0,7-27-11-30s-15-18-15-18c0,0,35,9,55,4Z"/><path class="cls-14" d="M40.61,109.3S-.89,162.6.01,189.9c.9,26.3,83-88.9,83-88.9l-5-12S-12.99,194,25.01,152l18.2-19.9-2.6-22.9v.1Z"/><path class="cls-18" d="M95.01,125.2s54.3,17.6,85.9,5.8c0,0-13.6,43.8-16.9,72.2,0,0-31,7.6-66.4-1.9,0,0,11.2-36.3-2.6-76,0,0,0-.1,0-.1Z"/><path class="cls-14" d="M191.81,114.9s64.2,75.1,39.8,92c-15.7,10.9-60.8-28.6-60.8-28.6l9.1-9s48.9,41.4,48.9,26.3c0-26.3-38.7-65.2-38.7-65.2l1.7-15.5h0Z"/><path class="cls-14" d="M174.91,183.8s-5.6-.8-10.9-4.1c0,0,11.8-11.5,14.6-18,0,0,5,7.3,6.1,10.8,0,0-2.5,7.6-9.8,11.3h0Z"/><rect class="cls-3" x="238.96" y="71.74" width="9.88" height="109.62"/><path class="cls-14" d="M166.71,181.1s-7.6-1.6-13-12.3c0,0,2.4-.4,4-1.7,0,0,4.9,7.9,12.2,7.1l-3.2,6.9Z"/><ellipse class="cls-4" cx="243.83" cy="25.66" rx="21.57" ry="25.66"/><path class="cls-14" d="M180.01,163.7s-8.5-12.6-12-13.8c0,0-.5,2.7-.8,3.8,0,0,6.7,5.6,9.5,14l3.3-3.9v-.1Z"/><path class="cls-14" d="M89.11,73s-10.4,6.5-13,17c0,0,0,7.8,6.5,13,0,0,7.8-9.1,14.4-11.7,0,0-6.5-7.8-7.8-18.3h-.1Z"/><path class="cls-14" d="M86.51,76.3s6.6-13.3,18.6-11.3l1.8,2.7s-10.8-1.7-17.8,12.3l-2.6-3.7Z"/><path class="cls-14" d="M91.11,87.2s7.4-7,14.7-6.1l-.4-4.1s-7.3-1-17.3,6l3.1,4.2h-.1Z"/><line class="cls-9" x1="107.91" y1="71.2" x2="84.51" y2="61.5"/><path class="cls-5" d="M141.81,96s-11.3-1.9-21.5-.6c0,0,13,3.3,20.8,3.1,0,0,1.9-.4.6-2.4l.1-.1h0Z"/><path class="cls-5" d="M144.71,96.1s11.4-.3,21.3,2.4c0,0-13.3,1.4-21.1,0,0,0-1.8-.7-.3-2.5l.1.1Z"/><polygon class="cls-17" points="248.12 71.85 240.21 71.85 241.13 27.47 246.77 27.47 248.12 71.85"/><polygon class="cls-13" points="244.6 28.22 241.63 28.22 240.22 69.87 244.6 28.22"/><polygon class="cls-20" points="244.6 74.99 240.22 75.65 240.22 176.6 241.64 176.6 244.6 74.99"/><path class="cls-12" d="M242.63,27.37s-3.74-1.65-.22-6.33,0-5.75,0-5.75c0,0,7.01,1.32,3.24,12.08h-3.02Z"/><path class="cls-2" d="M244.16,16.78s.63,2.15-1.13,4.16-2.8,4.61-.31,6.16h2.56s-2.57-1.76-1.46-3.67,2.26-4.8.33-6.66h.01Z"/><path class="cls-19" d="M192.94,118.01s25.84,29.58,36,54.74c0,0-13.27-23.83-36-50.23v-4.52h0Z"/><polygon class="cls-19" points="181.91 73.54 178.89 90.76 180.51 73.54 181.91 73.54"/><path class="cls-15" d="M144.02,219.65s-36.9,2.82-54.12-3.11l-31.34,37.05h78.16l7.31-33.95Z"/><path class="cls-15" d="M144.61,228.12s37.33-18.92,53.42-5.65,9.88,31.12,9.88,31.12l-23.2-.91s19.71-14.3,4.57-24.28-50.52,15.65-50.52,15.65l3.41-15.82,2.45-.11Z"/></svg>