<?xml version="1.0" encoding="UTF-8"?><svg xmlns="http://www.w3.org/2000/svg" xmlns:xlink="http://www.w3.org/1999/xlink" viewBox="0 0 207.1 299.8"><defs><radialGradient id="b" cx="100.8" cy="224" fx="100.8" fy="224" r="99.4" gradientUnits="userSpaceOnUse"><stop offset="0" stop-color="#e1e1e1"/><stop offset=".8" stop-color="#fff"/></radialGradient></defs><g id="a"><rect y="223.5" width="207.1" height="76.3" style="fill:url(#b);"/></g><g id="c"><path d="m78.6,25l41.8,1.5-.9,19.3s-18,3.2-42.1-1.7l1.3-19Z" style="fill:#0eb8e3;"/><path d="m119.4,46.7v5.4s-10.9.2-42.1-1.1v-5.4s15.3,5.1,42.1,1.1Z" style="fill:#0eb8e3;"/><polygon points="80.6 27 90.7 27.7 91.1 42.5 80.6 41.6 80.6 27" style="fill:#fff;"/><polygon points="95.1 27.6 106.3 28.2 105.6 42.1 95.1 41.2 95.1 27.6" style="fill:#fff;"/><circle cx="89.5" cy="2.6" r="2.6" style="fill:#0eb8e3;"/><path d="m89.5,2.6s11,2.7,10.1,23.1" style="fill:none; stroke:#0eb8e3; stroke-miterlimit:10;"/><path d="m52.7,53.5s-28,39.2-31.5,59.8,21.1,19.4,21.1,19.4l-3.8-5.8s-32.7,1.3,4.5-47.3l13.5-15.4-3.8-10.8Z" style="fill:#464646;"/><path d="m146.4,53.5s37.6,46.1,24.9,59.8-22.7,4.2-22.7,4.2l2.2-5.3s27.1,7.3,17.8-15.9-25.7-35.7-25.7-35.7l3.5-7.1Z" style="fill:#464646;"/><polygon points="52.7 53.5 146.4 53.5 141.9 123.8 55 123.8 52.7 53.5" style="fill:#0eb8e3;"/><path d="m136.7,119.8s-1.1,65.4,0,113.1h-10.7" style="fill:none; stroke:#464646; stroke-miterlimit:10; stroke-width:2px;"/><path d="m59.7,122.3s-2.5,46.2-2,112.8h-10.4" style="fill:none; stroke:#464646; stroke-miterlimit:10; stroke-width:2px;"/><polygon points="38.4 61.4 151.4 59.5 150.3 130.1 39.1 131.5 38.4 61.4" style="fill:#ccc;"/><polygon points="37.6 61.3 149.8 59.5 148.7 128.2 38.4 129.6 37.6 61.3" style="fill:#ebebeb;"/><path d="m43,119.8s-1.9,6.9,4.8,12.4l-4.7,1.8s-5.5-.9-7.2-8.8c0,0,2.8-3.6,7.1-5.4Z" style="fill:#464646;"/><path d="m46.1,116.3l1.6,1.3s-7.7,6.8-9.1,10.7l-1.9-4s.9-2.1,9.3-8Z" style="fill:#464646;"/><path d="m52.6,123.8l1.9,1s-4.8,8.2-8.6,7.9l-2.2-2.8s5.9-.5,8.9-6.1Z" style="fill:#464646;"/><path d="m151.8,118.9s-2.9.8-6.2.4c0,0,3.2-8.2,3.1-12,0,0,4.1,2.5,5.4,3.9,0,0,.5,4.3-2.3,7.7Z" style="fill:#464646;"/><path d="m147.3,119.4s-4.1.9-9.1-3.1c0,0,1.1-.7,1.5-1.7,0,0,4.2,2.8,7.5.7v4.1Z" style="fill:#464646;"/><path d="m149.9,108s-6.9-4.3-8.9-4.1c0,0,.4,1.4.5,2,0,0,4.5,1.2,7.8,4.7l.7-2.6Z" style="fill:#464646;"/></g><g id="d"><polygon points="113.9 103.3 74.4 103.3 74.4 114.8 49.9 94.1 75.5 72.3 75.5 80.4 113.9 81 113.9 103.3" style="fill:#58a6ea;"/></g></svg>