<?xml version="1.0" encoding="UTF-8"?><svg id="a" xmlns="http://www.w3.org/2000/svg" viewBox="0 0 195.5 159.5"><rect width="195.5" height="159.5" rx="10" ry="10" style="fill:#e1e1e1; stroke-width:0px;"/><rect x="6.4" y="24.2" width="84.1" height="35.6" rx="4.4" ry="4.4" style="fill:#fff; stroke-width:0px;"/><rect x="32.4" y="31.6" width="53.5" height="3.7" style="fill:#7a7a7a; stroke-width:0px;"/><rect x="32.4" y="41.3" width="53.5" height="2.2" style="fill:#7a7a7a; stroke-width:0px;"/><rect x="32.4" y="48" width="53.5" height="4.5" style="fill:#7a7a7a; stroke-width:0px;"/><rect x="6.4" y="69.7" width="84.1" height="35.6" rx="4.4" ry="4.4" style="fill:#fff; stroke-width:0px;"/><rect x="32.4" y="77.1" width="53.5" height="3.7" style="fill:#7a7a7a; stroke-width:0px;"/><rect x="32.4" y="86.7" width="53.5" height="2.2" style="fill:#7a7a7a; stroke-width:0px;"/><rect x="32.4" y="93.4" width="53.5" height="4.5" style="fill:#7a7a7a; stroke-width:0px;"/><rect x="6.4" y="115.1" width="84.1" height="35.6" rx="4.4" ry="4.4" style="fill:#fff; stroke-width:0px;"/><rect x="32.4" y="122.5" width="53.5" height="3.7" style="fill:#7a7a7a; stroke-width:0px;"/><rect x="32.4" y="132.2" width="53.5" height="2.2" style="fill:#7a7a7a; stroke-width:0px;"/><rect x="32.4" y="138.9" width="53.5" height="4.5" style="fill:#7a7a7a; stroke-width:0px;"/><rect x="103.3" y="23.6" width="84.1" height="35.6" rx="4.4" ry="4.4" style="fill:#fff; stroke-width:0px;"/><rect x="129.3" y="31" width="53.5" height="3.7" style="fill:#7a7a7a; stroke-width:0px;"/><rect x="129.3" y="40.7" width="53.5" height="2.2" style="fill:#7a7a7a; stroke-width:0px;"/><rect x="129.3" y="47.4" width="53.5" height="4.5" style="fill:#7a7a7a; stroke-width:0px;"/><rect x="103.3" y="69.1" width="84.1" height="35.6" rx="4.4" ry="4.4" style="fill:#fff; stroke-width:0px;"/><rect x="129.3" y="76.5" width="53.5" height="3.7" style="fill:#7a7a7a; stroke-width:0px;"/><rect x="129.3" y="86.1" width="53.5" height="2.2" style="fill:#7a7a7a; stroke-width:0px;"/><rect x="129.3" y="92.8" width="53.5" height="4.5" style="fill:#7a7a7a; stroke-width:0px;"/><rect x="103.3" y="114.5" width="84.1" height="35.6" rx="4.4" ry="4.4" style="fill:#fff; stroke-width:0px;"/><rect x="129.3" y="121.9" width="53.5" height="3.7" style="fill:#7a7a7a; stroke-width:0px;"/><rect x="129.3" y="131.6" width="53.5" height="2.2" style="fill:#7a7a7a; stroke-width:0px;"/><rect x="129.3" y="138.3" width="53.5" height="4.5" style="fill:#7a7a7a; stroke-width:0px;"/><path d="m63.1,16.1c-.4,1.1-1.6,1.7-2.7,1.7-1.8,0-3.2-1.7-3.3-3.7v-.3c0-1.8,1.2-3.7,3.2-3.7s2,.6,2.6,1.4l-4.5,1.8v.3c.1,0,5-1.9,5-1.9-.6-1.1-1.7-1.9-3.1-1.9-2.1,0-3.4,2-3.5,4.2,0,2.1,1.5,4.2,3.6,4.2s2.5-.7,3-1.9h-.3Z" style="stroke-width:0px;"/><path d="m78.5,17.3v-4.4s-.9-3.1-2.9-3.1-2,.5-2.8,1.1l.2.2c.9-.6,1.8-1,2.6-1,1.6,0,2.6,2.8,2.6,2.8v2.9c0,.2,0,.4-.2.6-.6,1-1.9,1.4-3.1,1.4s-2.2-.8-2.2-2.1,1.6-1.9,2.9-1.9,1,0,1.5.1v-.3c-.4,0-.9-.1-1.5-.1-1.3,0-3.2.5-3.2,2.2s1.1,2.4,2.5,2.4,2.5-.4,3.3-1.5v.7c0,.3.2.6.5.6v-.2c-.2,0-.2-.1-.3-.3Z" style="stroke-width:0px;"/><path d="m70.3,18v-7h.3v7h-.3Zm.7-8.2c0,.3-.3.6-.6.6s-.6-.3-.6-.6.3-.6.6-.6.6.3.6.6Z" style="stroke-width:0px;"/><path d="m68.6,10.2c-1.6,0-2.7,1.2-3.1,2.7v5.1h-.3v-8.1h.3v2.1c.7-1.3,1.7-2.1,3.1-2.1v.3Z" style="stroke-width:0px;"/><path d="m56.5,17.6s-.6.5-1.5.5-1.4-1.2-1.4-1.2v-6.6h-1.2v-.3h1.2v-2.8h.3v2.8h2v.3h-2v6.6c.1.6.6.9,1.1.9s1.3-.4,1.3-.4l.2.2Z" style="stroke-width:0px;"/><path d="m51.2,17.3v-4.4s-1-3.1-2.9-3.1-2,.5-2.8,1.1l.2.2c.9-.6,1.8-1,2.6-1,1.6,0,2.7,2.8,2.7,2.8v2.9c0,.2,0,.4-.2.6-.6,1-1.9,1.4-3.1,1.4s-2.2-.8-2.2-2.1,1.6-1.9,2.9-1.9,1,0,1.5.1v-.3c-.4,0-.9-.1-1.5-.1-1.3,0-3.2.5-3.2,2.2s1.1,2.4,2.5,2.4,2.5-.4,3.3-1.5v.7c0,.3.2.6.5.6v-.2c-.2,0-.2-.1-.3-.3Z" style="stroke-width:0px;"/><path d="m43,18V7.7l-4.9,8.1h-.2l-4.9-8.1v10.2h-.3V6.9h.2l5.1,8.5,5.1-8.5h.2v11h-.4Z" style="stroke-width:0px;"/><path d="m32.1,11.7c-.7-.7-1.6-1.1-2.6-1.1s-2.1.5-2.7,1.2c-.7-.8-1.6-1.2-2.7-1.2s-.9,0-1.3.3c.2-.5.3-1,.2-1.6-.1-1.8-1.6-3.2-3.4-3.3s-3.9,1.5-3.9,3.6,0,.9.3,1.3c-.5-.2-1-.3-1.6-.2-1.8.1-3.2,1.6-3.3,3.4s1.7,3.9,3.8,3.8,3.3-1.5,3.4-3.3,0-1.1-.2-1.6c.4.2.9.3,1.3.3s.9,0,1.3-.3c-.2.5-.3,1-.2,1.6.1,1.8,1.6,3.2,3.4,3.3s2.2-.4,2.9-1.2c.7.8,1.6,1.2,2.7,1.2s1.9-.4,2.6-1.1v-5.1h0Z" style="fill:#fff; stroke-width:0px;"/><path d="m18.1,10.2c0-.2-.1-.4-.1-.6,0-.8.6-1.4,1.4-1.4s1.4.6,1.4,1.4,0,.4-.2.6l1.4,1.4c.4-.6.7-1.3.7-2,0-1.9-1.5-3.4-3.4-3.4s-3.4,1.5-3.4,3.4.2,1.5.7,2l1.4-1.4Z" style="fill:#5ca2cc; stroke-width:0px;"/><path d="m20,10.8c-.2,0-.4.2-.6.2s-.4,0-.6-.1l-1.4,1.4c.6.4,1.2.6,2,.6s1.5-.3,2-.7l-1.4-1.4Z" style="fill:#5ca2cc; stroke-width:0px;"/><path d="m24.1,10.9c-.5,0-1,.1-1.5.3-.1.2-.2.4-.4.6l1.2,1.2c.2,0,.4-.2.6-.2.8,0,1.4.6,1.4,1.4s-.6,1.4-1.4,1.4-1.4-.6-1.4-1.4,0-.4.2-.6l-1.2-1.2c-.2.1-.4.3-.6.4-.2.4-.3,1-.3,1.5,0,1.9,1.5,3.4,3.4,3.4s3.4-1.5,3.4-3.4c0-1.9-1.5-3.4-3.4-3.4Z" style="fill:#73c055; stroke-width:0px;"/><path d="m17.2,12.5l-1.2,1.2c0,.2.1.4.1.6,0,.8-.6,1.4-1.4,1.4s-1.4-.6-1.4-1.4.6-1.4,1.4-1.4.4,0,.6.1l1.2-1.2c-.1-.2-.2-.3-.3-.5-.4-.2-1-.3-1.5-.3-1.9,0-3.4,1.5-3.4,3.4s1.5,3.4,3.4,3.4,3.4-1.5,3.4-3.4-.1-1-.3-1.5c-.2,0-.3-.2-.5-.3Z" style="fill:#9e53a0; stroke-width:0px;"/><path d="m31.9,11.8c-.6-.6-1.4-1-2.4-1s-2,.5-2.6,1.2c.5.6.7,1.4.7,2.2s-.3,1.6-.7,2.2c.6.7,1.5,1.2,2.6,1.2s1.8-.4,2.4-1v-4.8Zm-2.3,3.8c-.8,0-1.4-.6-1.4-1.4s.6-1.4,1.4-1.4,1.4.6,1.4,1.4-.6,1.4-1.4,1.4Z" style="fill:#f0824b; stroke-width:0px;"/><rect x="9.4" y="30.9" width="19" height="17.2" rx="2" ry="2" style="fill:#81b5cc; stroke-width:0px;"/><rect x="9.3" y="76.9" width="19" height="17.2" rx="2" ry="2" style="fill:#a683cc; stroke-width:0px;"/><rect x="9.3" y="122.5" width="19" height="17.2" rx="2" ry="2" style="fill:#ccab83; stroke-width:0px;"/><rect x="107.2" y="31.3" width="19" height="17.2" rx="2" ry="2" style="fill:#81b5cc; stroke-width:0px;"/><rect x="107.3" y="76.1" width="19" height="17.2" rx="2" ry="2" style="fill:#a683cc; stroke-width:0px;"/><rect x="107.3" y="120.2" width="19" height="17.2" rx="2" ry="2" style="fill:#ccab83; stroke-width:0px;"/></svg>