<?xml version="1.0" encoding="UTF-8"?><svg id="a" xmlns="http://www.w3.org/2000/svg" viewBox="0 0 541.1 312.1"><path d="M361.1,288.1c-5.1,12.1-18.2,19.4-30.7,19.4-20.9,0-36.3-19.9-37.8-42.3v-3.6c1-20.3,13.8-42.5,36.3-42.5s23.2,6.4,30,16.5l-51.6,20.8,1.2,3.3,55.6-22.3c-7.1-12.9-19.4-21.9-35.2-21.9-23.8,0-38.9,23.1-39.6,47.8,0,23.7,17.2,47.7,41.1,47.7s28.6-7.6,33.8-22.1l-3.1-.9Z" style="fill:#fff; stroke:#fff; stroke-miterlimit:10; stroke-width:2px;"/><path d="M537.2,302.2v-51c0-19.9-11.6-35.6-33.8-35.6s-22.4,5.5-32,12.1l2.1,2.8c10.3-7.3,21-11.4,29.9-11.4,18.3,0,30.2,13.2,30.2,32v32.7c0,2.1-.9,4.6-2.7,7.3-7.3,11.4-22.9,16.4-36.5,16.4s-26.3-9.8-26.3-24.7,19.4-22.8,34.5-22.8,11.4.2,17.4,1.4l.6-3.3c-5-.9-11.1-1.7-18-1.7-16,0-38.1,6.4-38.1,26.3s13.2,28.3,29.9,28.3,29.7-5.3,39.1-17.4v8.5c0,3.7,2.3,6.9,6.4,7.1v-3.6c-2,0-2.5-1.4-2.8-3.6Z" style="fill:#fff; stroke:#fff; stroke-miterlimit:10; stroke-width:2px;"/><path d="M442.4,309.3v-79.6h3.6v79.6h-3.6ZM451.3,216.3c0,3.8-3.1,6.9-6.9,6.9s-6.9-3.1-6.9-6.9,3.1-6.9,6.9-6.9,6.9,3.1,6.9,6.9Z" style="fill:#fff; stroke:#fff; stroke-miterlimit:10; stroke-width:2px;"/><path d="M422.4,220.5c-18.9.7-31.3,13.5-35.9,30.4v58.3h-3.6v-92.3h3.6v23.8c7.6-14.9,19.7-23.8,35.9-23.8v3.6Z" style="fill:#fff; stroke:#fff; stroke-miterlimit:10; stroke-width:2px;"/><path d="M284.2,305c-.2.2-7.1,5.2-16.9,5.2s-16-5.7-16-14.2v-75.4h-13.3v-3.6h13.3v-32.2h3.6v32.2h22.2v3.6h-22.2v75.4c.5,6.9,6.2,10.7,12.5,10.7s14.6-4.3,14.9-4.5l2,2.8Z" style="fill:#fff; stroke:#fff; stroke-miterlimit:10; stroke-width:2px;"/><path d="M224.7,302.2v-51c0-19.9-11.6-35.6-33.8-35.6s-22.4,5.5-32,12.1l2.1,2.8c10.3-7.3,21-11.4,29.9-11.4,18.3,0,30.2,13.2,30.2,32v32.7c0,2.1-.9,4.6-2.7,7.3-7.3,11.4-22.9,16.4-36.5,16.4s-26.3-9.8-26.3-24.7,19.4-22.8,34.5-22.8,11.4.2,17.4,1.4l.6-3.3c-5-.9-11.1-1.7-18-1.7-16,0-38.1,6.4-38.1,26.3s13.2,28.3,29.9,28.3,29.7-5.3,39.1-17.4v8.5c0,3.7,2.3,6.9,6.4,7.1v-3.6c-2,0-2.5-1.4-2.8-3.6Z" style="fill:#fff; stroke:#fff; stroke-miterlimit:10; stroke-width:2px;"/><path d="M130.1,309.3v-118.5l-56,93.6h-2.8L15.2,190.8v118.5h-3.6v-126.3h2.8l58.2,97.1,58.2-97.1h2.8v126.3h-3.6Z" style="fill:#fff; stroke:#fff; stroke-miterlimit:10; stroke-width:2px;"/><path d="M190.8,99.3c-3.4,0-6.6.8-9.5,2.3l-41.7-41.7c1.4-2.9,2.3-6.1,2.3-9.5,0-11.8-9.5-21.3-21.3-21.3s-21.3,9.5-21.3,21.3.7,6.2,2,9l-42,42c-2.7-1.3-5.8-2-9-2-11.8,0-21.3,9.5-21.3,21.3s9.5,21.3,21.3,21.3,21.3-9.5,21.3-21.3c0-2.9-.6-5.8-1.7-8.3l42.3-42.3c2.6,1.1,5.4,1.7,8.3,1.7s6.7-.8,9.6-2.3l41.7,41.7c-1.5,2.9-2.3,6.1-2.3,9.6,0,11.8,9.5,21.3,21.3,21.3s21.3-9.5,21.3-21.3c0-11.8-9.5-21.3-21.3-21.3Z" style="fill:#fff;"/><path d="M272.4,70.2c-15.4,0-29.1,6.9-38.4,17.7,6.9,9.1,11,20.4,11,32.7s-4.1,23.6-11,32.7c9.2,10.9,23,17.7,38.4,17.7,27.8,0,50.4-22.6,50.4-50.4s-22.6-50.4-50.4-50.4ZM272.4,141.9c-11.8,0-21.3-9.5-21.3-21.3s9.5-21.3,21.3-21.3,21.3,9.5,21.3,21.3c0,11.8-9.5,21.3-21.3,21.3Z" style="fill:#f0824b;"/><path d="M101.4,59.4c-1.3-2.7-2-5.8-2-9,0-11.8,9.5-21.3,21.3-21.3s21.3,9.5,21.3,21.3-.8,6.7-2.3,9.5l21,21c6.5-8.5,10.4-19.1,10.4-30.6,0-27.8-22.6-50.4-50.4-50.4s-50.4,22.6-50.4,50.4,3.7,21.7,10,30.2l21.1-21.1Z" style="fill:#5ca2cc;"/><path d="M130.2,69.4c-2.9,1.4-6.1,2.3-9.5,2.3s-5.9-.6-8.5-1.8l-21.2,21.2c8.3,6.1,18.6,9.7,29.7,9.7s22.1-3.9,30.6-10.4l-21-21Z" style="fill:#5ca2cc;"/><path d="M190.8,70.2c-8,0-15.5,1.9-22.2,5.2-1.5,2.9-3.3,5.7-5.3,8.2l18,18c2.9-1.4,6.1-2.3,9.5-2.3,11.8,0,21.3,9.5,21.3,21.3s-9.5,21.3-21.3,21.3-21.3-9.5-21.3-21.3.8-6.7,2.3-9.5l-18-18c-2.6,2-5.3,3.8-8.2,5.3-3.3,6.7-5.2,14.2-5.2,22.2,0,27.8,22.6,50.4,50.4,50.4s50.4-22.6,50.4-50.4-22.6-50.4-50.4-50.4Z" style="fill:#73c055;"/><path d="M88.2,93.8l-18.3,18.3c1.1,2.6,1.8,5.5,1.8,8.5,0,11.8-9.5,21.3-21.3,21.3s-21.3-9.5-21.3-21.3,9.5-21.3,21.3-21.3,6.3.7,9,2l18.1-18.1c-1.9-2.5-3.5-5.1-5-7.8-6.7-3.3-14.2-5.2-22.2-5.2C22.6,70.2,0,92.8,0,120.6s22.6,50.4,50.4,50.4,50.4-22.6,50.4-50.4-1.9-15.5-5.2-22.2c-2.6-1.3-5.1-2.9-7.4-4.6Z" style="fill:#9e53a0;"/><path d="M293.7,120.6c0-11.8-9.5-21.3-21.3-21.3s-21.3,9.5-21.3,21.3,9.5,21.3,21.3,21.3,21.3-9.5,21.3-21.3Z" style="fill:#fff;"/></svg>