<?xml version="1.0" encoding="utf-8"?>
<!-- Generator: Adobe Illustrator 15.1.0, SVG Export Plug-In . SVG Version: 6.00 Build 0)  -->
<!DOCTYPE svg PUBLIC "-//W3C//DTD SVG 1.0//EN" "http://www.w3.org/TR/2001/REC-SVG-20010904/DTD/svg10.dtd">
<svg version="1.0" id="Layer_1" xmlns="http://www.w3.org/2000/svg" xmlns:xlink="http://www.w3.org/1999/xlink" x="0px" y="0px"
	 width="543.825px" height="314.824px" viewBox="0 0 543.825 314.824" enable-background="new 0 0 543.825 314.824"
	 xml:space="preserve">
<g>
	<g>
		<path d="M364.882,291.878c-5.09,12.096-18.232,19.388-30.711,19.388c-20.865,0-36.305-19.923-37.781-42.334v-3.558
			c0.984-20.275,13.796-42.513,36.3-42.513c12.816,0,23.222,6.402,29.959,16.519l-51.62,20.786l1.243,3.292l55.573-22.272
			c-7.051-12.938-19.393-21.879-35.155-21.879c-23.814,0-38.931,23.123-39.587,47.846c0,23.66,17.247,47.672,41.068,47.672
			c12.812,0,28.577-7.647,33.833-22.056L364.882,291.878z"/>
		<path d="M540.975,305.928V254.88c0-19.92-11.559-35.574-33.798-35.574c-11.38,0-22.412,5.515-32.017,12.096l2.139,2.844
			c10.315-7.292,20.986-11.385,29.878-11.385c18.323,0,30.243,13.162,30.243,32.018v32.729c0,2.133-0.893,4.625-2.668,7.292
			c-7.295,11.385-22.946,16.365-36.467,16.365c-13.694,0-26.322-9.784-26.322-24.724c0-17.252,19.386-22.767,34.508-22.767
			c5.981,0,11.409,0.224,17.411,1.439l0.616-3.339c-5.012-0.942-11.081-1.658-18.027-1.658c-16.012,0-38.07,6.402-38.07,26.325
			c0,15.83,13.165,28.281,29.885,28.281c14.406,0,29.709-5.335,39.135-17.434v8.538c0,3.74,2.312,6.942,6.404,7.116v-3.556
			C541.863,309.489,541.333,308.064,540.975,305.928z"/>
		<path d="M446.154,313.044v-79.571h3.561v79.571H446.154z M455.054,220.062c0,3.829-3.103,6.929-6.927,6.929
			c-3.826,0-6.927-3.1-6.927-6.929c0-3.824,3.101-6.927,6.927-6.927C451.952,213.135,455.054,216.238,455.054,220.062z"/>
		<path d="M426.109,224.286c-18.855,0.711-31.305,13.518-35.932,30.415v58.343h-3.556v-92.316h3.556v23.838
			c7.648-14.945,19.744-23.838,35.932-23.838V224.286z"/>
		<path d="M287.986,308.778c-0.179,0.176-7.115,5.156-16.896,5.156c-8.538,0-16.009-5.691-16.009-14.229v-75.419h-13.34v-3.558
			h13.34v-32.195h3.556v32.195h22.235v3.558h-22.235v75.419c0.536,6.937,6.227,10.674,12.454,10.674
			c8.18,0,14.585-4.269,14.942-4.451L287.986,308.778z"/>
		<path d="M228.493,305.928V254.88c0-19.92-11.562-35.574-33.797-35.574c-11.383,0-22.41,5.515-32.016,12.096l2.134,2.844
			c10.314-7.292,20.987-11.385,29.881-11.385c18.323,0,30.239,13.162,30.239,32.018v32.729c0,2.133-0.891,4.625-2.667,7.292
			c-7.293,11.385-22.947,16.365-36.466,16.365c-13.694,0-26.324-9.784-26.324-24.724c0-17.252,19.388-22.767,34.507-22.767
			c5.986,0,11.413,0.224,17.413,1.439l0.618-3.339c-5.012-0.942-11.081-1.658-18.03-1.658c-16.008,0-38.065,6.402-38.065,26.325
			c0,15.83,13.162,28.281,29.881,28.281c14.409,0,29.706-5.335,39.134-17.434v8.538c0,3.74,2.313,6.942,6.402,7.116v-3.556
			C229.381,309.489,228.848,308.064,228.493,305.928z"/>
		<path d="M133.875,313.044V194.58l-56.029,93.562H75L18.968,194.58v118.464h-3.557V186.756h2.846l58.166,97.119l58.165-97.119
			h2.846v126.289H133.875z"/>
	</g>
	<g>
		<path fill="#FFFFFF" d="M276.141,70.22c-16.269,0-30.851,7.185-40.777,18.542c-9.924-11.357-24.506-18.542-40.776-18.542
			c-7.006,0-13.696,1.345-19.842,3.769c2.423-6.147,3.768-12.835,3.768-19.842C178.514,24.243,154.272,0,124.368,0
			C94.462,0,70.22,24.243,70.22,54.147c0,7.006,1.345,13.694,3.769,19.841c-6.147-2.423-12.835-3.768-19.842-3.768
			C24.243,70.22,0,94.464,0,124.368c0,29.905,24.243,54.146,54.147,54.146c29.904,0,54.146-24.241,54.146-54.146
			c0-7.008-1.345-13.696-3.768-19.842c6.146,2.421,12.834,3.768,19.842,3.768c7.006,0,13.696-1.347,19.842-3.768
			c-2.423,6.146-3.768,12.834-3.768,19.842c0,29.905,24.243,54.146,54.146,54.146c16.27,0,30.852-7.183,40.776-18.542
			c9.927,11.36,24.509,18.542,40.777,18.542c29.905,0,54.146-24.241,54.146-54.146C330.288,94.464,306.046,70.22,276.141,70.22z"/>
		<path fill="#F0824B" d="M276.141,73.967c-15.371,0-29.125,6.891-38.371,17.74c6.878,9.081,10.965,20.391,10.965,32.661
			c0,12.269-4.086,23.58-10.965,32.66c9.246,10.85,23,17.74,38.371,17.74c27.834,0,50.402-22.564,50.402-50.399
			C326.543,96.532,303.975,73.967,276.141,73.967z M276.141,145.651c-11.755,0-21.285-9.53-21.285-21.284
			c0-11.756,9.53-21.286,21.285-21.286c11.756,0,21.283,9.53,21.283,21.286C297.424,136.122,287.897,145.651,276.141,145.651z"/>
		<g>
			<path fill="#5CA2CC" d="M105.114,63.176c-1.289-2.745-2.031-5.796-2.031-9.029c0-11.756,9.53-21.286,21.285-21.286
				c11.754,0,21.284,9.53,21.284,21.286c0,3.436-0.833,6.672-2.28,9.546l21.042,21.042c6.491-8.483,10.354-19.083,10.354-30.589
				c0-27.835-22.565-50.4-50.4-50.4c-27.835,0-50.401,22.565-50.401,50.4c0,11.309,3.726,21.749,10.016,30.16L105.114,63.176z"/>
			<path fill="#5CA2CC" d="M133.915,73.15c-2.874,1.447-6.111,2.281-9.547,2.281c-3.021,0-5.89-0.638-8.493-1.772L94.673,94.862
				c8.328,6.085,18.588,9.687,29.695,9.687c11.506,0,22.107-3.865,30.591-10.355L133.915,73.15z"/>
		</g>
		<path fill="#73C055" d="M194.588,73.967c-7.978,0-15.499,1.894-22.202,5.195c-1.521,2.914-3.299,5.67-5.306,8.242l17.96,17.96
			c2.874-1.448,6.11-2.282,9.547-2.282c11.755,0,21.285,9.53,21.285,21.286c0,11.754-9.53,21.284-21.285,21.284
			c-11.755,0-21.285-9.53-21.285-21.284c0-3.438,0.834-6.674,2.281-9.549l-17.958-17.959c-2.572,2.006-5.33,3.785-8.243,5.307
			c-3.302,6.703-5.195,14.223-5.195,22.201c0,27.835,22.565,50.399,50.401,50.399c27.835,0,50.4-22.564,50.4-50.399
			C244.988,96.532,222.423,73.967,194.588,73.967z"/>
		<path fill="#9E53A0" d="M91.986,97.548l-18.328,18.327c1.135,2.603,1.772,5.472,1.772,8.493c0,11.754-9.53,21.284-21.284,21.284
			c-11.755,0-21.285-9.53-21.285-21.284c0-11.756,9.53-21.286,21.285-21.286c3.232,0,6.284,0.742,9.029,2.032l18.14-18.14
			c-1.874-2.453-3.538-5.072-4.978-7.831c-6.701-3.294-14.22-5.177-22.191-5.177c-27.835,0-50.401,22.565-50.401,50.401
			c0,27.835,22.566,50.399,50.401,50.399c27.835,0,50.401-22.564,50.401-50.399c0-7.972-1.881-15.495-5.179-22.194
			C96.781,100.825,94.309,99.284,91.986,97.548z"/>
	</g>
</g>
</svg>
