<?xml version="1.0" encoding="UTF-8"?><svg id="a" xmlns="http://www.w3.org/2000/svg" viewBox="0 0 753.8 133.7"><path d="M578.6,110.4c-5,11.8-17.8,18.9-29.9,18.9-20.3,0-35.4-19.4-36.8-41.2v-3.5c1-19.8,13.4-41.4,35.4-41.4s22.6,6.2,29.2,16.1l-50.3,20.2,1.2,3.2,54.1-21.7c-6.9-12.6-18.9-21.3-34.2-21.3-23.2,0-37.9,22.5-38.6,46.6,0,23,16.8,46.4,40,46.4s27.8-7.4,33-21.5l-3-.9Z" style="fill:#fff; stroke:#fff; stroke-miterlimit:10; stroke-width:2px;"/><path d="M750.1,124.1v-49.7c0-19.4-11.3-34.7-32.9-34.7s-21.8,5.4-31.2,11.8l2.1,2.8c10-7.1,20.4-11.1,29.1-11.1,17.8,0,29.5,12.8,29.5,31.2v31.9c0,2.1-.9,4.5-2.6,7.1-7.1,11.1-22.3,15.9-35.5,15.9s-25.6-9.5-25.6-24.1,18.9-22.2,33.6-22.2,11.1.2,17,1.4l.6-3.3c-4.9-.9-10.8-1.6-17.6-1.6-15.6,0-37.1,6.2-37.1,25.6s12.8,27.5,29.1,27.5,28.9-5.2,38.1-17v8.3c0,3.6,2.3,6.8,6.2,6.9v-3.5c-1.9,0-2.4-1.4-2.8-3.5Z" style="fill:#fff; stroke:#fff; stroke-miterlimit:10; stroke-width:2px;"/><path d="M657.7,131V53.5h3.5v77.5h-3.5ZM666.4,40.4c0,3.7-3,6.8-6.7,6.8s-6.8-3-6.8-6.8,3-6.8,6.8-6.8,6.7,3,6.7,6.8Z" style="fill:#fff; stroke:#fff; stroke-miterlimit:10; stroke-width:2px;"/><path d="M638.2,44.6c-18.4.7-30.5,13.2-35,29.6v56.8h-3.5V41.1h3.5v23.2c7.5-14.6,19.2-23.2,35-23.2v3.5Z" style="fill:#fff; stroke:#fff; stroke-miterlimit:10; stroke-width:2px;"/><path d="M503.7,126.9c-.2.2-6.9,5-16.5,5s-15.6-5.5-15.6-13.9V44.6h-13v-3.5h13V9.7h3.5v31.4h21.7v3.5h-21.7v73.5c.5,6.8,6.1,10.4,12.1,10.4s14.2-4.2,14.6-4.3l1.9,2.8Z" style="fill:#fff; stroke:#fff; stroke-miterlimit:10; stroke-width:2px;"/><path d="M445.7,124.1v-49.7c0-19.4-11.3-34.7-32.9-34.7s-21.8,5.4-31.2,11.8l2.1,2.8c10-7.1,20.4-11.1,29.1-11.1,17.8,0,29.5,12.8,29.5,31.2v31.9c0,2.1-.9,4.5-2.6,7.1-7.1,11.1-22.3,15.9-35.5,15.9s-25.6-9.5-25.6-24.1,18.9-22.2,33.6-22.2,11.1.2,17,1.4l.6-3.3c-4.9-.9-10.8-1.6-17.6-1.6-15.6,0-37.1,6.2-37.1,25.6s12.8,27.5,29.1,27.5,28.9-5.2,38.1-17v8.3c0,3.6,2.3,6.8,6.2,6.9v-3.5c-1.9,0-2.4-1.4-2.8-3.5Z" style="fill:#fff; stroke:#fff; stroke-miterlimit:10; stroke-width:2px;"/><path d="M353.5,131V15.6l-54.6,91.1h-2.8L241.6,15.6v115.4h-3.5V8h2.8l56.7,94.6L354.2,8h2.8v123h-3.5Z" style="fill:#fff; stroke:#fff; stroke-miterlimit:10; stroke-width:2px;"/><path d="M75.7,44.4c-1-2-1.5-4.3-1.5-6.7,0-8.8,7.1-15.9,15.9-15.9s15.9,7.1,15.9,15.9-.6,5-1.7,7.1l15.7,15.7c4.8-6.3,7.7-14.2,7.7-22.8C127.6,16.8,110.8,0,90,0s-37.6,16.8-37.6,37.6,2.8,16.2,7.5,22.5l15.8-15.8Z" style="fill:#5ca2cc;"/><path d="M97.2,51.8c-2.1,1.1-4.6,1.7-7.1,1.7s-4.4-.5-6.3-1.3l-15.8,15.8c6.2,4.5,13.9,7.2,22.2,7.2s16.5-2.9,22.8-7.7l-15.7-15.7Z" style="fill:#5ca2cc;"/><path d="M142.4,52.4c-6,0-11.6,1.4-16.6,3.9-1.1,2.2-2.5,4.2-4,6.2l13.4,13.4c2.1-1.1,4.6-1.7,7.1-1.7,8.8,0,15.9,7.1,15.9,15.9s-7.1,15.9-15.9,15.9-15.9-7.1-15.9-15.9.6-5,1.7-7.1l-13.4-13.4c-1.9,1.5-4,2.8-6.2,4-2.5,5-3.9,10.6-3.9,16.6,0,20.8,16.8,37.6,37.6,37.6s37.6-16.8,37.6-37.6c0-20.8-16.8-37.6-37.6-37.6Z" style="fill:#73c055;"/><path d="M65.9,70l-13.7,13.7c.8,1.9,1.3,4.1,1.3,6.3,0,8.8-7.1,15.9-15.9,15.9s-15.9-7.1-15.9-15.9,7.1-15.9,15.9-15.9,4.7.6,6.7,1.5l13.5-13.5c-1.4-1.8-2.6-3.8-3.7-5.8-5-2.5-10.6-3.9-16.6-3.9C16.8,52.4,0,69.3,0,90s16.8,37.6,37.6,37.6,37.6-16.8,37.6-37.6-1.4-11.6-3.9-16.6c-1.9-1-3.8-2.2-5.5-3.5Z" style="fill:#9e53a0;"/><path d="M229.7,63.2c-6.8-6.7-16.1-10.8-26.4-10.8s-21.7,5.1-28.6,13.2c5.1,6.8,8.2,15.2,8.2,24.4s-3,17.6-8.2,24.4c6.9,8.1,17.2,13.2,28.6,13.2s19.6-4.1,26.4-10.8v-53.7ZM203.3,105.9c-8.8,0-15.9-7.1-15.9-15.9s7.1-15.9,15.9-15.9,15.9,7.1,15.9,15.9-7.1,15.9-15.9,15.9Z" style="fill:#f0824b;"/><path d="M203.3,74.1c-8.8,0-15.9,7.1-15.9,15.9s7.1,15.9,15.9,15.9,15.9-7.1,15.9-15.9-7.1-15.9-15.9-15.9Z" style="fill:#fff;"/><path d="M142.4,74.1c-8.8,0-15.9,7.1-15.9,15.9s7.1,15.9,15.9,15.9,15.9-7.1,15.9-15.9-7.1-15.9-15.9-15.9Z" style="fill:#fff;"/><path d="M90,21.9c-8.8,0-15.9,7.1-15.9,15.9s7.1,15.9,15.9,15.9,15.9-7.1,15.9-15.9-7.1-15.9-15.9-15.9Z" style="fill:#fff;"/><path d="M37.6,73.8c-8.8,0-15.9,7.1-15.9,15.9s7.1,15.9,15.9,15.9,15.9-7.1,15.9-15.9-7.1-15.9-15.9-15.9Z" style="fill:#fff;"/><polygon points="75.7 44.4 44.4 75.7 52.2 83.7 83.7 52.2 75.7 44.4" style="fill:#fff;"/><rect x="111.2" y="41.8" width="10" height="44" transform="translate(-11.1 100.9) rotate(-45)" style="fill:#fff;"/></svg>