<?xml version="1.0" encoding="UTF-8"?><svg id="a" xmlns="http://www.w3.org/2000/svg" viewBox="0 0 195.5 159.5"><rect x=".4" y=".3" width="194.2" height="158.4" rx="10" ry="10" style="fill:#e1e1e1; stroke-width:0px;"/><rect x="7.8" y="26.1" width="178.4" height="120.3" rx="6.8" ry="6.8" style="fill:#002445; stroke-width:0px;"/><rect x="156.7" y="31.5" width="24.4" height="5.4" rx="2.6" ry="2.6" style="fill:#00e05a; stroke-width:0px;"/><rect x="130.2" y="31.5" width="24.4" height="5.4" rx="2.6" ry="2.6" style="fill:#ff9d00; stroke-width:0px;"/><rect x="17.3" y="119.3" width="67.2" height="10" rx="4.3" ry="4.3" style="fill:#00b7ae; stroke-width:0px;"/><rect x="109.3" y="119.3" width="67.2" height="10" rx="4.3" ry="4.3" style="fill:#00b7ae; stroke-width:0px;"/><rect x="86.4" y="123.1" width="21" height=".9" style="fill:#c6c6c6; stroke-width:0px;"/><rect x="17.3" y="103.7" width="67.2" height="10" rx="4.3" ry="4.3" style="fill:#00b7ae; stroke-width:0px;"/><rect x="109.3" y="103.7" width="67.2" height="10" rx="4.3" ry="4.3" style="fill:#00b7ae; stroke-width:0px;"/><rect x="86.4" y="107.6" width="21" height=".9" style="fill:#c6c6c6; stroke-width:0px;"/><rect x="17.3" y="88" width="67.2" height="10" rx="4.3" ry="4.3" style="fill:#00b7ae; stroke-width:0px;"/><rect x="109.3" y="88" width="67.2" height="10" rx="4.3" ry="4.3" style="fill:#00b7ae; stroke-width:0px;"/><rect x="86.4" y="91.8" width="21" height=".9" style="fill:#c6c6c6; stroke-width:0px;"/><rect x="17.3" y="71.3" width="67.2" height="10" rx="4.3" ry="4.3" style="fill:#00b7ae; stroke-width:0px;"/><rect x="109.3" y="71.3" width="67.2" height="10" rx="4.3" ry="4.3" style="fill:#00b7ae; stroke-width:0px;"/><rect x="86.4" y="75.2" width="21" height=".9" style="fill:#c6c6c6; stroke-width:0px;"/><rect x="17.3" y="54.7" width="67.2" height="10" rx="4.3" ry="4.3" style="fill:#00b7ae; stroke-width:0px;"/><rect x="109.3" y="54.7" width="67.2" height="10" rx="4.3" ry="4.3" style="fill:#00b7ae; stroke-width:0px;"/><rect x="86.4" y="58.6" width="21" height=".9" style="fill:#c6c6c6; stroke-width:0px;"/></svg>