<?xml version="1.0" encoding="UTF-8"?><svg id="a" xmlns="http://www.w3.org/2000/svg" viewBox="0 0 195.5 159.5"><rect x="4.7" y="32.6" width="185.4" height="124.9" rx="6.8" ry="6.8" style="fill:#002445; stroke-width:0px;"/><rect x="4.7" y="30.1" width="185.4" height="15.4" style="fill:#007ecc; stroke-width:0px;"/><rect x="26" y="56.9" width="50.5" height="11.6" rx="3.8" ry="3.8" style="fill:#00b7ae; stroke-width:0px;"/><rect x="11.2" y="36.8" width="71.9" height="2.6" style="fill:#fff; stroke-width:0px;"/><rect x="88.2" y="36.8" width="30.8" height="2.6" style="fill:#f9f9f9; stroke-width:0px;"/><rect x="26" y="74.6" width="50.5" height="11.6" rx="3.8" ry="3.8" style="fill:#00b7ae; stroke-width:0px;"/><rect x="26" y="92.2" width="50.5" height="11.6" rx="3.8" ry="3.8" style="fill:#00b7ae; stroke-width:0px;"/><rect x="26" y="109.9" width="50.5" height="11.6" rx="3.8" ry="3.8" style="fill:#00b7ae; stroke-width:0px;"/><rect x="115.2" y="57.6" width="50.5" height="11.6" rx="3.8" ry="3.8" style="fill:#00b7ae; stroke-width:0px;"/><path d="m181.4,1.5H13.1c-4.7,0-8.5,3.8-8.5,8.5v20h185.4V10c0-4.7-3.8-8.5-8.5-8.5Z" style="fill:#fff; stroke-width:0px;"/><rect x="115.2" y="75.2" width="50.5" height="11.6" rx="3.8" ry="3.8" style="fill:#00b7ae; stroke-width:0px;"/><rect x="115.2" y="92.9" width="50.5" height="11.6" rx="3.8" ry="3.8" style="fill:#00b7ae; stroke-width:0px;"/><rect x="115.2" y="110.5" width="50.5" height="11.6" rx="3.8" ry="3.8" style="fill:#00b7ae; stroke-width:0px;"/><line x1="78.2" y1="62.2" x2="113.2" y2="98.7" style="fill:none; stroke:#c6c6c6; stroke-miterlimit:10; stroke-width:.8px;"/><line x1="79.7" y1="80.5" x2="113.2" y2="63.8" style="fill:none; stroke:#c6c6c6; stroke-miterlimit:10; stroke-width:.8px;"/><line x1="113.2" y1="80.5" x2="79.7" y2="97.2" style="fill:none; stroke:#c6c6c6; stroke-miterlimit:10; stroke-width:.8px;"/><line x1="79" y1="115.4" x2="112.4" y2="115.4" style="fill:none; stroke:#c6c6c6; stroke-miterlimit:10; stroke-width:.8px;"/><path d="m35.6,12.7c-1.6,0-3.1.7-4.1,1.9-1-1.2-2.5-1.9-4.1-1.9s-1.4.1-2,.4c.2-.6.4-1.3.4-2,0-3-2.5-5.5-5.5-5.5s-5.5,2.5-5.5,5.5.1,1.4.4,2c-.6-.2-1.3-.4-2-.4-3,0-5.5,2.5-5.5,5.5s2.5,5.5,5.5,5.5,5.5-2.5,5.5-5.5-.1-1.4-.4-2c.6.2,1.3.4,2,.4s1.4-.1,2-.4c-.2.6-.4,1.3-.4,2,0,3,2.5,5.5,5.5,5.5s3.1-.7,4.1-1.9c1,1.2,2.5,1.9,4.1,1.9,3,0,5.5-2.5,5.5-5.5,0-3-2.5-5.5-5.5-5.5Z" style="fill:#fff; stroke-width:0px;"/><path d="m35.6,13.1c-1.6,0-3,.7-3.9,1.8.7.9,1.1,2.1,1.1,3.3s-.4,2.4-1.1,3.3c.9,1.1,2.3,1.8,3.9,1.8,2.8,0,5.1-2.3,5.1-5.1s-2.3-5.1-5.1-5.1Zm0,7.3c-1.2,0-2.2-1-2.2-2.2s1-2.2,2.2-2.2,2.2,1,2.2,2.2c0,1.2-1,2.2-2.2,2.2Z" style="fill:#f0824b; stroke-width:0px;"/><path d="m18.2,12c-.1-.3-.2-.6-.2-.9,0-1.2,1-2.2,2.2-2.2s2.2,1,2.2,2.2,0,.7-.2,1l2.1,2.1c.7-.9,1-1.9,1-3.1,0-2.8-2.3-5.1-5.1-5.1s-5.1,2.3-5.1,5.1.4,2.2,1,3.1l2.1-2.1Z" style="fill:#5ca2cc; stroke-width:0px;"/><path d="m21.1,13c-.3.1-.6.2-1,.2s-.6,0-.9-.2l-2.1,2.1c.8.6,1.9,1,3,1s2.2-.4,3.1-1l-2.1-2.1Z" style="fill:#5ca2cc; stroke-width:0px;"/><path d="m27.3,13.1c-.8,0-1.6.2-2.3.5-.2.3-.3.6-.5.8l1.8,1.8c.3-.1.6-.2,1-.2,1.2,0,2.2,1,2.2,2.2s-1,2.2-2.2,2.2-2.2-1-2.2-2.2,0-.7.2-1l-1.8-1.8c-.3.2-.5.4-.8.5-.3.7-.5,1.4-.5,2.3,0,2.8,2.3,5.1,5.1,5.1s5.1-2.3,5.1-5.1-2.3-5.1-5.1-5.1Z" style="fill:#73c055; stroke-width:0px;"/><path d="m16.9,15.5l-1.9,1.9c.1.3.2.6.2.9,0,1.2-1,2.2-2.2,2.2s-2.2-1-2.2-2.2,1-2.2,2.2-2.2.6,0,.9.2l1.8-1.8c-.2-.2-.4-.5-.5-.8-.7-.3-1.4-.5-2.3-.5-2.8,0-5.1,2.3-5.1,5.1s2.3,5.1,5.1,5.1,5.1-2.3,5.1-5.1-.2-1.6-.5-2.3c-.3-.1-.5-.3-.7-.5Z" style="fill:#9e53a0; stroke-width:0px;"/><rect x="49.4" y="137.1" width="88.3" height="14.7" rx="1.8" ry="1.8" style="fill:#c6c6c6; stroke-width:0px;"/></svg>